<?xml version="1.0" standalone="no"?>
<!DOCTYPE svg PUBLIC "-//W3C//DTD SVG 1.1//EN" "http://www.w3.org/Graphics/SVG/1.1/DTD/svg11.dtd" >
<svg xmlns="http://www.w3.org/2000/svg" xmlns:xlink="http://www.w3.org/1999/xlink" version="1.1">
<metadata>
Created by FontForge 20170731 at Sun May 17 22:56:07 2020
 By Aleksey,,,
Barbara Calligraphy (c) AEN Creative Studio 2020. All Rights Reserved
</metadata>
<defs>
<font id="BarbaraCalligraphy" horiz-adv-x="1306" >
  <font-face 
    font-family="Barbara Calligraphy"
    font-weight="400"
    font-stretch="normal"
    units-per-em="2048"
    panose-1="2 0 5 0 0 0 0 0 0 0"
    ascent="1638"
    descent="-410"
    x-height="1093"
    cap-height="2170"
    bbox="-1161 -1295 4364 3013"
    underline-thickness="150"
    underline-position="-442"
    unicode-range="U+001D-E21E"
  />
<missing-glyph horiz-adv-x="1024" 
d="M100 0v1434h824v-1434h-824zM150 50q353 159 724 0v1334q-384 -118 -724 0v-1334zM419 334l57 58q11 10 20 10q10 0 22 -11l56 -60q9 -11 9 -20q0 -11 -10 -22l-56 -62q-14 -14 -21 -14q-11 0 -20 10l-61 71q-7 9 -7 18q0 10 11 22zM359 1154q27 22 54 37q53 30 112 30
q92 0 148 -47.5t56 -127.5q0 -49 -23 -98.5t-87 -129.5q-63 -80 -99 -132t-36 -99q0 -38 24 -133h-32q-35 97 -35 148q0 76 81.5 218t81.5 217q0 57 -33 90t-91 33q-8 0 -16 -1l32 -51q7 -12 5 -21q-2 -11 -14 -20l-66 -50q-17 -11 -24 -10q-10 2 -17 14l-47 81q-5 10 -3 19
q1 10 29 33z" />
    <glyph glyph-name="uniE078" unicode="a__" horiz-adv-x="3202" 
d="M238 596q25 0 58 19q174 92 430 424q-163 114 -288 122q-76 -2 -134 -61t-92 -146q-44 -110 -44 -210q0 -41 9 -76q15 -61 34 -66.5t27 -5.5zM164 501q-62 0 -103 32q-90 67 -90 221q0 171 114 328q66 86 149.5 124.5t165.5 38.5q39 0 82 -7q131 -21 293 -135
q12 15 24 32q9 12 23 15q28 8 53 8q78 -2 92 -20q10 -12 10 -27q0 -5 -2 -11q-33 -120 -33 -233q0 -72 16 -129t39.5 -83.5t49.5 -26.5q53 0 177 104q41 36 78 72.5t76 70.5q199 166 335 191.5t220 25.5q202 0 514 -125q7 -2 13 -5q250 -97 382 -97q21 0 41 2q97 8 185 77
q19 76 47 96q19 14 37 14q9 0 18 -4q32 -12 32 -53q0 -33 -42 -78q-110 -107 -191 -121.5t-129 -14.5q-138 0 -407 104q-296 116 -488 116q-77 0 -156 -14q-174 -31 -360 -179q-45 -37 -85 -76q-148 -145 -270 -189q-9 -4 -47 -14q-29 -6 -54 -6q-61 0 -107 32
q-113 78 -113 291q0 48 6 102q-175 -216 -310.5 -321t-198 -116.5t-86.5 -11.5z" />
    <glyph glyph-name="uniE079" unicode="b__" horiz-adv-x="3051" 
d="M273 1323q115 149 244.5 330.5t230 363t117 273t16.5 122.5q0 103 -69 168q-45 40 -99 40q-34 0 -68 -17q-71 -37 -132 -108q-211 -256 -288 -751q-47 -298 -56 -559zM387 287q-33 0 -60 14l-3 2q-42 24 -56 79q-1 2 -1 5l-1 33q0 214 277 302q21 91 21 147q0 97 -38 170
q-30 60 -71 60q-62 0 -160 -140q-66 -93 -139 -255q-11 -23 -35 -24.5t-43 -1.5q-40 0 -79 8q-32 9 -32 42q2 35 2 111v25q0 955 226 1466q31 67 93.5 147.5t150.5 142.5q119 84 244 84q73 0 121 -23q31 -14 61 -40q94 -87 94 -219q0 -24 -3 -49q-20 -166 -122.5 -361
t-239 -387.5t-257.5 -350.5q-117 -151 -173 -237q-2 -77 -2 -141q112 197 211 259q3 1 5 3q61 38 123 38q30 0 58 -10q65 -25 110 -86q81 -113 81 -254q0 -25 -7 -74q105 19 241 40q156 29 293 29q312 0 771 -155q358 -118 538 -118q40 0 78 4q136 14 253 108q18 77 47 97
q18 14 36 14q10 0 19 -4q32 -13 32 -52q0 -33 -42 -80q-136 -131 -245.5 -150t-177.5 -19q-191 0 -562 124q-180 59 -372.5 105.5t-393.5 46.5q-115 -1 -262 -29l-75 -13q-97 -14 -198 -34q-64 -232 -189 -337q-75 -62 -147 -62zM359 408q16 0 42 20q65 55 114 196
q-148 -63 -167 -177q-2 -11 -2 -20q0 -19 13 -19z" />
    <glyph glyph-name="uniE080" unicode="c__" horiz-adv-x="2837" 
d="M273 514q-107 0 -172 39q-134 81 -134 260q0 104 44 209q60 145 161 218q57 38 114 38q84 0 150 -95q7 -10 7 -22q0 -22 -18 -33q-11 -8 -23 -8q-19 0 -32 18q-36 52 -68 52q-34 0 -67 -41q-63 -81 -82 -214q-4 -30 -4 -57q0 -97 46 -174q57 -89 190 -89q44 0 99 10
q204 54 401 180q93 59 200 109q188 82 295 89t151 7q211 0 526 -93q237 -71 363 -71q44 0 87 6q102 16 196 91q19 77 47 97h1q18 14 36 14q9 0 18 -4q32 -12 32 -53q0 -33 -42 -78q-114 -112 -208 -133.5t-163 -21.5q-132 0 -389 75q-303 90 -504 90q-37 0 -74 -2
q-158 -9 -333 -84q-110 -51 -208 -112q-117 -74 -260 -134q-225 -83 -383 -83z" />
    <glyph glyph-name="uniE081" unicode="d__" horiz-adv-x="3204" 
d="M155 301q-44 0 -78 24q-121 83 -121 342q0 203 76 378q55 125 144 181q46 29 100 29q43 0 90 -19q105 -42 227 -212v6q30 491 109 855q103 467 280 658q127 137 264 137q31 0 60 -8l12 -3q67 -22 115.5 -80t64.5 -128.5t16 -130.5q0 -182 -110 -411q-135 -284 -394 -613
q-140 -179 -205 -252l-10 -12q-13 -211 -13 -321q0 -69 21 -157q25 -95 66 -95q23 0 58 25q132 79 292 265q82 98 183 184q178 140 300.5 158.5t191.5 18.5q203 0 536 -125q121 -44 223.5 -71.5t187.5 -27.5q130 0 229 75q19 76 47 96q19 14 37 14q9 0 18 -4q32 -13 32 -53
q0 -33 -42 -79q-109 -105 -192 -118.5t-129 -13.5q-149 0 -438 106q-311 118 -505 118q-58 0 -116 -8q-161 -21 -322 -144q-104 -85 -190 -188q-199 -229 -344 -294q-64 -32 -126 -32q-36 0 -65 13q-132 59 -151 274q-175 -247 -274 -302t-155 -55zM231 405q17 0 43 20
q117 81 309 374l2 88q-103 172 -187 237q-39 32 -62 32q-25 0 -66 -56q-88 -121 -115 -310q-10 -70 -10 -131q0 -105 29 -186q23 -54 36.5 -61t20.5 -7zM805 1178q165 194 344 456q239 355 279 617q5 44 5 82q0 132 -61 205q-30 35 -69 51q-154 -45 -279 -321
q-69 -159 -123 -400q-56 -257 -80 -517q-9 -86 -16 -173z" />
    <glyph glyph-name="uniE082" unicode="e__" horiz-adv-x="2985" 
d="M158 908q263 111 317 203q9 16 9 24q0 16 -38 16q-26 0 -74 -15q-122 -45 -203 -203q-6 -12 -11 -25zM170 452q-109 9 -163 71q-67 78 -67 200q0 96 38 174l2 3q42 102 164 204q78 65 204 109q51 19 95 19q58 0 93 -31q29 -25 29 -61q0 -31 -22 -71q-30 -52 -129 -119
t-284 -140q-6 -32 -6 -63q0 -79 43 -121q36 -36 122 -36q102 0 248 56q190 72 373 183q113 69 219 116q162 64 245.5 64.5t87.5 0.5q157 0 311 -34q159 -35 311 -81q312 -95 469 -95q38 0 75 4q122 12 223 91q27 110 86 110q8 0 17 -3q31 -14 31 -54q0 -32 -42 -78
q-120 -116 -221 -134t-167 -18q-169 0 -493 100q-142 42 -289 75.5t-224 34.5t-83 1q-143 0 -285 -50q-113 -47 -233 -121q-61 -36 -116 -65l-81 -42l-32 -15q-356 -184 -541 -184h-8z" />
    <glyph glyph-name="uniE083" unicode="f__" horiz-adv-x="3157" 
d="M173 877q173 140 293 267q143 149 245 333q85 157 98 242.5t13 126.5q0 64 -19 112q-36 95 -116 95q-103 0 -218 -167q-96 -150 -171.5 -419.5t-124.5 -589.5zM216 -677q-105 0 -191 117q-43 59 -72 148q-52 173 -52 476q0 339 53 734q49 353 131 657.5t190 474.5
q89 128 213 176q92 34 165 34q167 0 225 -154q24 -60 24 -141q0 -183 -121 -407q-106 -192 -256 -349q-147 -154 -368 -328q-16 -120 -27 -238q19 -1 39 -1q144 0 390 71q359 105 524 224q67 45 158 91q160 75 277 86t186 11q197 0 520 -64q283 -55 428 -55q74 0 142 11
q126 20 229 101q26 110 83 110q10 0 19 -4q32 -13 32 -52q0 -32 -42 -79q-118 -114 -237 -141.5t-222 -27.5q-157 0 -446 58q-318 64 -503 64q-63 0 -126 -6q-157 -13 -307 -85q-89 -45 -160 -91q-186 -127 -533 -228q-181 -53 -336 -70q79 -73 130 -199q69 -165 69 -410
q0 -63 -5 -131q-21 -232 -78 -310q-33 -45 -91 -65q-27 -8 -54 -8zM272 -578q11 0 23 20q45 61 63 270q5 69 5 131q0 225 -62 374q-69 166 -179 217q-15 -190 -15 -355q0 -310 49 -467q45 -137 94 -179q13 -11 22 -11z" />
    <glyph glyph-name="uniE084" unicode="g__" horiz-adv-x="3023" 
d="M259 537q20 0 46 16q155 100 355 462q-126 95 -224 127q-25 8 -48 8q-36 0 -68 -19q-52 -30 -87 -84q-73 -114 -73 -265q0 -79 23 -147q31 -98 76 -98zM-13 -1293q-153 0 -243 122q-64 89 -66 168.5t-2 88.5q0 145 73 340l1 1q188 452 555 821q172 174 350 305
q23 207 39 360q-192 -327 -358 -428q-71 -48 -144 -48q-44 0 -80 19q-68 36 -105 118q-43 94 -43 215q0 83 23 166q26 98 85 171.5t125.5 96.5t118.5 23q168 0 383 -160q9 18 18.5 37.5t33.5 23.5q32 2 55 2q22 0 60 -2q23 0 35 -12.5t12 -31.5q-9 -103 -43 -407
q179 105 368 177q198 69 365 69q16 0 31 -1q180 -8 334 -64t290 -123q111 -55 215 -93.5t208 -38.5q100 0 200 58q30 73 62 89q16 8 30 8q13 0 25 -7q25 -14 25 -44q0 -40 -55 -84q-129 -92 -201 -97.5t-95 -5.5q-98 0 -197 35q-122 43 -250 106.5t-271 116t-237 57.5
t-117 5q-206 0 -452 -111q-154 -69 -289 -153q-104 -942 -140 -1141q-64 -335 -251 -524q-177 -181 -415 -217q-31 -6 -62 -6h-4zM-14 -1213q203 8 369 247q112 161 167 434q27 158 82 636q20 169 39 339q-342 -268 -584 -616q-139 -200 -235 -430q-68 -181 -68 -310
q0 -137 54 -212q65 -88 176 -88z" />
    <glyph glyph-name="uniE085" unicode="h__" horiz-adv-x="3179" 
d="M-20 337q-18 1 -29 12.5t-11 28.5q11 416 59 911q68 739 217 1190q79 216 238 356q178 158 347 158q74 0 131 -51q76 -67 97 -235q2 -18 2 -38q0 -199 -203 -550q-233 -404 -640 -893l-3 -3q-12 -137 -21 -262q137 228 234 327q1 2 3 3q26 29 49.5 48.5t60.5 35.5
q29 12 53 12q25 0 45 -12q65 -41 93.5 -156t44.5 -252q27 -215 60 -286q32 -61 63.5 -73.5t54.5 -12.5q89 0 258 133q51 40 102 83q270 232 443 256q122 16 187 16q203 0 522 -125q251 -97 382 -97q21 0 41 2q97 8 185 77q19 76 47 95q19 15 37 15q9 0 18 -4q32 -13 32 -52
q0 -33 -42 -80q-110 -106 -191.5 -120.5t-128.5 -14.5q-143 0 -407 104q-302 118 -494 118q-58 0 -117 -8q-165 -22 -342 -147q-62 -46 -124 -99q-104 -91 -199 -153q-105 -67 -228 -97q-43 -10 -80 -10q-136 0 -205 134q-26 53 -41 136q-25 134 -33 236q-14 194 -45 230
q-17 20 -28 20q-63 0 -322 -464q-14 -264 -17 -380v-5q0 -40 -65 -51q-42 -6 -90 -6zM199 1366q332 406 560 793q192 332 192 508q0 16 -2 31q-27 214 -146 214q-60 0 -126 -45q-80 -53 -151 -153q-152 -211 -246 -760q-51 -292 -81 -588z" />
    <glyph glyph-name="uniE086" unicode="i__" horiz-adv-x="2540" 
d="M110 1288q-42 0 -86 18q-24 10 -24 36q0 8 4 17q11 23 36 23q8 0 17 -3q26 -11 52 -11q22 0 44 8q66 25 89 63q12 20 35 20q10 0 20 -5q20 -13 20 -35q0 -31 -58 -75q-35 -28 -81 -44q-34 -12 -68 -12zM196 519q-144 0 -197 137q-20 57 -20 138q0 103 37 323q2 20 21 31
q28 16 76 16q74 0 88 -18q10 -12 10 -27q0 -5 -3 -20q-36 -219 -36 -298q0 -63 17 -103q31 -65 61.5 -69.5t41.5 -4.5q83 0 255 119l88 61q49 36 99 69q236 152 378 174t223 22q211 0 512 -122q217 -86 334 -86q25 0 50 3q89 11 175 79q18 77 47 97q18 14 36 14q9 0 19 -4
q31 -13 32 -52q0 -33 -42 -79q-110 -107 -189 -124t-129 -17q-124 0 -361 94q-283 114 -486 114q-72 0 -149 -11q-227 -34 -509 -241l-84 -59q-109 -78 -224 -120q-95 -36 -171 -36z" />
    <glyph glyph-name="uniE087" unicode="j__" horiz-adv-x="2371" 
d="M-500 -1175q-32 0 -63 11q-88 32 -144 139q-63 122 -63 321q0 209 93 461l1 1q192 442 594 756q30 266 63 610q1 16 12 26t26 11q22 5 49 5q36 0 65 -3q17 -2 27 -14t10 -29q-11 -127 -47 -464q243 147 502 230q193 56 299 61t150 5q208 0 496 -63q210 -46 323 -46
q72 0 140 16q105 24 204 108q19 77 48 97q18 14 36 14q10 0 19 -4q31 -12 31 -53q0 -33 -42 -78q-120 -118 -226 -149.5t-202 -31.5q-127 0 -347 49q-282 60 -483 60l-75 -1q-305 -13 -639 -178q-125 -60 -245 -138q-79 -730 -115 -917q-73 -331 -169 -518
q-152 -294 -328 -294zM-551 -1062q8 0 16 2q84 27 170 197q99 175 175 516q27 144 96 748q-42 -36 -82 -73q-266 -244 -427 -601q-86 -233 -87 -329t-1 -102q0 -177 55 -284q41 -74 85 -74zM66 1288q-42 0 -86 18q-24 12 -24 37q0 8 4 16q10 24 36 24q8 0 17 -4
q25 -10 51 -10q23 0 46 8q65 24 88 63q12 19 35 19q10 0 20 -5q20 -12 20 -34q0 -32 -57 -76q-72 -56 -150 -56z" />
    <glyph glyph-name="uniE088" unicode="k__" horiz-adv-x="2879" 
d="M19 269q-67 0 -81 20q-9 11 -9 26q3 42 5 88q9 218 34 509q58 696 269 1342q63 190 210 299q88 64 177.5 91t162.5 27h13q116 0 183 -90q53 -67 53 -188q0 -52 -10 -113q-17 -95 -45 -160.5t-77 -147.5q-115 -205 -323 -500q-196 -276 -412 -487q-8 -84 -13 -163
q183 138 338 318q12 14 30 14q14 0 26.5 -10.5t13.5 -19t1 -10.5q0 -14 -10 -26q-91 -106 -199 -204q-81 -74 -150 -125q31 -22 63 -47q157 -132 292 -132q27 0 56 4q154 22 359 218q50 48 106 92q198 152 328 173t205 21q209 0 523 -126q114 -44 208.5 -70.5t172.5 -26.5
q21 0 42 2q97 8 184 77q19 76 48 96q18 14 36 14q10 0 19 -4q31 -12 31 -53q0 -33 -42 -78q-109 -107 -190.5 -121.5t-129.5 -14.5q-138 0 -407 104q-302 118 -494 118q-63 0 -128 -9q-227 -34 -466 -260q-49 -46 -102 -89q-171 -133 -250 -143t-108 -10q-159 0 -342 155
q-38 29 -73 53l-20 -389q-1 -16 -11 -26q-18 -18 -86 -18h-11zM182 1111q175 185 333 408q320 452 399 649q28 71 39 167q3 30 3 57q0 93 -38 142q-42 57 -120 57q-116 0 -231 -116q-84 -84 -136 -226q-184 -535 -249 -1138z" />
    <glyph glyph-name="uniE089" unicode="l__" horiz-adv-x="2700" 
d="M255 410q-173 1 -251 197q-61 165 -61 409q2 339 60.5 676t109.5 492q32 98 94 213.5t149 212.5q151 169 324 169q92 0 175 -91q93 -109 93 -276q0 -202 -104 -469q-97 -247 -234.5 -486t-263.5 -415t-189 -235l-3 -2q16 -138 64 -218q40 -69 114 -69q35 0 58 9q2 1 5 1
q134 42 363 286l30 33q24 28 50 54q157 157 301.5 217t278.5 60q142 0 292 -47q133 -43 258 -97q112 -48 211.5 -79t184.5 -31q110 0 202 70q19 76 48 96q18 14 36 14q10 0 19 -4q31 -12 31 -53q0 -33 -42 -78q-108 -105 -184.5 -116.5t-115.5 -11.5q-147 0 -420 119
q-308 134 -500 134q-80 0 -164 -18q-177 -39 -366 -218q-32 -32 -61 -66l-29 -31q-193 -206 -328 -277q-35 -19 -79.5 -37t-82.5 -27.5t-73 -9.5zM144 910q119 135 305.5 433t319.5 628q82 211 91 312.5t9 126.5q0 139 -73 224q-59 64 -120 64q-34 0 -68 -21
q-121 -79 -230 -330q-44 -100 -69 -181q-34 -103 -76.5 -316.5t-67 -432.5t-24.5 -388q0 -61 3 -119z" />
    <glyph glyph-name="uniE090" unicode="m__" horiz-adv-x="3996" 
d="M1667 516q-81 0 -136 39q-79 58 -79 195l1 32q3 37 3 72q0 158 -48 251q-23 36 -57 36q-22 0 -50 -16q-68 -40 -145 -132t-140 -185t-89 -136q-6 -10 -10 -15q-9 -15 -28 -18q-31 -4 -51 -4q-27 0 -57 3l-13 1q-32 8 -32 41v6q23 124 23 243q0 269 -86 369q-13 13 -31 13
q-28 0 -68 -35q-112 -98 -284 -388q-121 -204 -178 -318q-5 -10 -14 -16l-4 -2t-6 -2h-1q0 -1 -1 -1l-54 -4q-41 0 -67 3l-1 1q-17 2 -26 14.5t-9 30.5l24 169q45 292 51 491v1q0 47 65 47h84q17 -1 28 -12.5t11 -28.5q-5 -195 -44 -453q253 454 436 567q42 26 50 26
q43 17 81 17q33 0 62 -13q78 -37 119 -141q51 -142 51 -329q0 -46 -3 -96q218 301 360 373q67 36 123 36q26 0 49 -8q74 -24 114 -105q53 -115 53 -283q0 -36 -2 -74l-1 -34q0 -121 65 -135q11 -2 24 -2q129 0 355 195q48 42 99 81q231 166 372.5 189.5t221.5 23.5
q106 0 203 -25q171 -43 321 -108q105 -44 191.5 -69.5t159.5 -25.5l36 1q90 8 174 75q28 110 84 110q9 0 18 -4q32 -13 32 -52q0 -33 -42 -79q-108 -106 -184.5 -120t-120.5 -14q-132 0 -377 104q-292 125 -492 125q-71 0 -147 -12q-182 -29 -394 -179q-56 -41 -107 -85
q-169 -146 -302 -193q-82 -29 -163 -29z" />
    <glyph glyph-name="uniE091" unicode="n__" horiz-adv-x="3280" 
d="M36 572q-35 0 -70 6l-4 1q-16 4 -23 15.5t-7 22.5l1 10q6 28 21 145q37 284 37 421q0 31 -3 46l-1 10q1 17 12.5 28.5t28.5 11.5h57q38 0 64.5 -6.5t32.5 -32.5q3 -25 3 -61q0 -120 -31 -374q136 218 244.5 323.5t166.5 120t86 14.5q49 0 89 -24q101 -59 164 -220
q26 -66 42 -117l9 -28q42 -157 121 -195l2 -1q26 -12 54 -12q109 0 254 168q42 48 90 92q178 151 304 173t200 22q200 0 529 -124q120 -45 222 -72.5t186 -27.5q20 0 39 1q102 6 190 74q19 76 47 96q19 14 37 14q9 0 18 -4q32 -13 32 -52q0 -33 -42 -80
q-109 -105 -191.5 -118.5t-128.5 -13.5q-151 0 -436 107q-309 117 -494 117q-69 0 -138 -12q-163 -27 -326 -166q-47 -42 -87 -88q-43 -50 -92 -93q-95 -80 -184 -92q-49 -9 -92 -9q-233 0 -306 274q-2 9 -4 14t-3 10q-1 0 -1 1q-55 187 -134 266q-19 16 -43 16
q-37 0 -83 -38q-158 -135 -371 -527l-2 -3q-8 -18 -28 -23q-30 -6 -58 -6z" />
    <glyph glyph-name="uniE092" unicode="o__" horiz-adv-x="3111" 
d="M372 395q-176 7 -274 86q-140 116 -140 305q0 54 13 107q15 59 44 109q-39 71 -39 147q0 85 43.5 156.5t123.5 109.5q55 27 126 27q65 0 143 -23l3 -1q119 -47 198 -152.5t113 -238.5q24 -93 24 -185q0 -50 -7 -99h21q105 0 212 28q121 36 233 94q65 33 132 61
q249 98 376 107t180 9q238 0 537 -105q196 -66 298 -66q37 0 74 6q85 15 171 86q28 111 85 111q9 0 17 -4q32 -13 32 -52q0 -33 -42 -80q-109 -107 -190.5 -129t-141.5 -22q-116 0 -327 74q-289 100 -510 100q-50 0 -103 -4q-255 -16 -563 -168q-110 -59 -240 -97
q-119 -30 -235 -30l-34 1q-23 -77 -69 -138.5t-115 -95.5t-158 -34h-11zM663 748q7 64 7 94q0 82 -22 165q-29 115 -95.5 205.5t-165.5 130.5q-63 19 -115 19q-54 0 -96 -21q-57 -26 -88 -77t-32 -114q0 -39 14 -77q18 17 49 44q12 10 21 16q12 12 30 12q13 0 44 -22h1
q15 -11 38 -23q20 -13 20 -36q0 -9 -5 -18.5t-13 -14.5q-45 -36 -72 -94q173 -137 424 -182q27 -4 56 -7zM420 482q33 0 65 11q113 44 158 176q-155 19 -290 77q-112 48 -196 110q-7 -35 -7 -69q0 -112 60 -193q47 -61 107 -86.5t103 -25.5z" />
    <glyph glyph-name="uniE093" unicode="p__" horiz-adv-x="2911" 
d="M-66 -838q-17 0 -29.5 11.5t-12.5 31.5l89 2082q1 16 12 27q15 15 132 15q17 -1 27.5 -12t10.5 -26l-8 -199q106 138 265 165q30 5 58 5q150 0 217 -110l4 -5q37 -70 37 -149q0 -90 -36 -185q144 24 376 24q308 -5 530.5 -65.5t390.5 -129.5q253 -103 387 -103
q62 0 125 16q123 31 267 157q27 110 85 110q9 0 19 -4q31 -14 31 -53q0 -38 -70 -103q-166 -148 -272.5 -177.5t-180.5 -29.5q-147 0 -420 112q-163 67 -378.5 126t-512.5 64q-260 0 -417 -32q-116 -205 -255 -291q-82 -41 -129 -41q-24 0 -42 8q-55 25 -55 86q0 57 60 126
q70 80 246 147q53 106 61 155q8 56 8 78q0 61 -28 117q-19 29 -48 43q-35 17 -65 17q-37 0 -90 -34q-126 -72 -176 -241l-72 -1691q0 -16 -10.5 -27.5t-26.5 -13.5l-40 -1h-64zM275 492q28 0 85 60q37 38 64 91q-74 -28 -126 -85q-28 -30 -36 -54q2 -12 13 -12z" />
    <glyph glyph-name="uniE094" unicode="q__" horiz-adv-x="3066" 
d="M234 615q23 0 48 12q45 20 75 47q102 84 250 342q-149 102 -250 102q-111 0 -169 -83q-66 -99 -66 -219q0 -73 23 -129q29 -72 89 -72zM645 -912q-69 0 -121 112q-30 72 -30 250q0 194 29 503q41 418 118 964q-111 -182 -205 -271q-72 -72 -166 -114q-65 -26 -117 -26
q-54 0 -95 28q-104 70 -104 231q0 82 31 169q37 104 119 179q95 87 245 87q132 0 296 -113q31 58 31 60q27 43 99 43q45 0 65 -14q19 -14 19 -34l-17 -122v-6q-28 -190 -69 -502q77 41 186 118q105 81 195 173q94 96 199 174q172 117 277 127.5t149 10.5q210 0 535 -133
q116 -46 216 -75.5t184 -29.5q121 0 218 75q19 76 47 95q19 15 37 15q9 0 18 -4q32 -13 32 -52q0 -33 -42 -80q-109 -106 -189 -118.5t-122 -12.5q-150 0 -427 112q-308 125 -503 125q-41 0 -83 -4q-154 -16 -313 -126q-99 -75 -188 -165q-170 -176 -375 -289
q112 -99 112 -427q0 -253 -57 -517q-47 -213 -121 -335q-29 -49 -71 -71q-22 -10 -42 -10zM710 -752q4 0 13 18q43 99 78 255q55 250 55 490q0 184 -33 289q-23 74 -65 95q-78 -620 -78 -912q0 -153 20 -211q6 -24 10 -24z" />
    <glyph glyph-name="uniE095" unicode="r__" horiz-adv-x="2921" 
d="M644 425q-140 0 -169 167v2q-36 216 -42 438q-1 36 -3 66q-13 4 -27 7q-60 14 -138 37q-57 -181 -214 -373q-14 -15 -30 -15q-14 0 -27.5 11t-13.5 29q0 14 10 26q147 181 199 348l-41 15q-115 46 -115 127q0 40 25 71q39 48 107 48q29 0 52 -10q73 -33 73 -141
q0 -27 -5 -58q77 -23 137 -37l60 -15q46 -12 106 -32q24 -8 28 -32q7 -56 12 -133q5 -132 42 -359q13 -61 37 -71q11 -4 22 -4q64 0 174 131q49 62 89 122q59 96 151 187q144 131 254.5 148t173.5 17q190 0 529 -120q130 -45 243 -74t207 -29q137 0 237 75q19 76 47 96
q19 14 37 14q9 0 18 -4q32 -13 32 -52q0 -46 -69 -105l-4 -3q-107 -88 -186 -95.5t-112 -7.5q-162 0 -476 109q-318 113 -496 113q-51 0 -101 -7q-145 -19 -274 -130q-89 -87 -155 -191q-62 -92 -124 -160q-41 -44 -102 -84q-95 -62 -178 -62zM207 1247q3 18 3 34
q0 52 -25 64q-8 4 -21 4q-29 0 -43 -18q-7 -9 -7 -20q0 -28 62 -53z" />
    <glyph glyph-name="uniE096" unicode="s__" horiz-adv-x="2426" 
d="M-55 93q-88 0 -118 68q-24 56 -24 117q0 50 11 114q0 3 1 5q68 201 260 305q-47 61 -136 114l-4 2q-126 92 -144 196q-5 27 -5 53q0 90 60 174q94 128 220 159q35 11 71 11q75 0 133 -49q13 -11 13.5 -20t0.5 -12q0 -13 -10 -25t-19 -12.5t-12 -0.5q-13 0 -25 9
q-36 29 -81 29q-92 -2 -155 -82q-37 -46 -37 -103q0 -107 141 -207q117 -74 173 -161q180 52 417 83q152 17 286 17q125 0 234 -15q226 -30 404 -74q229 -55 343 -55q71 0 136 16q107 26 213 117q17 73 44 94q1 2 3 3q19 15 37 15q9 0 18 -4q32 -14 32 -52q0 -33 -42 -80
q-128 -125 -234 -158.5t-199 -33.5q-127 0 -369 60q-172 43 -335 64.5t-284 21.5q-268 0 -561 -66q-52 -11 -106 -26q27 -71 27 -141q0 -33 -6 -65q-19 -102 -73 -189q-66 -103 -152 -162q-61 -42 -119 -52l-6 -1zM-65 174q43 0 111 93q26 36 37 56q59 97 59 195
q0 57 -25 115q-165 -87 -225 -258q-9 -57 -9 -97q0 -30 5 -51q12 -48 44 -53h3z" />
    <glyph glyph-name="uniE098" unicode="u__" horiz-adv-x="3185" 
d="M210 499q-104 0 -164 65q-75 82 -75 264q0 97 21 220l1 2q8 31 38 31q29 0 107 -31q25 -11 25 -38l-1 -7q-18 -100 -18 -177q0 -127 47 -192q35 -46 85 -46q34 0 74 20q78 40 156 150.5t141 292.5q5 19 23 27q57 22 113 22q17 0 28 -10t13 -24q39 -180 117 -254
q56 -55 100.5 -62.5t65.5 -7.5q47 0 93 19q74 36 167 115q74 60 138 100q183 100 284.5 107.5t138.5 7.5q126 0 242 -32q150 -40 288 -94q111 -43 201.5 -68.5t164.5 -25.5q23 0 45 2q95 8 182 76q19 77 47 96q20 15 38 15q9 0 17 -4q32 -13 33 -52q0 -33 -43 -80
q-110 -106 -190 -121t-128 -15q-138 0 -395 102q-298 118 -500 118q-31 0 -64 -2q-154 -10 -323 -102q-77 -46 -141 -99q-76 -64 -168 -111q-61 -29 -87 -34q-70 -22 -132 -22q-39 0 -79 8q-185 44 -258 262q-64 -147 -139 -239q-115 -141 -231 -159q-53 -13 -98 -13z" />
    <glyph glyph-name="uniE099" unicode="v__" horiz-adv-x="2564" 
d="M201 497q-73 0 -135 82q-111 144 -187 667v8q1 33 40 40q31 3 110 6h3q14 0 25.5 -9t14.5 -25q53 -371 101.5 -513t93.5 -142q62 1 163 195q49 96 101 206q60 129 121 241l4 9q12 25 19 30q217 199 370.5 236t256.5 37q88 0 172 -19q182 -41 348 -108q251 -97 382 -97
q21 0 41 2q97 8 185 77q19 76 47 96q19 14 37 14q9 0 18 -4q32 -13 32 -52q0 -33 -42 -79q-110 -107 -191 -121.5t-128 -14.5q-140 0 -408 104q-298 119 -491 119q-85 0 -174 -19q-181 -38 -375 -206q-23 -22 -37 -49q-57 -107 -114 -230q-87 -194 -177 -331
q-49 -74 -123 -118q-53 -32 -103 -32z" />
    <glyph glyph-name="uniE100" unicode="w__" horiz-adv-x="3004" 
d="M896 448q-39 0 -75 16q-78 34 -141 119q-86 120 -144 276q-113 -251 -250 -322q-67 -34 -119 -34q-223 0 -223 516q0 97 7 214l1 6q5 29 26.5 34.5t54.5 5.5h12l51 1q22 0 33 -12.5t11 -29.5q-9 -129 -9 -230q0 -264 54 -360q22 -41 48 -41q31 0 77 44q105 106 190 331
l2 5q30 82 52 169q9 31 39 31t39 -29q31 -115 96.5 -271.5t144.5 -265.5q55 -74 91 -74q21 0 46 45q79 144 90 665q1 16 15 30q217 199 370.5 236t256.5 37q88 0 172 -19q182 -41 348 -107q114 -44 208.5 -70.5t172.5 -26.5q21 0 42 2q97 8 185 76q19 77 47 96q19 14 37 14
q9 0 18 -4q32 -13 32 -52q0 -32 -42 -79q-110 -107 -191 -121.5t-127 -14.5q-142 0 -409 104q-298 119 -492 119q-86 0 -175 -19q-180 -38 -375 -208l-5 -5q-7 -5 -7.5 -10t-0.5 -12q-15 -514 -99 -669q-38 -70 -87 -83q-51 -23 -98 -23z" />
    <glyph glyph-name="uniE101" unicode="x__" horiz-adv-x="2433" 
d="M143 280q-9 0 -17 4q-23 12 -23 36q0 9 4 18l142 302q-124 96 -196 271q-47 123 -61 192l-6 22h1q-2 2 -2 11q0 34 40 40q48 9 105 9q29 0 39 -27q4 -12 11 -39q40 -165 115 -282q14 -20 29 -38q202 429 207.5 440t12.5 18q217 199 370.5 235.5t255.5 36.5q88 0 172 -19
q183 -41 349 -107q114 -44 208.5 -70.5t171.5 -26.5q22 0 43 2q97 8 185 76q18 77 47 96q19 14 37 14q9 0 18 -3q31 -14 32 -53q0 -32 -43 -79q-109 -107 -191 -121t-129 -14q-139 0 -407 103q-297 119 -489 119q-87 0 -177 -19q-181 -38 -376 -208l-6 -6q-12 -10 -14.5 -14
t-4.5 -11l-212 -449q80 -67 208 -67q162 0 402 156q10 7 22 7q21 0 33 -18q7 -11 7 -22q0 -21 -18 -34q-160 -106 -286 -144q-139 -56 -194 -56h-58q-104 0 -182 38l-139 -296q-11 -23 -36 -23z" />
    <glyph glyph-name="uniE102" unicode="y__" horiz-adv-x="2993" 
d="M180 -966q-112 0 -172 104q-41 69 -41 188q0 154 81 367l1 3q205 491 488 774q28 245 47 428q-192 -333 -312 -398q-51 -27 -107 -27q-18 0 -34 3q-84 19 -122.5 96.5t-38.5 182.5q0 175 69 327q17 28 68 28q21 0 47 -3q39 -4 50 -9q20 -13 20 -36q0 -9 -4 -18
q-73 -142 -73 -322q0 -128 39 -159q5 -4 13 -4q61 0 185 170q93 128 224 381q10 21 35.5 24t52.5 3t46.5 -0.5t30.5 -13t11 -27.5q0 -26 -48 -456q237 171 508 246q191 51 357 51q170 0 332 -36q148 -34 278 -75q238 -76 361 -76q45 0 89 7q102 17 199 97q19 78 47 97h1
q18 15 36 15q9 0 18 -4q32 -13 32 -53q0 -33 -42 -79q-119 -117 -212.5 -140t-162.5 -23q-135 0 -389 82q-329 102 -489 105l-99 1q-150 0 -320 -43q-302 -80 -556 -282q-97 -837 -120 -964q-38 -200 -122 -326t-182 -175q-62 -31 -120 -31zM137 -866q9 0 19 3
q45 14 86.5 58t64.5 80q82 115 120 310q20 113 78 604l17 147q-223 -249 -399 -671q-69 -183 -73 -252t-4 -85q0 -97 32 -151q26 -43 59 -43z" />
    <glyph glyph-name="uniE103" unicode="z__" horiz-adv-x="2418" 
d="M2008 332q-122 0 -359 93q-370 150 -719 150q-120 0 -293 -19q-260 -27 -427 -29q-175 0 -175 92q0 52 67 119q90 85 190 163l60 49q176 144 176 185q0 12 -21 12l-348 -24q-16 0 -28.5 11t-12.5 29q0 15 10 26.5t27 13.5q442 31 486 31q90 0 90 -67q0 -30 -20 -61
q-36 -65 -102 -128.5t-145 -129.5q-153 -128 -191 -178q-14 -21 -14 -34q0 -18 28 -22q20 -2 40 -2h19q122 7 283 24q179 19 305 19q214 0 378 -40q209 -51 365 -114q216 -85 325 -85q43 0 85 9q94 20 196 108q28 112 85 112q9 0 18 -4q32 -13 32 -52q0 -33 -43 -79
q-128 -127 -216 -152.5t-151 -25.5z" />
    <glyph glyph-name="uniE104" unicode="__a" horiz-adv-x="3336" 
d="M2252 609q25 0 59 19q175 95 431 424q-163 114 -288 123q-77 -2 -134.5 -61t-92.5 -146q-43 -108 -43 -212q0 -40 8 -74q15 -62 33.5 -67.5t26.5 -5.5zM2178 515q-60 0 -102 31q-89 68 -89 217q0 177 114 332q66 88 169 134q-49 4 -98 4q-248 0 -572 -127
q-168 -66 -331 -139q-443 -203 -626 -224q-97 -11 -134 -11q-116 0 -220 43q-143 60 -253 226l-9 14q-22 36 -24.5 58.5t-2.5 30.5q0 23 6 40q17 49 56 49q27 0 44 -36q10 -18 10 -66q0 -26 -3 -60q132 -180 244 -197t162 -17q133 0 284 50q207 69 434 173
q187 85 380.5 158.5t331.5 95t219 21.5q225 0 471 -109q72 -33 151 -90l24 32q16 23 70 23q83 0 98 -19q10 -12 10 -27q0 -7 -2 -11q-32 -128 -32 -233q0 -73 15.5 -129.5t39 -83.5t48.5 -27q19 0 42 11q96 47 226 177q12 12 28 12t28 -12t12 -28t-11 -29
q-172 -170 -297 -214l-4 -1q-49 -18 -97 -18q-61 0 -107 32q-113 79 -113 294q0 47 6 99q-175 -216 -310.5 -321t-198 -116.5t-87.5 -11.5z" />
    <glyph glyph-name="uniE105" unicode="__b" horiz-adv-x="3100" 
d="M2204 1198q45 62 104 138q114 149 244 330.5t230 363t117 273.5t17 123q0 103 -69 168q-46 40 -99 40q-34 0 -69 -18q-70 -36 -131 -108q-312 -378 -344 -1310zM2423 300q-31 0 -65 17q-41 24 -55 78l-3 39q0 215 278 302q21 90 21 144q0 97 -38 173q-32 59 -72 59
q-61 0 -160 -139q-66 -93 -138 -256q-11 -22 -36.5 -23.5t-45.5 -1.5q-39 0 -73 8.5t-34 38.5v3q2 35 2 161q-78 -67 -162 -121q-344 -220 -740 -220q-289 0 -547 120q-327 152 -529 462q-22 36 -24 58.5t-2 30.5q0 65 40 83q12 6 22 6q27 0 44 -36q10 -18 10 -67
q0 -26 -3 -60q184 -270 476 -404q244 -113 515 -113q370 0 694 207q109 70 208 164q5 484 84 885q78 394 233 593q63 80 151 143q118 83 246 83q69 0 119 -22q30 -14 60 -40q94 -87 94 -220q0 -24 -3 -49q-20 -165 -122.5 -360t-238.5 -388t-258 -350q-116 -151 -172 -237
l-3 -141q113 197 212 258q7 8 36 20q47 22 90 22q31 0 59 -11q66 -24 110 -86q81 -112 81 -255q0 -46 -7 -72q85 15 166.5 27.5t148.5 25.5l8 1q31 0 39 -33l1 -8q0 -31 -32 -39q-69 -13 -153 -26q-96 -14 -197 -34q-66 -232 -189 -337q-77 -63 -146 -63zM2392 421
q18 0 43 20q64 52 114 197q-149 -63 -167 -177l-2 -18q0 -22 12 -22z" />
    <glyph glyph-name="uniE106" unicode="__c" horiz-adv-x="3121" 
d="M2474 527q-108 0 -175 40q-106 64 -127 185q-6 39 -6 78q0 102 43 206q60 144 161 217q-99 22 -201 22q-81 0 -164 -14q-185 -31 -371 -101.5t-367.5 -153t-354 -147.5t-269.5 -76t-133 -11q-116 0 -222 44q-143 61 -253 225l-9 14q-22 36 -24 59.5t-2 33.5q0 21 5 37
q17 48 56 48q27 0 44 -35q10 -18 10 -67q0 -26 -3 -60q133 -180 245 -196.5t163 -16.5q133 0 282 49q207 69 434 174q173 78 352.5 147.5t325.5 98t254 28.5q72 0 143 -9q59 -8 145.5 -33t137.5 -67q21 -20 40 -49q8 -11 8 -23q0 -20 -18 -33q-11 -7 -22 -7q-21 0 -34 18
q-35 52 -66 52q-35 0 -69 -42q-63 -80 -81 -214q-4 -31 -4 -59q0 -95 45 -171q58 -89 191 -89q44 0 98 10q207 51 430 195q11 7 22 7q22 0 33 -18q7 -11 7 -23q0 -20 -18 -33q-278 -178 -534 -225q-81 -15 -148 -15z" />
    <glyph glyph-name="uniE107" unicode="__d" horiz-adv-x="3473" 
d="M2357 315q-44 0 -79 24q-121 84 -121 344q0 196 74 369q52 122 137 181q-100 22 -202 22q-80 0 -162 -14q-185 -31 -370.5 -101.5t-364.5 -152.5q-184 -83 -356.5 -148t-269.5 -76t-133 -11q-117 0 -221 44q-137 58 -250 220l-3 5q-32 44 -34 72l-2 31q0 66 40 84
q12 5 22 5q27 0 44 -35q10 -18 10 -67q0 -26 -3 -60q132 -180 244 -196.5t163 -16.5q133 0 283 49q207 69 433 174q175 79 355.5 148.5t325 97.5t251.5 28q151 0 296 -45q84 -26 145 -62q87 -52 185 -190q0 63 28 335q24 264 82 526q55 249 127 415q70 154 152 243
q128 137 264 137q28 0 68 -10l5 -2q67 -22 115 -80q81 -98 81 -255q0 -185 -110 -414q-175 -369 -585 -849q-18 -21 -25 -28q-12 -202 -12 -321q0 -69 21 -158q25 -94 65 -94q24 0 59 25q139 83 338 318q14 15 30 15q15 0 27.5 -10.5t13 -19.5t0.5 -12q0 -13 -9 -24
q-239 -284 -402 -359q-72 -31 -126 -31q-36 0 -65 13q-72 32 -107.5 109t-42.5 165q-176 -247 -274.5 -302t-154.5 -55zM2432 419q18 0 44 20q117 81 308 374l3 87q-104 173 -188 237q-38 32 -61 32q-27 0 -66 -55q-88 -122 -116 -310q-10 -70 -10 -131q0 -105 29 -186
q24 -55 37 -61.5t20 -6.5zM3006 1191q166 195 345 457q284 426 284 696q0 134 -62 207q-30 36 -69 52q-69 -21 -139 -97q-163 -174 -262 -625q-57 -257 -81 -516q-9 -86 -16 -174z" />
    <glyph glyph-name="uniE108" unicode="__e" horiz-adv-x="3034" 
d="M2202 871q265 114 317 204q9 15 9 24q0 16 -38 16q-28 0 -74 -15q-124 -47 -203 -203q-6 -12 -11 -26zM2214 415q-109 10 -163 72q-67 77 -67 200q0 96 38 174l1 3h1q34 90 148 192q70 62 183 108q-93 18 -187 18q-86 0 -173 -15q-183 -32 -366 -102t-360 -151
q-184 -83 -356.5 -148t-270 -75.5t-133.5 -10.5q-116 0 -220 43q-137 58 -250 221q-2 4 -5 7q-30 44 -32 68.5t-2 32.5q0 65 40 83q12 5 22 5q27 0 44 -35q10 -18 10 -66q0 -26 -3 -60q132 -180 244 -197t162 -17q133 0 284 50q207 69 433 173q180 81 366 152.5t328 97
t238 25.5q132 0 252 -32.5t160 -65.5q29 -26 29 -62q0 -157 -435 -329q-6 -32 -6 -63q0 -79 43 -121q36 -36 122 -36q105 0 248 55q210 81 449 226q10 5 20 5q23 0 35 -19q6 -10 6 -21q0 -22 -20 -34q-153 -91 -276 -151q-16 -7 -33 -16q-121 -62 -271.5 -123t-269.5 -61h-7
z" />
    <glyph glyph-name="uniE109" unicode="__f" horiz-adv-x="3170" 
d="M2244 891q172 140 293 266q143 149 244 334q85 157 98 242.5t13 126.5q0 64 -18 112q-36 94 -114 94q-106 0 -221 -166q-95 -151 -170.5 -420.5t-124.5 -588.5zM2287 -663q-40 0 -79 18q-121 55 -184 246q-47 153 -50 301t-3 185q0 232 28 501q-76 -65 -157 -117
q-344 -220 -741 -220q-287 0 -546 120q-200 93 -361 254q-93 93 -167 208q-22 36 -24.5 58.5t-2.5 30.5q0 65 40 83q12 6 22 6q27 0 44 -36q10 -18 10 -67q0 -26 -3 -60q62 -91 137 -166q151 -152 339 -238q244 -113 513 -113q373 0 697 208q112 71 213 169q46 402 143 761
q83 305 191 475q89 127 213 175q92 35 166 35q164 0 224 -154q23 -59 23 -139q0 -187 -120 -409q-106 -193 -257 -350q-146 -153 -367 -328q-16 -119 -27 -237q18 -1 38 -1q145 0 391 71q180 53 328.5 115.5t204.5 108.5q12 10 26 10q17 0 28.5 -13t11.5 -27
q0 -50 -232 -149q-157 -67 -345 -122q-181 -53 -336 -70q79 -73 130 -200q68 -163 68 -405q0 -65 -5 -136q-21 -231 -78 -309q-33 -47 -90 -65q-27 -8 -54 -8zM2342 -564q10 0 23 19q45 61 64 271q5 69 5 131q0 225 -62 373q-69 167 -179 218q-15 -190 -15 -356
q0 -310 49 -466q45 -137 94 -179q12 -11 21 -11z" />
    <glyph glyph-name="uniE110" unicode="__g" horiz-adv-x="3341" 
d="M2466 551q19 0 45 16q152 96 356 462q-123 92 -219 125q-3 0 -6 1.5t-5 2t-3 1.5q-20 5 -39 5q-38 0 -72 -21q-49 -30 -84 -83q-73 -113 -73 -262q0 -80 23 -149q31 -98 77 -98zM2197 -1280q-158 0 -246 123q-64 89 -66.5 167.5t-2.5 86.5q0 145 74 343v1
q188 452 555 821q172 173 350 304q24 208 40 361q-193 -328 -359 -429q-74 -48 -144 -48q-44 0 -80 20q-67 36 -105 118q-43 94 -43 214q0 84 23 167q45 163 161 240h-18q-232 0 -474 -75q-251 -77 -496 -177q-201 -81 -389.5 -144t-292 -72.5t-138.5 -9.5q-131 0 -246 47
q-146 60 -261 226q-2 2 -3 5q-32 44 -34 72l-2 31q0 65 40 83q12 6 22 6q27 0 44 -36q10 -18 10 -66q0 -26 -3 -60q136 -185 260.5 -204t185.5 -19q140 0 299 46q229 67 479 170q256 105 509 181.5t490 76.5q316 0 569 -190q9 18 18.5 37.5t33.5 22.5q33 3 55 3t64.5 -2.5
t42.5 -43.5q-9 -104 -42 -408q134 80 254 129q8 3 16 3q24 0 36 -25q3 -8 3 -16q0 -26 -25 -37q-138 -56 -295 -154q-52 -474 -106 -900q-22 -175 -34 -242q-67 -336 -250 -521.5t-416 -218.5q-32 -6 -63 -7zM2192 -1200q27 2 55 6q173 38 314 242q112 161 167 434
q23 123 82 636q20 168 39 338q-338 -262 -584 -615q-139 -201 -235 -430q-68 -182 -68 -310q0 -137 55 -212q64 -89 175 -89z" />
    <glyph glyph-name="uniE111" unicode="__h" horiz-adv-x="3339" 
d="M2034 351q-53 0 -53 41q3 196 39 694q-86 -76 -178 -136q-346 -220 -741 -220q-285 0 -546 121q-326 150 -528 461q-22 37 -24.5 59t-2.5 30q0 65 40 84q12 5 22 5q27 0 44 -35q10 -18 10 -67q0 -26 -3 -60q187 -271 476 -405q243 -113 513 -113q370 0 697 208
q119 76 226 182q2 3 5 5q5 48 9 98q71 748 217 1189q80 216 238 357q177 157 350 157q72 0 129 -51q75 -66 97 -234q2 -18 2 -37q0 -200 -203 -552q-237 -409 -641 -892l-2 -3q-12 -137 -21 -263q137 229 233 328l4 3q26 29 49.5 48.5t60.5 35.5q28 12 53 12q24 0 45 -12
q65 -41 93 -156t44 -252q12 -88 25.5 -164.5t35.5 -121.5q32 -61 63.5 -74t55.5 -13q70 0 193 87q80 56 175 136q12 10 26 10q17 0 30 -15q10 -12 10 -26q0 -17 -15 -30q-115 -98 -212 -162q-105 -68 -227 -97q-43 -10 -81 -10q-195 0 -246 270q-25 134 -33 236
q-15 194 -45 229q-17 20 -28 20q-64 0 -321 -464q-14 -263 -17 -380v-4q0 -32 -35 -44q-26 -8 -72 -12zM2240 1380q332 406 559 792q192 335 192 511q0 15 -1 29q-27 214 -147 214q-58 0 -126 -45q-79 -53 -151 -153q-152 -212 -247 -760q-50 -292 -79 -588z" />
    <glyph glyph-name="uniE112" unicode="__i" horiz-adv-x="2846" 
d="M2288 1302q-42 0 -85 17q-23 12 -23 37q0 8 3 17q12 23 35 23q9 0 19 -4q25 -10 50 -10q23 0 46 8q66 25 89 63q13 20 34 20q11 0 21 -5q19 -12 19 -35q0 -32 -57 -76q-35 -28 -81 -43q-35 -12 -70 -12zM2375 533q-25 0 -48 4q-104 17 -149 132q-19 56 -19 137
q0 99 31 287q-204 -24 -412.5 -93.5t-411.5 -152.5q-201 -80 -389.5 -143t-292 -72.5t-138.5 -9.5q-131 0 -246 47q-146 60 -261 225l-3 6q-32 44 -34 72l-2 31q0 65 40 83q12 5 22 5q27 0 44 -35q10 -18 10 -66q0 -26 -3 -60q136 -186 260 -205t185 -19q141 0 300 47
q229 67 478 169t504.5 180.5t505.5 78.5q19 -2 32 -17.5t13 -33.5q-1 -2 -3 -17q-36 -210 -36 -299q0 -63 16 -102q31 -65 61.5 -69.5t40.5 -4.5q98 0 341 176l28 20q10 7 22 7q20 0 34 -18q7 -10 7 -22q0 -20 -18 -33l-52 -37q-175 -124 -286 -162q-95 -36 -171 -36z" />
    <glyph glyph-name="uniE113" unicode="__j" horiz-adv-x="2697" 
d="M1728 -1162q-33 0 -64 12q-88 32 -144 139q-63 122 -63 321q0 209 93 460l1 2q195 445 594 756q41 373 59 565q-207 -23 -419 -93.5t-420 -154.5q-200 -80 -389 -143t-292 -72.5t-138 -9.5q-131 0 -246 47q-153 63 -265 231l-9 14q-22 36 -24 59t-2 34q0 60 39 79
q12 5 22 5q27 0 44 -35q10 -18 10 -66q0 -26 -3 -60q137 -186 261 -205t185 -19q141 0 300 47q228 67 478 169q200 81 405.5 150t410.5 98q71 10 143 12h1q57 0 76 -6q25 -12 25 -41q-11 -126 -47 -464q165 100 334 169q8 3 16 3q24 0 36 -25q3 -8 3 -16q0 -26 -25 -37
q-190 -77 -375 -196q-20 -192 -43 -382q-45 -392 -72 -535q-72 -331 -169 -518q-153 -294 -327 -294zM1676 -1048q8 0 16 2q82 25 171 197q98 175 174 516q26 138 71 525l25 222q-329 -274 -508 -673q-87 -234 -88 -329.5t-1 -101.5q0 -178 56 -284q41 -74 84 -74z
M2293 1302q-42 0 -86 18q-23 11 -23 36q0 8 3 17q12 23 37 23q8 0 16 -3q26 -11 53 -11q22 0 44 8q66 25 89 63q11 20 34 20q10 0 20 -5q20 -12 20 -35q0 -30 -57 -75q-35 -28 -81 -44q-34 -12 -69 -12z" />
    <glyph glyph-name="uniE114" unicode="__k" horiz-adv-x="3036" 
d="M2047 271q-32 0 -56 4q-14 4 -22.5 15t-8.5 24v3q4 76 4 88q9 192 29 441q-74 -62 -151 -112q-346 -220 -741 -220q-285 0 -546 121q-200 92 -361 253q-93 93 -167 208q-23 36 -25 58.5t-2 30.5q0 66 40 84q12 5 22 5q27 0 44 -35q10 -18 10 -67q0 -26 -3 -60
q62 -92 137 -167q151 -151 339 -238q243 -113 513 -113q370 0 697 208q107 69 204 161q61 667 264 1293q65 191 211 299q88 64 177.5 91t161.5 27h13q117 0 184 -90q39 -54 46 -109t7 -82q0 -68 -20.5 -155t-49.5 -147q-38 -80 -85 -155q-114 -197 -301 -461
q-208 -293 -411 -487q-8 -84 -14 -163q91 67 146 122q105 94 192 196q13 14 31 14q14 0 25.5 -9.5t13 -18t1.5 -11.5q0 -17 -9 -27q-160 -187 -350 -329q17 -11 63 -47q58 -47 126 -86.5t115 -43t56 -3.5q79 0 178 48q109 54 250 194q1 0 7 6q12 12 28 12t28 -12t12 -28
t-11 -29q-162 -161 -281.5 -219.5t-211.5 -58.5q-104 0 -198 55q-79 46 -147 102l-72 53l-13 -241q-4 -87 -8 -149q-1 -15 -12 -25q-17 -18 -84 -18h-14zM2213 1113q163 170 333 407q312 446 390 629q20 47 35 119.5t15 130.5q0 89 -37 137q-43 57 -119 57
q-119 -1 -233 -116q-84 -85 -135 -226q-184 -535 -249 -1138z" />
    <glyph glyph-name="uniE115" unicode="__l" horiz-adv-x="2845" 
d="M1105 286q-290 0 -550 120q-328 151 -528 462q-23 36 -25 58t-2 31q0 65 40 83q12 5 22 5q27 0 44 -35q10 -18 10 -67q0 -26 -3 -60q184 -270 476 -405q243 -113 513 -113q371 0 696 208q106 68 201 158q-18 114 -19 248q2 340 61 677t109 491q32 99 94.5 214.5
t148.5 212.5q151 169 324 169q92 0 176 -92q92 -108 92 -275q0 -202 -104 -469q-97 -248 -234.5 -486.5t-263.5 -414.5t-189 -235l-3 -2q35 -288 179 -288q29 0 62 11q146 44 408 335q13 14 30 14q15 0 27.5 -11.5t12.5 -29.5q0 -14 -10 -26q-222 -248 -373 -327
q-35 -19 -79.5 -36.5t-84 -27t-75.5 -9.5q-90 0 -155 58q-76 68 -114 208q-85 -75 -177 -134q-344 -220 -737 -220zM2181 874q119 135 305.5 432.5t319.5 628.5q82 211 90.5 312t8.5 127q0 138 -72 223q-60 65 -119 65q-35 0 -68 -22q-122 -79 -231 -330q-43 -99 -69 -180
q-34 -104 -76.5 -317t-67 -432t-24.5 -388q0 -61 3 -119z" />
    <glyph glyph-name="uniE116" unicode="__m" horiz-adv-x="4305" 
d="M3860 530q-76 0 -131 39q-79 56 -79 195l1 32q3 37 3 72q0 165 -48 251q-22 36 -56 36q-22 0 -50 -16q-115 -67 -285 -317q-73 -108 -99 -151q-10 -15 -29 -19q-37 -4 -58 -4q-47 0 -62 5q-17 3 -24.5 15t-7.5 24v8q22 123 22 241q0 273 -86 371q-13 13 -30 13
q-67 0 -207 -198q-127 -180 -264 -432q-49 -90 -59 -111l-1 -1q-5 -10 -14 -15q-2 -1 -4 -2.5t-6 -1.5v-1h-4l-1 -1l-61 -4l-58 4q-17 3 -25.5 14.5t-8.5 24.5q0 10 23 176q41 271 50 454q-206 -23 -417.5 -93t-418.5 -154q-200 -81 -389 -143.5t-292 -72t-138 -9.5
q-130 0 -246 47q-146 60 -261 225l-13 19q-22 36 -24 59.5t-2 33.5q0 21 5 37q17 48 56 48q27 0 44 -35q10 -18 10 -67q0 -26 -3 -60q137 -185 261 -204t185 -19q141 0 300 47q228 67 477.5 168.5t503 180t501.5 78.5q24 0 37 -12t13 -30q-5 -196 -44 -453q254 454 436 567
q25 15 47 25q2 0 3 1q43 17 80 17q34 0 63 -14q78 -37 119 -140q52 -142 52 -329q0 -46 -4 -96q218 301 360 373q68 36 123 36q26 0 49 -8q74 -25 114 -106q54 -114 54 -282q0 -36 -3 -74l-1 -34q0 -121 65 -135q12 -3 26 -3q32 0 73 15q137 50 295 195q13 11 29 11
q16 -1 27 -13t11 -26q0 -19 -12 -31q-171 -156 -324 -212q-83 -29 -168 -29z" />
    <glyph glyph-name="uniE117" unicode="__n" horiz-adv-x="3632" 
d="M2298 573q-35 0 -70 6q-18 0 -27 17q-7 11 -7 22l1 10q6 28 21 145q36 293 36 424v12q-218 -16 -442.5 -89t-444.5 -162q-200 -81 -389 -143.5t-292 -72t-138 -9.5q-130 0 -246 47q-146 60 -261 225q-2 2 -3 4l-2 4q-29 36 -32 70q-2 24 -2 34q0 21 5 37q17 48 56 48
q27 0 44 -35q10 -18 10 -67q0 -26 -3 -60q137 -185 261 -204t185 -19q141 0 300 47q228 67 478 169q215 87 436.5 159.5t440.5 94.5q46 4 92 4q73 0 99 -5q33 -7 40 -36q3 -25 3 -60q0 -120 -31 -374q136 218 244.5 323.5t166 120t85.5 14.5q49 0 89 -24q102 -60 165 -220
q26 -66 42 -117q8 -27 9 -28q43 -158 121 -196h2q26 -12 54 -12q33 0 70 16q79 34 161 129q13 13 32 13q13 0 25.5 -11t12.5 -29q0 -14 -9 -26q-133 -153 -263 -171q-49 -9 -92 -9q-235 0 -306 274q-3 9 -4 15q-15 55 -55 148q-33 77 -83 128q-19 16 -43 16q-37 0 -83 -38
q-131 -112 -292 -389q-60 -103 -79 -139l-2 -2q-13 -29 -86 -29z" />
    <glyph glyph-name="uniE118" unicode="__o" horiz-adv-x="3204" 
d="M2434 396q-177 6 -275 86q-140 116 -140 305q0 54 13 107q15 59 44 109q-38 70 -38 147q0 109 70 194q-184 -32 -371.5 -96.5t-370.5 -137.5q-200 -81 -389 -144t-292.5 -72.5t-138.5 -9.5q-130 0 -245 47q-153 63 -265 231q-30 42 -34 72q-2 23 -2 31q0 23 6 40
q16 48 56 48q27 0 44 -35q10 -18 10 -66q0 -26 -3 -60q137 -185 261 -204.5t185 -19.5q141 0 300 47q228 67 478 169q198 80 401.5 149t406.5 98q78 12 156 12q46 0 92 -4q156 -25 255.5 -140.5t138.5 -270.5q24 -95 24 -188q0 -48 -6 -96h27q181 0 365 87q9 5 18 5
q23 0 35 -23q5 -9 5 -18q0 -24 -23 -36q-204 -96 -404 -96l-41 1q-23 -77 -69.5 -138.5t-115 -95.5t-158.5 -34h-10zM2724 749q7 37 7 94q0 82 -21 165q-30 115 -96 205.5t-165 130.5q-64 19 -116 19q-55 0 -96 -21q-56 -26 -87.5 -77.5t-31.5 -114.5q0 -39 13 -76
q53 49 74 63q13 9 25 9q15 0 46 -22l38 -24q20 -11 20 -34q0 -22 -17 -34q-46 -36 -73 -94q78 -62 187 -110q139 -63 293 -79zM2481 483q33 0 66 11q110 44 158 176q-155 19 -291 77q-111 48 -196 110q-7 -32 -7 -73q0 -108 60 -189q47 -61 107 -86.5t103 -25.5z" />
    <glyph glyph-name="uniE119" unicode="__p" horiz-adv-x="3191" 
d="M2161 -837q-17 0 -29.5 11t-12.5 32l86 2038q-207 -22 -419 -92.5t-420 -154.5q-200 -81 -389 -143.5t-292.5 -72t-138.5 -9.5q-130 0 -245 47q-154 63 -265 230l-9 14q-22 36 -24.5 58.5t-2.5 30.5q0 65 40 84q12 5 22 5q27 0 44 -35q10 -18 10 -67q0 -26 -3 -60
q137 -185 261 -204t185 -19q141 0 300 47q228 67 478 169q207 83 419 154t424 97q37 4 75 6.5t60 2.5q21 0 38.5 -2t27 -13.5t9.5 -27.5l-8 -196q106 138 264 165q30 5 58 5q150 0 218 -110l3 -5q38 -70 38 -149q0 -90 -37 -185q116 19 261 21q17 0 28.5 -11t11.5 -28
t-11 -28.5t-28 -12.5q-175 -3 -302 -29q-116 -205 -254 -291l-7 -4q-73 -37 -123 -37q-24 0 -42 8q-55 25 -55 84q0 60 61 128q70 80 246 147l6 12q46 87 54.5 143.5t8.5 78.5q0 61 -29 115q-18 30 -47 44q-36 17 -65 17q-37 0 -91 -34q-127 -73 -176 -241l-71 -1691
q0 -16 -10.5 -27.5t-26.5 -13.5l-41 -1h-63zM2501 493q28 0 85 60q37 38 64 90q-36 -13 -71 -37q-74 -52 -90 -101q1 -12 12 -12z" />
    <glyph glyph-name="uniE120" unicode="__q" horiz-adv-x="3180" 
d="M2231 616q22 0 46 11q45 21 75 48q103 84 250 342q-150 102 -249 102q-112 0 -169 -83q-66 -99 -66 -219q0 -75 23 -129q30 -72 90 -72zM2641 -911q-70 0 -122 111q-30 70 -30 241q0 212 29 513q45 457 119 964q-112 -182 -205 -271q-73 -72 -166 -114q-65 -26 -118 -26
q-54 0 -94 27q-104 71 -104 233q0 82 30 168q34 94 104 165q-179 -34 -360 -97t-358 -134q-201 -81 -389.5 -143.5t-292 -72t-138.5 -9.5q-131 0 -246 47q-146 60 -261 225q-2 2 -3 4t-1 3l-9 12q-22 36 -24 59t-2 32q0 64 40 81q12 6 23 6q26 0 43 -35q9 -17 9 -63
q0 -27 -3 -64q137 -185 261 -204t185 -19q256 0 778 216q180 72 363.5 135.5t367.5 98.5q134 25 237 25q49 0 94 -6q105 -15 243 -109l31 60q28 43 99 43q44 0 64 -14h1q18 -14 18 -34l-16 -124q-6 -11 -69 -507q221 120 403 311q12 12 28 13q17 0 29 -11.5t12 -27.5
q1 -16 -10 -29q-188 -196 -411 -319q94 -82 109 -325q3 -54 3 -108q0 -251 -57 -511q-47 -213 -121 -335q-29 -49 -71 -71q-22 -10 -42 -10zM2706 -751q4 0 12 18q44 99 78 255q55 253 55 496q0 179 -32 283q-23 74 -65 95q-78 -609 -78 -907q0 -137 18 -210l1 -6
q6 -24 11 -24z" />
    <glyph glyph-name="uniE121" unicode="__r" horiz-adv-x="3041" 
d="M1124 338q-64 0 -128 6q-426 44 -753 336q-123 112 -217 256q-22 36 -24 59t-2 32q0 64 40 82q12 5 22 5q27 0 44 -35q9 -17 9 -63q0 -27 -3 -64q82 -119 185 -213q307 -274 707 -315q60 -6 120 -6q264 0 518 119q208 101 376 282l2 2q148 181 200 348l-42 15
q-115 46 -115 128q0 39 25 69q39 49 107 49q29 0 53 -10q72 -34 72 -138q0 -28 -5 -61q78 -23 137 -37q73 -16 167 -47q23 -9 27 -32q8 -56 13 -133q5 -132 41 -359q8 -35 18 -51t19 -20t15 -4h8q98 0 278 279q13 19 33 19q12 0 24.5 -8t15 -18t2.5 -13q0 -12 -7 -23
q-83 -131 -151 -202q-41 -44 -103 -84t-108 -51t-69 -11q-98 0 -141 82q-21 39 -28 85l-1 2q-35 207 -41 438l-3 66l-27 7q-61 14 -138 37q-57 -179 -212 -371l-3 -4q-179 -194 -406 -304q-270 -126 -551 -126zM2238 1247q2 19 2 34q0 54 -25 65q-8 4 -20 4q-29 0 -44 -18
q-7 -9 -7 -20q0 -28 63 -53z" />
    <glyph glyph-name="uniE122" unicode="__s" horiz-adv-x="2884" 
d="M2327 94q-88 0 -119 69q-24 55 -24 118q0 49 11 112q38 116 106 189.5t156 120.5q-47 61 -137 114l-3 2q-126 92 -144 196q-5 27 -5 53q0 89 59 174q42 60 100 101q-241 -10 -488.5 -84.5t-487.5 -168.5q-203 -77 -392.5 -137.5t-293 -70.5t-140.5 -10q-126 0 -236 43
q-142 55 -250 209l-4 7q-5 6 -9 13q-22 36 -24 58.5t-2 32.5q0 63 40 81q11 5 22 5q26 0 44 -35q9 -17 9 -62q0 -27 -3 -64q129 -171 248 -187.5t174 -16.5q143 0 308 47q228 64 481 163q179 68 364 130t354 94.5t319 32.5q147 0 222 -21q37 -12 70 -39q14 -12 14 -30
q0 -14 -10.5 -26.5t-20 -13t-11.5 -0.5q-13 0 -24 9q-36 29 -82 29q-45 -1 -86 -23.5t-68.5 -58t-34.5 -79.5q-2 -12 -2 -25q0 -107 140 -206q118 -74 173 -161q124 34 236 53l8 1q11 0 22 -7q17 -12 17 -34q0 -31 -33 -39q-101 -17 -212 -47q26 -71 26 -140q0 -33 -6 -66
q-18 -102 -73 -189q-66 -103 -152 -162q-60 -42 -118 -52zM2317 175q42 0 109 93q27 36 39 56q58 96 58 197q0 57 -25 113q-168 -89 -224 -259q-11 -57 -11 -98q0 -29 6 -49q13 -48 45 -53h3z" />
    <glyph glyph-name="uniE124" unicode="__u" horiz-adv-x="3564" 
d="M2479 500q-103 0 -163 65q-76 83 -76 260q0 83 16 185q-105 20 -208 20q-87 0 -174 -14q-190 -32 -374.5 -101.5t-357.5 -148.5q-225 -104 -393.5 -158.5t-289.5 -54.5q-60 0 -116 11q-171 32 -304 221q-2 2 -3 3.5t-1 2.5l-9 13q-22 36 -24 59t-2 32q0 64 40 81
q12 6 23 6q26 0 43 -35q9 -18 9 -63q0 -27 -3 -64q116 -155 213 -168.5t140 -13.5q119 0 254 45q184 62 390 157q165 74 339.5 141.5t327.5 98t279 30.5q161 0 308 -43q25 -8 44 -16q25 -11 25 -36l-1 -9q-18 -99 -18 -175q0 -130 47 -194q34 -46 85 -46q109 0 230 171
q79 110 141 292q5 19 24 27q56 22 112 22q18 0 28.5 -10t13.5 -24q71 -328 290 -328l19 1q63 21 105.5 45.5t52.5 35.5q12 12 28 13q16 0 29 -11q12 -13 12 -29t-12 -29t-64 -44t-128 -57q-15 -7 -70 -18q-36 -7 -72 -7q-152 0 -243 103q-62 71 -94 167q-125 -286 -290 -371
q-40 -21 -79 -27q-54 -13 -99 -13z" />
    <glyph glyph-name="uniE125" unicode="__v" horiz-adv-x="3121" 
d="M2552 498q-72 0 -135 82q-109 145 -183 645q-233 -9 -469 -83t-462 -165q-193 -78 -373 -137.5t-277.5 -68t-130.5 -8.5q-125 0 -234 46q-139 58 -249 216l-3 6q-32 44 -34 72l-2 31q0 65 40 83q12 5 22 5q27 0 44 -35q10 -18 10 -66q0 -26 -3 -60q130 -176 247 -195
t176 -19q132 0 282 44q216 63 455 160q215 87 439 160q296 95 557 95q125 0 142 -16q10 -9 13 -23q92 -656 195 -656q18 0 41 19q52 43 121 177q50 96 102 206q67 147 136 269q13 20 35 20q10 0 20 -6q19 -12 19 -34q0 -11 -5 -20q-66 -119 -133 -263q-87 -194 -176 -331
q-49 -74 -123 -118q-53 -32 -104 -32z" />
    <glyph glyph-name="uniE126" unicode="__w" horiz-adv-x="3658" 
d="M3189 449q-39 0 -75 16q-78 34 -141 119q-87 120 -144 276q-115 -252 -250 -322q-66 -34 -120 -34q-222 0 -222 516q0 84 5 184q-235 -7 -473 -81.5t-467 -167.5q-193 -77 -373 -136.5t-276 -68.5t-127 -9q-127 0 -239 47q-145 61 -252 221q0 1 -1 1l-8 13
q-22 36 -24 59.5t-2 33.5q0 21 5 37q17 48 56 48q27 0 44 -35q10 -18 10 -67q0 -26 -3 -60q130 -176 247.5 -194.5t176.5 -18.5q239 0 737 204q229 93 468 168q276 87 529 87q62 0 125 -4q17 -1 27 -12.5t10 -26.5v-3q-8 -130 -8 -231q0 -265 54 -359q23 -41 48 -41
q32 0 76 44q106 106 191 330q40 119 53 175q6 22 29 30l11 1q29 0 38 -30q31 -114 97 -270.5t145 -265.5q55 -74 90 -74q23 0 46 45q78 139 91 664q1 17 12.5 28.5t28.5 11.5q17 -1 28 -12.5t11 -28.5q-13 -544 -100 -701q-38 -70 -86 -83q-51 -23 -98 -23z" />
    <glyph glyph-name="uniE127" unicode="__x" horiz-adv-x="3253" 
d="M2396 281q-9 0 -17 4q-23 12 -23 37q0 9 147 319q-125 95 -196 271q-47 123 -61 192l-3 10q-235 -7 -473 -81.5t-467 -167.5q-193 -77 -373 -137t-276.5 -68.5t-127.5 -8.5q-126 0 -238 47q-145 61 -252 221q-30 42 -34 72q-2 23 -2 31q0 23 6 40q17 49 56 49
q27 0 44 -36q10 -18 10 -66q0 -26 -3 -60q130 -176 248 -194.5t178 -18.5q131 0 279 43q216 63 455 161h1q208 84 426 155t437 94q59 5 117 5q129 0 153 -15q15 -10 26 -59q40 -166 116 -282q13 -20 28 -38l205 435q12 23 37 23q8 0 17 -4q23 -12 23 -37q0 -8 -221 -477
q79 -67 208 -67q163 0 401 156q11 7 22 7q21 0 34 -18q7 -11 7 -22q0 -21 -18 -34q-161 -106 -287 -144q-139 -56 -194 -56h-58q-103 0 -181 38l-139 -296q-12 -23 -37 -23z" />
    <glyph glyph-name="uniE128" unicode="__y" horiz-adv-x="3302" 
d="M2393 -965q-113 0 -174 104q-40 69 -40 188q0 151 80 367q1 1 1 3q206 491 488 773l48 429q-191 -333 -313 -398q-47 -27 -106 -27q-18 0 -35 3q-83 19 -121 97t-38 184q0 140 47 273q-233 -10 -467.5 -83.5t-460.5 -165.5q-193 -77 -372.5 -136.5t-276 -68.5t-127.5 -9
q-127 0 -239 47q-138 58 -248 216q-2 2 -3.5 4.5t-9.5 14.5q-22 36 -24 59.5t-2 33.5q0 21 5 37q17 48 58 48q26 0 43 -35q10 -17 10 -63q0 -27 -4 -64q130 -176 248 -194.5t177 -18.5q240 0 736 204q224 91 458 165q283 89 535 89q91 0 138 -8q6 -1 11 -4q22 -13 22 -35
q0 -9 -5 -19q-73 -144 -73 -322q0 -128 38 -159q6 -4 14 -4q62 0 185 170q92 128 223 381q10 21 34 24q28 3 55 3q26 0 46.5 -0.5t30.5 -13t10 -28.5q0 -22 -47 -455q165 119 346 192q8 3 15 3q27 0 38 -25q3 -7 3 -15q0 -26 -25 -38q-206 -82 -390 -227q-43 -393 -86 -732
q-22 -168 -33 -232q-39 -200 -123 -326t-181 -175q-61 -31 -119 -31zM2350 -865q9 0 18 3q75 23 151 138q82 115 120 310q22 131 77 604q9 73 17 147q-222 -250 -399 -671q-68 -183 -72 -253t-4 -88q0 -94 31 -147q27 -43 61 -43z" />
    <glyph glyph-name="uniE129" unicode="__z" horiz-adv-x="2880" 
d="M2298 528q-155 0 -174 72q-2 9 -2 19q0 53 68 119q90 86 190 164l60 49q175 143 175 184q0 13 -24 13l-199 -14q-193 -8 -387 -42q-211 -42 -403.5 -109t-367.5 -138q-482 -198 -703 -198q-86 0 -164 20q-181 46 -328 258q-5 9 -12 18q-22 36 -24.5 58.5t-2.5 30.5
q0 65 40 84q12 5 22 5q27 0 44 -35q10 -18 10 -67q0 -26 -3 -60q129 -179 242.5 -203t181.5 -24q209 0 668 188q180 73 379 141.5t418 111.5q195 33 386 42q301 20 340 20q90 0 90 -66q0 -30 -19 -62q-37 -65 -102.5 -128.5t-144.5 -129.5q-161 -134 -191 -178
q-15 -21 -15 -34q0 -19 28 -22q20 -2 40 -2q55 0 185 13h5q126 12 158 12q15 0 26.5 -10t13.5 -27q0 -17 -10.5 -29t-27.5 -14q-71 -5 -150 -12h-4q-153 -16 -312 -18z" />
    <glyph glyph-name="uniE208" unicode="ee" horiz-adv-x="1837" 
d="M216 870q266 111 318 203q9 15 9 24q0 17 -29 18q-19 0 -37 -3l-43 -12q-52 -19 -107.5 -69.5t-110.5 -160.5zM79 355q-97 11 -136 74q-33 54 -33 125q0 89 35 186q30 84 64 132h1l1 2q0 1 1 1t2 4h1q76 112 185 192t241 115q31 8 63 8q57 0 92 -30q29 -26 29 -62
q0 -31 -22 -70q-73 -128 -430 -266q-41 -105 -41 -186q0 -44 19 -69q18 -21 65 -21q177 0 628 296q10 42 26 74q10 27 60.5 97t155.5 140q50 32 114 56.5t117 24.5q55 0 87 -30q29 -25 29 -60q0 -153 -416 -315q-5 -29 -5 -58q0 -75 41 -116q34 -33 115 -33q54 0 130 19
q216 59 534 249q10 5 20 5q23 0 35 -19q6 -10 6 -20q0 -23 -20 -35q-174 -104 -309 -166l-210 -96q-170 -74 -280 -74l-20 1q-105 9 -157 69q-64 74 -64 184q-174 -111 -358 -204q-247 -125 -374 -125zM1046 870q249 106 297 192q8 13 8 21q0 16 -27 16q-29 0 -77 -16
q-115 -43 -192 -193q-5 -9 -9 -20z" />
    <glyph glyph-name="uniE209" unicode="gg" horiz-adv-x="2115" 
d="M273 562q29 0 71 31q134 98 327 442q-175 137 -272 137q-27 0 -51 -10q-149 -78 -171 -298q-3 -28 -3 -56q0 -99 31 -181q17 -48 37.5 -56.5t30.5 -8.5zM3 -1274q-159 0 -247 123q-64 89 -66.5 167.5t-2.5 86.5q0 145 73 343l1 1q188 452 555 821q172 173 350 304l40 361
q-96 -162 -181 -264q-166 -210 -328 -212q-40 1 -74 19q-68 36 -105 118q-43 94 -43 215q0 83 23 166q27 98 86 173q94 118 254 118q62 0 144 -30q103 -37 228 -130q9 18 18.5 37.5t33.5 22.5q33 3 55 3t64.5 -2.5t42.5 -43.5q-9 -103 -42 -407q74 44 145 79q0 87 25 172.5
t77 150.5q87 110 237 110q147 0 345 -146q8 14 15 29q10 22 34 25q31 2 51 2q21 0 57 -2q23 0 34.5 -12.5t11.5 -29.5l-1 -1h1q-9 -95 -39 -373q122 72 231 117q8 3 15 3q28 0 37 -26q3 -8 3 -15q0 -26 -25 -37q-127 -52 -272 -142q-95 -866 -130 -1058q-60 -310 -234 -488
q-166 -168 -387 -202q-35 -6 -62 -6q-144 0 -227 115q-60 83 -62 156.5t-2 81.5q0 135 68 319l1 1q92 221 225.5 413t291 351t323.5 281l35 320q-260 -432 -462 -432q-41 0 -76 18q-52 28 -85.5 85.5t-45.5 133.5q-80 -41 -165 -94q-103 -937 -140 -1142q-64 -334 -251 -523
q-177 -181 -415 -217q-31 -6 -61 -7zM-3 -1193q203 8 369 247q112 161 167 434q23 123 82 636l39 338q-340 -264 -584 -615q-139 -200 -235 -430q-68 -182 -68 -310q0 -137 54 -212q65 -88 168 -88h8zM1317 580q16 0 33 8q61 30 127 114.5t118.5 172.5t73.5 128l4 7
q-36 28 -89 63t-94.5 48.5t-65.5 13.5q-28 0 -52 -11q-130 -72 -152 -271q-2 -26 -2 -51q0 -98 32 -168q28 -54 67 -54zM1051 -1054q65 5 118 28q118 51 221.5 200.5t154.5 401.5q22 120 76 590q18 153 35 307q-309 -242 -535 -566q-129 -186 -218 -399q-63 -167 -63 -285
q0 -127 50 -196q59 -81 161 -81z" />
    <glyph glyph-name="uniE210" unicode="ll" horiz-adv-x="1635" 
d="M269 379q-89 0 -153 57q-58 51 -92 140q-61 165 -62 408q2 339 61 676.5t110 491.5q32 99 94 214.5t148 212.5q151 169 324 169q92 0 176 -92q92 -108 92 -275q0 -202 -104 -470q-97 -247 -234 -485.5t-263 -414.5t-190 -235l-3 -3q35 -287 179 -287q22 0 47 6l15 5
q147 44 409 335q2 3 6 6q-6 70 -7 146q2 322 57.5 642t103.5 466q31 94 90 204t141 202q145 161 306 161q89 0 171 -88q87 -102 87 -254q0 -185 -104 -431q-91 -218 -219 -429t-248.5 -372t-187.5 -229q11 -178 67 -276q37 -65 107 -65q20 0 43 5q136 30 388 306
q12 13 21 13h10q14 0 26.5 -11t12.5 -29q0 -15 -10 -26q-251 -276 -406 -324q-88 -40 -159 -40q-91 0 -151 54q-93 83 -125 272q-68 -75 -163 -158.5t-201.5 -140.5t-209.5 -57zM164 879q119 135 305.5 432.5t318.5 628.5q82 211 91.5 312t9.5 127q0 138 -73 223
q-60 65 -119 65q-35 0 -69 -22q-123 -81 -231 -330q-43 -99 -69 -180q-33 -104 -75.5 -317t-67 -432.5t-24.5 -388.5q0 -60 3 -118zM1014 970q120 138 292 399t294 547q79 189 88.5 282t9.5 117q0 124 -67 202q-55 60 -111 60q-33 0 -64 -20q-114 -75 -218 -312
q-41 -94 -65 -170q-47 -145 -102 -467t-57 -638z" />
    <glyph glyph-name="uniE211" unicode="oo" horiz-adv-x="2041" 
d="M385 400q-176 6 -274 86q-140 116 -140 305q0 54 13 107q15 59 44 109q-39 71 -39 147q0 85 45 158q42 70 122 108q55 27 126 27q65 0 143 -23q2 0 3 -1q120 -48 198.5 -153t112.5 -238q25 -94 25 -187q0 -29 -3 -58q101 5 206 33q5 89 50 167q-35 64 -35 133
q0 78 40 143.5t113 100.5q51 25 116 25q60 0 130 -21l4 -1q108 -43 180 -139.5t103 -216.5q23 -86 23 -171q0 -52 -7 -83h20q163 0 329 78q9 5 19 5q23 0 35 -23q4 -9 4 -17q0 -25 -23 -37q-184 -87 -363 -87l-38 1q-21 -69 -63 -124.5t-106 -87t-148 -31.5h-6
q-161 6 -250 79q-108 89 -125 225q-112 -28 -220 -32q-22 -100 -79 -176q-98 -130 -274 -130h-11zM680 786q3 29 3 58q0 83 -22 168q-29 115 -95 205.5t-166 130.5q-63 19 -115 19q-54 0 -96 -21q-57 -26 -87 -76q-32 -54 -33 -115q0 -39 14 -77q75 72 100 72q10 0 19.5 -6
t15.5 -9.5t11.5 -7.5t14 -9t23 -14t17.5 -19t3 -15q0 -23 -19 -34q-45 -35 -72 -93q131 -99 335 -141q72 -13 149 -16zM435 489q96 0 171 90q41 54 60 127q-78 4 -150 17q-205 42 -346 140q-7 -36 -7 -71q0 -114 60 -193q77 -98 138.5 -104t73.5 -6zM1606 776q4 32 4 64
q0 75 -20 151q-26 103 -85.5 184t-147.5 117q-57 17 -104 17q-48 0 -85 -18q-50 -24 -77 -68.5t-29 -97.5q0 -34 10 -67l41 36l23 18q13 9 25 9q11 0 23 -8l18 -12l2 -1q16 -11 35.5 -22t19.5 -34t-19 -34q-38 -31 -62 -81q174 -136 426 -168zM1389 522q85 0 152 80
q27 36 43 81q-20 2 -40 6q-235 44 -392 160q-5 -27 -5 -58q0 -99 53 -170q69 -87 124 -93t65 -6z" />
    <glyph glyph-name="uniE212" unicode="rr" horiz-adv-x="1920" 
d="M647 432q-93 0 -134 80q-21 39 -29 85v2q-36 214 -42 438q-1 36 -3 66q-13 4 -27 7q-61 14 -138 37q-57 -181 -214 -374q-14 -14 -30 -14q-14 0 -27.5 11t-13.5 29q0 14 10 26q147 181 199 348l-41 15q-115 46 -115 127q0 40 25 70q38 49 107 49q29 0 52 -10
q73 -34 73 -141q0 -27 -5 -58q124 -37 139 -37q25 -7 52 -13l6 -2q46 -12 106 -32q24 -9 28 -32q7 -56 12 -133q5 -132 42 -359q9 -75 59 -75q23 0 59.5 22.5t81 71t118 150t113.5 165.5q59 95 86 180q-96 32 -122 78q-15 25 -15 51q0 35 24 64q35 44 97 44q27 0 49 -9
q66 -31 66 -126q0 -23 -4 -50q66 -20 117 -31q1 0 1 -1l52 -12q41 -11 94 -28q24 -9 28 -33q6 -50 11 -118q4 -116 36 -315l1 -3q10 -60 47 -60q84 0 241 244q14 19 34 19q11 0 22 -6q18 -13 18 -35q0 -11 -6 -21q-129 -199 -217 -250q-12 -8 -24 -14q-75 -38 -106.5 -40.5
t-40.5 -2.5q-85 0 -124 73q-19 35 -25 76l-1 2q-31 189 -37 387l-2 55q-75 18 -138 36q-32 -98 -101 -207q-39 -61 -102 -149t-106 -139q-77 -91 -150 -130q-83 -42 -119 -45t-47 -3zM216 1251q3 19 3 34q0 53 -25 65q-8 4 -21 4q-29 0 -43 -18q-7 -10 -7 -21q0 -27 62 -52z
M1215 1232q0 44 -19 53q-6 3 -17 3q-21 0 -33 -13v-1q-6 -6 -6 -14q0 -21 52 -42l22 -8z" />
    <glyph glyph-name="uniE213" unicode="ss" horiz-adv-x="993" 
d="M-60 98q-88 0 -118 68q-25 56 -25 119q0 49 11 112q38 114 106 188t156 121q-47 61 -137 115l-3 2q-126 91 -144 196q-5 27 -5 53q0 89 59 174q95 128 220 158q35 11 70 11q77 0 135 -48q14 -12 14 -30q0 -14 -10.5 -26.5t-19.5 -13t-12 -0.5q-13 0 -24 9q-36 29 -81 29
q-46 -1 -87 -23.5t-68.5 -58t-34.5 -79.5q-2 -12 -2 -25q0 -107 140 -206q118 -74 173 -161q89 26 173 43q-88 85 -88 192q0 81 55 159q87 118 203 147q33 10 65 10q66 0 125 -45q13 -12 13.5 -21t0.5 -12q0 -13 -10 -25t-18.5 -12.5t-10.5 -0.5q-14 0 -27 9q-31 26 -69 26
q-43 0 -82 -21q-79 -45 -91 -123q-2 -10 -2 -21q0 -98 127 -187q92 -58 143 -125q124 45 234 64h6q14 0 24 -7q18 -11 18 -33q0 -12 -7 -22q-9 -14 -26 -17q-98 -17 -207 -55q33 -74 33 -148q0 -26 -4 -52q-15 -100 -68 -185q-61 -95 -140 -150q-72 -49 -136 -49
q-67 0 -103 52q-30 42 -31 124q0 69 16.5 121.5t54.5 109.5q69 100 168 163q-30 36 -78 69q-105 -18 -223 -50q26 -71 26 -141q0 -33 -6 -66q-18 -102 -73 -189q-66 -103 -152 -162q-60 -42 -118 -52zM-70 179q42 0 110 93q27 36 38 56q58 96 58 198q0 56 -24 112
q-168 -91 -225 -259q-10 -57 -10 -98q0 -29 5 -49q13 -48 45 -53h3zM479 202q33 0 97 85q24 32 34 49q53 87 53 177q0 56 -26 112q-90 -58 -150 -148q-55 -82 -55 -178q0 -91 44 -97h3z" />
    <glyph glyph-name="uniE214" unicode="tt" horiz-adv-x="1571" 
d="M1126 359q-107 0 -191 66q-89 72 -123 236l-8 41q-134 -184 -277 -263q-95 -51 -199 -51q-131 0 -226 84.5t-124 268.5q-21 155 -21 323q0 285 54 609q52 315 127 586q-386 200 -670 200q-67 0 -134 -10q-198 -30 -387 -187q-11 -9 -24 -9q-20 0 -33 13q-9 13 -9 27
q0 18 14 30q205 171 350 195t224 24q133 0 267 -37q214 -58 425 -167q73 249 137 400q9 26 22.5 28t20.5 2q20 0 59 -13l58 -16q2 -1 5 -1q27 -10 27 -38q0 -6 -2 -13q-60 -170 -139 -448l127 -70q205 -116 397 -206q67 311 132 490q8 26 21.5 29t21.5 3q25 0 56 -10
q23 -6 50 -11q16 -3 24.5 -15t8.5 -24q0 -9 -2 -14q-57 -192 -128 -518q123 -39 237 -39q121 0 227 58q9 5 19 5q24 0 36 -21q5 -9 5 -19q0 -23 -21 -36q-121 -65 -189 -66.5t-74 -1.5q-124 0 -256 40q-19 -95 -34 -196q-41 -246 -46.5 -397t-5.5 -199q0 -199 33 -377
q39 -195 145 -204q16 0 31 2q39 0 104 41q142 91 297 337q12 19 34 19q11 0 21 -6q19 -12 19 -34q0 -11 -6 -21q-165 -262 -322 -362q-89 -57 -169 -57h-16zM358 469q60 2 130 41q156 85 300 312q-12 136 -12 276q0 193 22.5 395.5t58.5 388.5q-204 94 -420 217l-110 61
q-181 -667 -181 -1158q0 -151 18 -292q35 -232 177 -241h17z" />
    <glyph glyph-name="uniE215" unicode="th" horiz-adv-x="2139" 
d="M830 357q-31 0 -42 11.5t-11 29.5q2 93 12 288q-130 -172 -266 -247q-86 -47 -166 -50l-34 -1q-130 0 -226 84q-94 85 -123 269q-21 155 -21 323q0 277 54 609q35 212 82 408q-163 114 -332 215q-278 165 -486 165q-46 0 -91 -7q-141 -21 -274 -140q-12 -10 -26 -10
q-19 0 -30 12t-11 29q1 16 13 28q150 135 256 153.5t162 18.5q100 0 200 -31q157 -48 312 -139q168 -100 328 -211q96 368 184 574q9 26 22.5 28t20.5 2q20 0 59 -13l4 -1q50 -16 59 -16q27 -10 27 -38q0 -6 -2 -13q-83 -234 -190 -642q146 -93 231 -116.5t126 -23.5
q75 0 138 42q11 8 23 8q20 0 33 -17q8 -11 8 -23q0 -20 -17 -33q-86 -59 -184 -59q-38 0 -78 9q-142 33 -300 131q-90 -371 -114 -639q-18 -204 -18 -322q0 -151 18 -292q37 -232 177 -241q73 0 147 41q158 87 304 318q4 6 9 10q37 605 120 1098q53 314 135 562
q79 216 238 357q178 158 348 158q73 0 131 -51q75 -67 96 -235q2 -18 2 -38q0 -201 -202 -550q-237 -408 -641 -893l-3 -3q-12 -137 -21 -263q127 213 219 313q32 35 65 64t79 44q19 6 37 6q24 0 45 -12q65 -41 93.5 -156t44.5 -252q27 -215 60 -286q32 -61 63.5 -73.5
t54.5 -12.5q73 0 196 86q79 56 173 136q13 10 30 10q15 -2 25.5 -14.5t10.5 -29.5q-1 -16 -14 -27q-104 -88 -193 -149q-112 -77 -243 -109q-45 -11 -84 -11q-136 0 -204 133q-27 54 -42 136.5t-27 175.5q-23 257 -59 301q-14 16 -24 16q-12 0 -27 -16q-99 -111 -291 -455
q-17 -319 -17 -384q0 -32 -35 -44q-21 -7 -71 -12zM1035 1386q332 406 560 792q192 334 192 509q0 16 -2 31q-27 214 -146 214q-58 0 -126 -45q-80 -53 -151.5 -153.5t-119.5 -236.5q-137 -417 -207 -1111z" />
    <glyph glyph-name="uniE217" unicode="ar" horiz-adv-x="2345" 
d="M1970 432q-93 0 -135 80q-20 39 -28 85v2q-37 214 -42 438q-1 36 -3 66q-13 4 -27 7q-61 14 -138 37q-57 -181 -214 -374l-7 -6q-197 -195 -339 -223q-29 -6 -54 -6q-62 0 -108 32q-113 77 -113 294q0 47 6 99q-175 -217 -310.5 -322t-197.5 -116.5t-86 -11.5
q-62 0 -103 32q-90 68 -90 221q0 173 114 328q66 87 150 125.5t167 38.5q38 0 79 -7q132 -21 294 -136l23 32q19 23 77 23q77 0 92 -18q9 -12 9 -25q0 -9 -1 -14q-33 -121 -33 -230q0 -75 17 -133q20 -74 43.5 -91.5t42.5 -17.5q25 0 60 19q88 48 210 170q145 179 196 343
l-41 15q-115 45 -115 127q0 40 25 70q38 49 107 49q29 0 52 -10q72 -34 72 -138q0 -28 -5 -61q78 -23 138 -37q81 -19 166 -47q23 -9 27 -32q10 -75 15 -164q7 -197 38 -321q20 -76 56 -82h5q98 0 279 279q12 18 34 18q11 0 21 -6q19 -12 19 -33q0 -11 -6 -22
q-146 -225 -245 -282q-14 -9 -27 -16q-83 -42 -119 -45t-47 -3zM1539 1251q2 19 2 34q0 53 -24 65q-8 4 -21 4q-30 0 -43 -18q-8 -11 -8 -19q0 -28 63 -54zM247 608q31 0 70 25q171 99 419 418q-163 114 -288 123q-77 -2 -134.5 -61.5t-91.5 -146.5q-44 -107 -44 -211
q0 -40 8 -74q18 -68 37 -70.5t24 -2.5z" />
    <glyph glyph-name="uniE218" unicode="er" horiz-adv-x="2022" 
d="M168 865q275 112 335 203q10 16 10 21v1q-9 8 -33 8l-23 -2l-19 -4q-59 -10 -138 -69q-66 -51 -124 -142zM250 359q-16 0 -30 1q-117 13 -177 84q-78 94 -78 239q0 104 36 177q27 65 104 141q112 115 304 167l11 2q30 7 58 7q57 0 90 -29q25 -23 25 -55q0 -31 -24 -70
q-73 -117 -423 -253l-1 -21q0 -48 16 -98q20 -66 71.5 -110t141.5 -46q169 0 421 172l30 21q101 71 169.5 139.5t129.5 176.5q50 89 75 169l-41 15q-116 46 -116 129q0 37 25 68q39 49 108 49q29 0 52 -10q72 -34 72 -138q0 -28 -5 -61q78 -23 138 -37l54 -13l5 -2
q47 -12 107 -32q23 -9 27 -32q8 -56 13 -133q5 -132 41 -359q4 -21 17.5 -46.5t37.5 -28.5h5q97 0 279 279q11 18 34 18q10 0 21 -6q18 -12 18 -33q0 -11 -5 -22q-96 -149 -171 -222q-79 -78 -185 -111q-47 -14 -84 -14q-43 0 -72 18q-73 42 -89 148v2q-37 204 -42 438
q-1 36 -3 66l-27 7q-61 14 -138 37q-27 -85 -79 -179q-66 -119 -137 -190q-79 -80 -221 -178q-114 -78 -258 -145q-205 -96 -330 -96zM1217 1251q2 19 2 34q0 53 -24 65q-9 4 -21 4q-30 0 -43 -18q-9 -9 -9 -20q0 -28 64 -53z" />
    <glyph glyph-name="uniE219" unicode="ir" horiz-adv-x="1658" 
d="M104 1308q-42 0 -86 18q-23 11 -23 35q0 9 4 18q11 23 36 23q8 0 17 -3q26 -11 52 -11q22 0 44 8q66 25 89 63q12 20 34 20q11 0 21 -5q19 -12 19 -35q0 -33 -57 -76q-35 -27 -81 -43q-34 -12 -69 -12zM1282 432q-92 0 -134 80q-20 39 -28 85v2q-37 214 -42 438
q-1 36 -3 66q-13 4 -27 7q-60 14 -138 37q-43 -137 -148 -289q-89 -130 -220 -222q-44 -29 -88 -50q-51 -22 -121 -40.5t-123 -19.5q-158 0 -217 149q-19 57 -19 137q0 104 37 325q2 20 20 31q31 16 77 16q74 0 88 -18q10 -12 10 -27v-3q-1 -2 -3 -17q-36 -210 -36 -299
q0 -112 57 -159q35 -30 83 -30q81 0 183 67q122 84 205 206q100 142 139 269l-41 15q-115 46 -115 128q0 39 25 69q38 49 107 49q29 0 52 -10q73 -34 73 -141q0 -27 -5 -58q124 -37 138 -37q76 -18 166 -47q23 -9 27 -32q7 -56 12 -133q5 -132 42 -359q3 -21 16.5 -46.5
t37.5 -28.5h5q97 0 279 279q11 18 34 18q11 0 21 -6q19 -12 19 -34q0 -11 -6 -21q-146 -225 -245 -282q-14 -9 -27 -16q-83 -42 -119 -45t-48 -3zM852 1251q2 19 2 34q0 53 -24 65q-8 4 -21 4q-30 0 -43 -18q-7 -9 -7 -20q0 -28 62 -53z" />
    <glyph glyph-name="uniE21A" unicode="or" horiz-adv-x="2169" 
d="M386 400q-177 6 -274 86q-141 115 -141 305q0 54 14 107q14 59 43 109q-38 70 -38 147q0 85 43.5 156.5t123.5 109.5q55 27 125 27q65 0 143 -23l4 -1q119 -48 197.5 -153t112.5 -238q24 -95 24 -188q0 -68 -14 -141q34 -4 68 -4q134 0 253 67q49 30 79.5 64t62.5 81
q95 139 134 262l-42 15q-115 46 -115 128q0 39 25 69q39 49 107 49q29 0 53 -10q72 -35 72 -138q0 -28 -5 -61q78 -23 137 -37l3 -1q88 -21 164 -46q23 -9 27 -32q8 -56 13 -133q5 -132 41 -359q4 -21 17.5 -46.5t37.5 -28.5h5q98 0 278 279q13 18 35 18q10 0 21 -6
q18 -12 18 -34q0 -11 -6 -21q-145 -225 -245 -282q-14 -9 -27 -16q-83 -42 -118.5 -45t-47.5 -3q-92 0 -134 80q-21 39 -28 85l-1 2q-36 207 -41 438l-3 66l-27 7q-61 14 -138 37q-43 -134 -145 -283q-40 -58 -78 -98t-99 -76q-86 -48 -159.5 -59.5t-126.5 -11.5
q-45 0 -90 6q-55 -134 -169 -191q-69 -34 -159 -34h-10zM669 716q14 57 14 131q0 82 -21 165q-30 115 -96 205.5t-165 130.5q-64 19 -116 19q-54 0 -95 -21q-57 -26 -88.5 -78t-31.5 -114q0 -39 13 -76q52 48 70 60l4 3q14 9 26 9q10 0 20 -6t15.5 -9.5t9.5 -6.5l39 -24
q19 -12 19 -34t-17 -34q-46 -36 -73 -94q175 -143 407 -210q33 -10 66 -16zM435 489q96 0 172 90q21 27 36 60q-148 33 -286 105q-106 55 -187 116q-7 -30 -7 -72q0 -108 60 -189q78 -98 139 -104t73 -6zM1364 1251q2 19 2 34q0 54 -25 65q-8 4 -20 4q-29 0 -44 -18
q-7 -9 -7 -20q0 -28 63 -53z" />
    <glyph glyph-name="uniE21B" unicode="ur" horiz-adv-x="2315" 
d="M1938 432q-43 0 -73 17q-72 41 -89 148l-1 2q-33 193 -42 438l-2 66l-28 7q-60 14 -135 37q-31 -129 -108 -249q-103 -166 -304 -228q-15 -8 -69 -18q-36 -7 -72 -7q-39 0 -79 8q-176 33 -258 262q-64 -147 -139 -239q-115 -141 -231 -159q-53 -13 -98 -13
q-104 0 -164 65q-75 82 -75 264q0 97 21 220l1 2q8 31 38 31q29 0 107 -31q25 -12 25 -37q0 -6 -2 -11q-17 -95 -17 -169q0 -134 47 -197q35 -46 85 -46q34 0 74 20q78 40 156 150.5t141 292.5q4 19 23 27q57 22 113 22q17 0 28 -10t13 -24q39 -180 117 -254q72 -73 160 -73
q35 0 69 13q128 48 206 158q84 120 115 255l-43 16q-114 46 -114 128q0 39 24 69q38 48 103 48q36 0 63 -18q60 -42 60 -146q0 -20 -3 -43q80 -24 141 -38l60 -15q46 -12 107 -32q23 -9 27 -32q8 -56 12 -133q5 -132 42 -359q3 -21 17 -46.5t37 -28.5h6q98 0 278 279
q13 18 35 18q11 0 20 -6q20 -12 20 -34q0 -11 -7 -21q-146 -225 -245 -282q-14 -9 -27 -16q-83 -42 -118.5 -45t-47.5 -3zM1504 1265q0 88 -45 88q-23 0 -38 -17q-7 -9 -7 -20q0 -28 62 -53l27 -10z" />
    <glyph glyph-name="uniE21C" unicode="br" horiz-adv-x="1922" 
d="M173 1197q45 62 103 138q115 149 244.5 330.5t230 363t117.5 274t17 123.5q0 103 -69 167q-46 40 -98 40q-35 0 -70 -18q-71 -36 -131 -108q-312 -378 -344 -1310zM392 299q-31 0 -65 17q-41 24 -56 78l-1 6q-4 28 -4 53q0 127 119 180q64 29 148 48q35 126 35 198
q0 97 -38 173q-31 59 -71 59q-17 0 -39 -11q-125 -79 -260 -384q-11 -22 -36.5 -23.5t-45.5 -1.5q-81 0 -98 22q-9 11 -9 24l2 139q0 517 70 937q48 287 156 529q31 68 93.5 148t150.5 143q118 83 247 83q67 0 117 -22q31 -15 61 -41q94 -86 94 -219q0 -24 -3 -49
q-20 -165 -122.5 -360.5t-238.5 -388t-258 -349.5q-116 -151 -172 -237l-3 -141q113 197 212 258q7 7 35 20q48 22 92 22q30 0 58 -11q66 -24 110 -86q82 -114 82 -255q0 -45 -18 -120q191 65 303 255q53 90 73 176l-55 20q-115 45 -115 127q0 40 25 70q38 48 104 48
q38 0 67 -18q67 -43 67 -154q0 -19 -2 -39q71 -21 128 -34h1q26 -7 53 -13l5 -2q47 -12 107 -32q23 -9 28 -32q7 -56 12 -133q5 -132 42 -359q3 -21 16.5 -46.5t37.5 -28.5h5q98 0 279 279q12 18 34 18q11 0 21 -6q19 -12 19 -33q0 -11 -6 -22q-146 -225 -245 -282
q-14 -9 -27 -16q-83 -42 -119 -45t-47 -3q-92 0 -135 80q-21 39 -28 85v2q-36 214 -42 438q-1 36 -3 66q-13 4 -27 7q-55 13 -123 33q-25 -96 -84 -195.5t-151 -179.5q-97 -81 -244 -124q-105 -296 -278 -340q-21 -5 -40 -5zM371 423q12 0 33 17q51 43 96 149
q-57 -16 -96 -41.5t-52 -69.5q-3 -11 -3 -22q0 -27 12 -30zM1125 1259q0 94 -55 94q-27 0 -40 -17q-8 -11 -8 -19q0 -28 63 -54l40 -15v11z" />
    <glyph glyph-name="uniE21D" unicode="cr" horiz-adv-x="1936" 
d="M1562 432q-43 0 -73 17q-72 41 -89 148q-1 0 -1 1v1q-33 193 -42 438l-2 66l-28 7q-48 11 -105 27q-23 -91 -85 -187t-166 -179l-11 -8q-273 -175 -530 -222q-81 -15 -148 -15q-108 0 -175 40q-106 64 -127 184q-6 39 -6 78q0 103 43 207q60 144 162 217q57 39 114 39
q82 0 150 -95q7 -11 7 -22q0 -21 -18 -34q-10 -7 -22 -7q-21 0 -34 18q-35 52 -66 52q-35 0 -68 -42q-64 -80 -82 -214q-4 -30 -4 -59q0 -95 46 -172q57 -89 190 -89q45 0 99 11q205 51 427 194q96 75 152 162t75 168q-33 11 -73 26q-114 46 -114 128q0 39 24 69
q38 48 106 48q45 0 78 -23q70 -50 70 -168l-1 -25q61 -17 111 -29l60 -15q46 -12 107 -32q23 -9 27 -32q8 -56 12 -133q5 -132 42 -359q14 -70 54 -75h6q98 0 278 279q13 18 35 18q11 0 20 -6q20 -12 20 -34q0 -11 -7 -21q-146 -225 -245 -282q-14 -9 -27 -16
q-83 -42 -118.5 -45t-47.5 -3zM1156 1243q0 74 -36 101q-13 9 -33 9q-27 0 -42 -17q-7 -9 -7 -20q0 -28 62 -53z" />
    <glyph glyph-name="uniE21E" unicode="fr" horiz-adv-x="2132" 
d="M196 890q172 140 293 266q142 149 244 333q85 158 98 243.5t13 126.5q0 133 -71 186q-27 20 -63 20q-104 0 -219 -166q-96 -151 -171.5 -420.5t-123.5 -588.5zM238 -664q-106 0 -191 116q-43 60 -72 148q-52 174 -52 477q0 339 54 734q48 352 130 657t190 475
q90 127 213 175q92 35 166 35q86 0 145 -44q52 -38 79 -110q24 -61 24 -142q0 -183 -121 -406q-106 -193 -256 -350q-147 -153 -368 -328q-16 -120 -27 -238q49 -6 103 -6q184 0 424 66q181 51 320 139q65 42 108.5 90t84.5 112q83 126 117 237l-41 15q-115 46 -115 127
q0 40 25 70q38 49 108 49q28 0 51 -10q73 -34 73 -141q0 -27 -5 -58q77 -23 137 -37l3 -1q89 -21 164 -46q23 -9 27 -32q7 -56 12 -133q5 -132 42 -359q3 -21 16.5 -46.5t37.5 -28.5h5q98 0 279 279q12 18 35 18q10 0 20 -6q19 -12 19 -34q0 -11 -6 -21q-101 -157 -180 -230
q-72 -69 -166 -100q-53 -17 -94 -17q-42 0 -72 18q-55 34 -74.5 96.5t-28.5 141.5q-26 214 -28 350q-1 36 -3 66q-13 4 -27 7q-60 14 -138 37q-36 -114 -116 -241q-46 -73 -95.5 -129t-120.5 -104q-153 -99 -352 -155q-226 -64 -424 -69q72 -71 120 -190q69 -163 69 -407
q0 -64 -5 -134q-21 -232 -78 -309q-32 -47 -91 -65q-27 -8 -54 -8zM293 -565q12 0 24 19q45 61 63 271q5 69 5 131q0 225 -62 373q-69 167 -179 218q-15 -195 -15 -364q0 -303 49 -458q46 -137 94 -179q13 -11 21 -11zM1327 1251q3 19 3 34q0 53 -25 65q-8 4 -20 4
q-30 0 -44 -18q-7 -9 -7 -20q0 -28 62 -53z" />
    <glyph glyph-name=".notdef" horiz-adv-x="1024" 
d="M100 0v1434h824v-1434h-824zM150 50q353 159 724 0v1334q-384 -118 -724 0v-1334zM419 334l57 58q11 10 20 10q10 0 22 -11l56 -60q9 -11 9 -20q0 -11 -10 -22l-56 -62q-14 -14 -21 -14q-11 0 -20 10l-61 71q-7 9 -7 18q0 10 11 22zM359 1154q27 22 54 37q53 30 112 30
q92 0 148 -47.5t56 -127.5q0 -49 -23 -98.5t-87 -129.5q-63 -80 -99 -132t-36 -99q0 -38 24 -133h-32q-35 97 -35 148q0 76 81.5 218t81.5 217q0 57 -33 90t-91 33q-8 0 -16 -1l32 -51q7 -12 5 -21q-2 -11 -14 -20l-66 -50q-17 -11 -24 -10q-10 2 -17 14l-47 81q-5 10 -3 19
q1 10 29 33z" />
    <glyph glyph-name="uni0000" horiz-adv-x="0" 
 />
    <glyph glyph-name="uni0000" horiz-adv-x="0" 
 />
    <glyph glyph-name="nonmarkingreturn" horiz-adv-x="508" 
 />
    <glyph glyph-name="space" unicode=" " horiz-adv-x="695" 
 />
    <glyph glyph-name="space" unicode="&#xa0;" horiz-adv-x="695" 
 />
    <glyph glyph-name="exclam" unicode="!" horiz-adv-x="521" 
d="M134 407q-23 0 -37.5 14.5t-14.5 34.5l1 3q13 319 128 1370q44 398 60 574q2 21 16.5 34t34.5 13q22 0 37 -17q13 -15 13 -35q0 -41 -60 -580q-115 -1051 -128 -1362q-1 -22 -15.5 -35.5t-34.5 -13.5zM114 152q-64 18 -64 78q0 26 17 48q20 29 57 29q11 0 24 -3
q59 -18 59 -72q0 -26 -16 -47q-23 -33 -67 -33h-10z" />
    <glyph glyph-name="quotedbl" unicode="&#x22;" horiz-adv-x="510" 
d="M262 1879q-31 0 -44 24q-8 15 -8 26q0 9 51 167q13 35 48 35q8 0 16 -3q36 -12 36 -48q0 -9 -52 -166q-12 -35 -47 -35zM100 1886q-7 0 -15 2q-35 13 -35 48q0 9 51 167q13 35 48 35q8 0 16 -3q36 -12 36 -47q0 -9 -52 -167q-12 -35 -49 -35z" />
    <glyph glyph-name="numbersign" unicode="#" horiz-adv-x="1337" 
d="M835 673q-23 0 -36.5 15.5t-13.5 34.5l27 322l-40 -4q-166 -13 -329 -27q-23 -136 -31 -208q-2 -22 -16.5 -34t-33.5 -12q-25 0 -38 15.5t-13 33.5q0 38 27 196q-176 -15 -229 -22l-9 -1q-17 0 -29 10q-21 15 -21 42q0 16 10 29q12 16 34 20q61 8 262 26q19 112 42 237
l14 82q-144 6 -239 6h-44q-21 0 -36 13.5t-16 35.5q0 21 14 36t35 16l61 1q99 0 243 -7q36 201 56 344q4 22 18.5 33t32.5 11q24 0 39 -19q11 -15 11 -32q0 -31 -55 -342l318 -15l19 225q2 21 16.5 33.5t31.5 12.5q26 0 39.5 -16t13.5 -35l-18 -223l56 -1q64 0 101 4h5
q18 0 32 -10q19 -16 19 -40q0 -18 -11.5 -33t-32.5 -18q-40 -4 -106 -4l-72 1l-20 -249q175 14 206 18l8 1q16 0 29 -10q20 -16 20 -42q0 -16 -9 -29q-12 -17 -34 -20q-37 -5 -229 -21l-27 -334q-2 -21 -17 -33.5t-35 -12.5zM820 1147l21 261l-327 15l-54 -305z" />
    <glyph glyph-name="dollar" unicode="$" horiz-adv-x="765" 
d="M280 501q-24 0 -39 17q-12 15 -12 32l15 167q-24 5 -46 14q-148 57 -148 197q0 55 25 124q13 32 47 32q10 0 19 -3q33 -15 33 -48q0 -9 -4 -18q-16 -44 -16 -78q0 -26 9 -46q25 -52 91 -72l40 412q-106 122 -135 206t-29 140q0 27 5 52q27 129 150 181q32 12 66 17
l18 184q3 21 18 33.5t34 12.5q23 0 36 -16.5t13 -36.5l-18 -184q96 -26 137 -108q27 -55 27 -120q0 -21 -3 -43t-17.5 -34t-34.5 -12q-22 0 -35.5 17t-13.5 36v3q2 16 2 31q0 88 -59 120q-6 4 -13 6l-43 -450q17 -18 36 -36q149 -149 158 -214.5t9 -83.5q0 -85 -58 -140
q-77 -76 -199 -83l-15 -162q-3 -22 -17.5 -34t-32.5 -12zM341 1722l-18 -7q-69 -26 -89 -105q-4 -16 -4 -35q0 -80 78 -199zM365 813q66 10 107 50q28 26 28 68q0 85 -114 204l-31 -323z" />
    <glyph glyph-name="percent" unicode="%" horiz-adv-x="909" 
d="M246 497q-31 0 -44 23q-7 15 -7 27q0 8 417 1313l-276 -69q29 -48 29 -106q0 -91 -57 -145q-31 -30 -80 -38l-13 -2h-13q-109 4 -143 110q-9 31 -9 65q0 42 14 79q16 46 52 76.5t90 32.5l470 118l12 1q31 0 44 -23q8 -15 8 -27q0 -9 -446 -1400q-12 -35 -48 -35z
M214 1602q32 7 43 42q6 18 6 38q0 27 -9 46q-12 29 -42 33q-39 0 -53 -42q-7 -20 -8 -40q0 -72 52 -78zM598 729q58 3 60 77q0 20 -5 39q-12 39 -49 44q-37 -3 -51 -43q-7 -19 -7 -40q-1 -20 5 -38q10 -36 47 -39zM597 627q-58 2 -93 33q-60 51 -60 144q0 40 14 77
q17 48 54.5 78.5t92.5 30.5q56 0 95 -35q59 -54 59 -145q0 -99 -67 -152q-38 -30 -95 -31z" />
    <glyph glyph-name="ampersand" unicode="&#x26;" horiz-adv-x="1229" 
d="M1038 423q-13 0 -24 8q-138 112 -262 266q-27 -27 -50 -46q-207 -171 -393 -171q-30 0 -60 5q-80 15 -132 65q-67 65 -67 168q0 168 176 362q74 81 156 191q-89 200 -89 346t55 235q84 136 224 136q79 0 146 -39q92 -58 100 -191l1 -10q0 -60 -36 -152
q-73 -185 -257 -427q93 -166 230 -348q69 83 100 155q9 25 36 25q8 0 16 -3q25 -11 25 -36q0 -8 -3 -16q-39 -89 -123 -189q122 -153 257 -263q15 -13 15 -32q0 -13 -9.5 -25t-19 -13t-12.5 -1zM342 562q24 0 53 8q76 23 148 67.5t108 75.5q22 19 50 47v1q-134 176 -229 340
q-41 -51 -80 -93q-162 -179 -162 -317q0 -67 44 -107q28 -22 68 -22zM437 1347q200 291 214 440q-9 120 -94 120q-24 0 -49 -11q-52 -21 -91 -85q-43 -70 -43.5 -129t-0.5 -61q0 -114 64 -274z" />
    <glyph glyph-name="quotesingle" unicode="'" horiz-adv-x="361" 
d="M101 1856q-31 0 -44 24q-7 15 -7 26q0 9 63 205q12 34 48 34q32 0 44 -23q7 -15 7 -27q0 -9 -64 -204q-12 -35 -47 -35z" />
    <glyph glyph-name="parenleft" unicode="(" horiz-adv-x="555" 
d="M329 484q-154 0 -224 205q-55 164 -55 433q0 322 71 630q43 186 100.5 306t120.5 130h3q20 0 34 -12q19 -14 19 -37q0 -19 -12 -34.5t-34 -17.5q-38 -7 -76 -113t-68.5 -272t-45.5 -353q-10 -122 -10 -236q0 -242 49 -391q46 -136 130 -136l22 1q18 0 32 -10
q20 -15 20 -42q0 -16 -11 -30.5t-32 -18.5q-17 -2 -33 -2z" />
    <glyph glyph-name="parenright" unicode=")" horiz-adv-x="571" 
d="M149 424q-19 0 -32 11q-19 16 -19 40q0 18 12 32.5t33 17.5q37 7 71.5 120t61.5 291q44 299 44 581q0 320 -59 510q-52 164 -141 164l-20 -2q-17 0 -30 10q-20 15 -20 40q0 17 11 32.5t32 18.5q17 2 33 2q157 0 232 -234q63 -203 63 -540q0 -327 -58 -631
q-38 -199 -92.5 -326t-116.5 -137h-5z" />
    <glyph glyph-name="asterisk" unicode="*" horiz-adv-x="593" 
d="M252 1886q-20 0 -35 12t-18 34l-3 34q-13 -9 -26 -19t-29 -10q-25 0 -41 21q-10 15 -10 31q0 24 20 40l19 14l-45 15q-34 12 -34 48q0 8 2 16q14 34 49 34q9 0 78 -23l-5 58q0 17 11 31q15 18 40 18q18 0 32.5 -12t17 -33t4.5 -43q17 13 32.5 24t30.5 11q26 0 41 -21
q10 -14 10 -29q0 -26 -21 -42l-26 -19q32 -11 65 -22.5t33 -47.5q0 -31 -25 -43q-14 -7 -26 -7q-10 0 -97 30l5 -50q0 -18 -12.5 -32.5t-33.5 -17.5h-3z" />
    <glyph glyph-name="plus" unicode="+" horiz-adv-x="765" 
d="M337 991q-22 1 -36.5 15t-14.5 36l-1 186l-100 1q-46 0 -83 -1h-3q-19 0 -34 14t-15 37q0 20 13 34t35 16q38 1 84 1l103 -1l-1 168q0 21 14.5 35.5t35.5 15.5q22 -1 36 -15t15 -36l1 -170l79 -1q54 0 97 2h3q20 0 35 -14t15 -37q0 -20 -13 -34.5t-35 -15.5
q-44 -2 -100 -2l-81 1l1 -184q0 -21 -14.5 -35.5t-35.5 -15.5z" />
    <glyph glyph-name="comma" unicode="," horiz-adv-x="351" 
d="M100 487q-22 0 -38 18q-12 16 -12 34q0 21 19.5 37.5t24.5 34t5 59.5l1 18q1 21 16 35t36 14q22 -2 35.5 -16.5t13.5 -36.5l-1 -18q0 -68 -10.5 -99t-55.5 -68q-16 -12 -34 -12z" />
    <glyph glyph-name="hyphen" unicode="-" horiz-adv-x="785" 
d="M161 1215q-47 0 -71 3q-40 10 -40 49q0 28 21 42q14 9 29 9q5 0 12.5 -1t30.5 -1q62 0 130 3q164 9 306 24q24 0 37 -11q19 -15 19 -37q0 -20 -12 -35t-33 -18q-261 -27 -429 -27z" />
    <glyph glyph-name="hyphen" unicode="&#xad;" horiz-adv-x="785" 
d="M161 1215q-47 0 -71 3q-40 10 -40 49q0 28 21 42q14 9 29 9q5 0 12.5 -1t30.5 -1q62 0 130 3q164 9 306 24q24 0 37 -11q19 -15 19 -37q0 -20 -12 -35t-33 -18q-261 -27 -429 -27z" />
    <glyph glyph-name="period" unicode="." horiz-adv-x="384" 
d="M126 537q-76 19 -76 85q0 29 17 52q25 38 76 38l19 -1q72 -18 72 -86q0 -27 -16 -51q-25 -38 -77 -38z" />
    <glyph glyph-name="slash" unicode="/" horiz-adv-x="853" 
d="M101 334q-17 0 -31 10q-17 14 -18.5 26t-1.5 15q0 16 11 30q50 70 245 655q180 538 297 974q10 38 48 38q29 0 42 -22q9 -14 9 -27q0 -7 -1 -14q-117 -440 -299 -981q-88 -265 -159.5 -454t-101.5 -231q-17 -19 -40 -19z" />
    <glyph glyph-name="zero" unicode="0" horiz-adv-x="949" 
d="M430 429q-13 0 -26 2h-2q-165 28 -250 180q-102 184 -102 474q0 132 23 266q32 189 103 337q65 136 145.5 196t160.5 60q29 0 62 -7q122 -19 183 -168q72 -173 72 -448q0 -313 -85 -574q-50 -153 -123 -235.5t-161 -82.5zM429 509q60 0 111 65q118 152 163 501
q16 125 16 247q0 238 -54 394q-44 127 -129 141h-9q-24 0 -50 -9q-67 -29 -128 -179q-88 -217 -117 -511q-8 -87 -8 -170q0 -196 47 -326q38 -109 114 -143q23 -10 44 -10z" />
    <glyph glyph-name="one" unicode="1" horiz-adv-x="640" 
d="M264 442q-102 0 -102 51q16 316 92 954q26 217 42 374q-48 -41 -93 -83t-87 -77q-12 -9 -25 -9q-20 0 -30.5 13t-10.5 27q0 17 15 31q41 34 83 74q101 98 208 171q77 55 94 55q22 0 33 -18q7 -11 7 -22q0 -40 -49 -468q-30 -267 -58.5 -546t-36.5 -483q-3 -29 -30 -38
q-26 -6 -52 -6z" />
    <glyph glyph-name="two" unicode="2" horiz-adv-x="1100" 
d="M90 397q-13 0 -26.5 11.5t-13.5 28.5q0 14 9 26q514 629 514 1091q0 96 -34 182q-29 72 -66 72q-21 0 -46 -28q-61 -75 -103 -237q-9 -30 -38 -30q-24 0 -34 17q-7 12 -7 22l1 10q61 241 182 329q12 12 43 25q40 16 76 16q63 0 118 -47q79 -69 105 -225q8 -46 8 -100
q0 -257 -157 -583q-104 -216 -298 -466l587 81q13 0 24 -8q16 -11 16 -32q0 -13 -9 -25t-25 -14z" />
    <glyph glyph-name="three" unicode="3" horiz-adv-x="957" 
d="M354 448q-123 0 -279 61q-25 12 -25 37q0 7 3 15q11 26 38 26q8 0 15 -3q102 -44 195 -44q39 0 77 8q125 27 199 186q39 93 39 198q0 83 -24 156q-21 63 -57 104.5t-84 49.5q-59 -8 -131 -44q-10 -5 -20 -5q-23 0 -35 19q-5 10 -5 20q0 23 19 35q44 27 82 56
q67 68 102 146q47 108 47 205q0 176 -62 176q-27 0 -71 -33q-54 -41 -116 -121q-13 -16 -31 -16q-13 0 -25.5 9.5t-14 19.5t-1.5 13q0 12 8 23q160 203 299 203q90 0 141 -77q40 -59 40 -148q0 -99 -50 -204q-46 -98 -140 -193q112 0 187 -63q68 -56 100.5 -142.5
t32.5 -184.5q0 -101 -38 -201q-37 -95 -110 -167q-90 -91 -179.5 -105.5t-125.5 -14.5z" />
    <glyph glyph-name="four" unicode="4" horiz-adv-x="1012" 
d="M644 437q-17 1 -27.5 12.5t-10.5 26.5l30 624q-235 -33 -239 -33q-164 -21 -301 -42l-7 -1q-13 0 -23 8q-16 11 -16 32q0 13 7 24q40 59 135 425q86 333 110 344q11 6 20 6q7 0 14 -3q27 -10 27 -36q0 -7 -3 -15q-40 -122 -91 -317q-58 -227 -111 -377l228 32
q132 17 254 35l35 727q1 15 11 25.5t25 12.5q105 10 112 10q17 -1 27.5 -12.5t10.5 -26.5l-34 -707q27 -4 34 -32l1 -8q0 -12 -7 -22q-9 -15 -32 -18l-31 -642q-1 -15 -11.5 -25.5t-25.5 -12.5z" />
    <glyph glyph-name="five" unicode="5" horiz-adv-x="982" 
d="M349 505q-108 0 -232 79q-18 12 -18 35q0 10 6 20q13 19 34 19q11 0 22 -7q88 -56 145 -56q43 0 84 26q99 62 169 193q83 157 83 314q0 82 -29 143q-28 56 -51.5 65t-39.5 9q-25 0 -55 -12q-101 -38 -243 -144q-8 -6 -17 -8q-36 -8 -68 -8l-33 1q-13 0 -18 1
q-17 1 -27.5 12.5t-10.5 30.5l48 654q2 17 13.5 27t26.5 10q92 -2 622 -2q17 0 29 -12t12 -28q0 -17 -12 -29t-29 -12h-475l-39 -523q203 134 269 134.5t69 0.5q124 0 186 -88t62 -216q0 -37 -5 -77q-21 -173 -119 -328q-64 -99 -153.5 -160.5t-146.5 -62.5t-59 -1z" />
    <glyph glyph-name="six" unicode="6" horiz-adv-x="1024" 
d="M473 446q-148 0 -250 69q-33 23 -61 56q-112 126 -112 353q0 65 9 138q28 230 130 475q89 212 236 378q13 14 30 14t54.5 -19t51.5 -32.5t14 -31.5q0 -14 -10 -26q-132 -156 -210 -344q-84 -204 -112 -402q50 55 104 87q85 50 174 50q79 0 147 -37q76 -42 124 -120
q81 -139 81.5 -197t0.5 -60q0 -112 -55 -192q-106 -159 -346 -159zM484 540q94 0 166 109q41 61 41 148q0 96 -70 216q-28 45 -67 74q-47 35 -82 35q-36 0 -84 -30q-85 -49 -156 -172q3 -130 41 -214t97.5 -125t113.5 -41z" />
    <glyph glyph-name="seven" unicode="7" horiz-adv-x="1095" 
d="M379 422q-104 0 -104 54q0 9 4 21q93 345 216 710l-257 -7q-17 0 -28.5 11.5t-12.5 28.5q0 17 11 28.5t28 12.5l285 7q102 304 170 545l-601 -35q-15 0 -26.5 10t-13.5 27q0 17 10.5 29t27.5 14l651 38q2 1 124 8q17 0 29.5 -11.5t12.5 -30.5l-1 -8q-66 -250 -177 -581
l177 4q17 0 28.5 -11t12.5 -28q0 -17 -11 -28.5t-28 -12.5l-205 -5q-133 -392 -231 -758q-3 -13 -15 -22.5t-76 -9.5z" />
    <glyph glyph-name="eight" unicode="8" horiz-adv-x="924" 
d="M482 1271q40 14 73.5 47.5t59 107.5t41.5 211q2 22 2 41q0 52 -15 88q-38 94 -145 94q-77 0 -142 -49q-93 -67 -93 -188q0 -38 10 -80q28 -102 84.5 -165t124.5 -107zM391 523q30 0 61 5h1q41 12 74 55q64 83 64 235q0 138 -90 221q-43 39 -133 99q-91 -53 -171 -187
q-62 -107 -64 -151.5t-2 -52.5q0 -70 33 -119q44 -62 122 -88q52 -17 105 -17zM391 442q-67 0 -131 22q-102 34 -163 120q-47 68 -47 166q0 105 77 242q88 144 169 196q-66 47 -119.5 115t-81.5 176q-10 35 -10 80q0 125 91 227q114 125 244 144q36 11 78 11
q69 0 127.5 -34.5t86 -95t27.5 -133.5q0 -24 -3 -50q-24 -202 -69 -291t-107 -119q71 -45 126 -103t71.5 -124t16.5 -117q0 -231 -122 -337q-109 -95 -261 -95z" />
    <glyph glyph-name="nine" unicode="9" horiz-adv-x="954" 
d="M331 1355q22 0 61 48q74 92 176 318q-113 118 -167 118q-27 0 -46 -24q-34 -41 -49.5 -107t-18.5 -110q-3 -34 -3 -98q0 -48 8 -89q8 -46 21.5 -51t17.5 -5zM355 399q-48 0 -109 15q-104 24 -159 145q-31 67 -37 164v3q0 15 10.5 26.5t27.5 12.5q17 0 29 -10.5t13 -27.5
q12 -156 86 -211q34 -27 74 -27q32 0 65 18q87 47 128 220l105 852q-114 -217 -192 -279.5t-130 -62.5q-22 0 -41 9q-61 27 -93 111t-32 193q0 97 28.5 190t88.5 150q53 51 127 51q114 0 259 -141l20 49q6 14 18 20q23 13 48 13q24 0 53 -5h2q12 -2 25 -3q17 -2 26 -13.5
t9 -24.5v-7l-138 -1119l-10 -43q-43 -154 -141 -221q-69 -47 -160 -47z" />
    <glyph glyph-name="colon" unicode=":" horiz-adv-x="384" 
d="M126 1263q-76 19 -76 85q0 28 18 52q25 38 76 38l19 -1q72 -18 72 -86q0 -27 -16 -51q-25 -38 -77 -38zM126 878q-76 19 -76 84q0 28 18 53q25 38 76 38l19 -1q72 -20 72 -87q0 -26 -16 -50q-25 -38 -76 -38z" />
    <glyph glyph-name="semicolon" unicode=";" horiz-adv-x="386" 
d="M144 1282q-7 0 -16 2q-76 19 -76 84q0 28 17 53q27 38 77 38l18 -1q73 -20 73 -87q0 -26 -16 -50q-24 -39 -77 -39zM99 805q-21 0 -37 18q-12 15 -12 32q0 23 18 40q21 16 26 33.5t5 59.5l1 18q1 21 15.5 35t36.5 14q21 -1 35 -16t14 -36l-1 -18q0 -69 -10.5 -100
t-56.5 -68q-15 -12 -34 -12z" />
    <glyph glyph-name="semicolon" unicode="&#x37e;" horiz-adv-x="386" 
d="M144 1282q-7 0 -16 2q-76 19 -76 84q0 28 17 53q27 38 77 38l18 -1q73 -20 73 -87q0 -26 -16 -50q-24 -39 -77 -39zM99 805q-21 0 -37 18q-12 15 -12 32q0 23 18 40q21 16 26 33.5t5 59.5l1 18q1 21 15.5 35t36.5 14q21 -1 35 -16t14 -36l-1 -18q0 -69 -10.5 -100
t-56.5 -68q-15 -12 -34 -12z" />
    <glyph glyph-name="less" unicode="&#x3c;" horiz-adv-x="592" 
d="M391 914q-33 0 -160 93q-88 66 -162 131q-19 16 -19 39q0 26 22 42q67 48 129 102q76 65 150 116q14 8 28 8q26 0 43 -23q8 -13 8 -27q0 -28 -23 -43q-70 -48 -141 -109q-42 -35 -84 -68q53 -45 109 -86q79 -58 121 -78q30 -15 30 -46q0 -11 -5 -22q-14 -29 -46 -29z" />
    <glyph glyph-name="equal" unicode="=" horiz-adv-x="682" 
d="M121 1222q-21 1 -35.5 15.5t-14.5 35.5q1 22 15 36t36 15l309 -2q22 -1 36 -15t15 -36q-1 -21 -15.5 -35.5t-35.5 -14.5zM99 1032q-20 0 -34.5 14t-14.5 37q0 20 13.5 34.5t34.5 15.5q85 3 185 3q168 3 190 6l9 1q41 0 49 -42l1 -10q0 -15 -9 -28q-12 -17 -34 -20.5
t-78 -5t-127 -2.5q-97 -1 -182 -3h-3z" />
    <glyph glyph-name="greater" unicode="&#x3e;" horiz-adv-x="592" 
d="M100 914q-26 0 -42 23q-8 14 -8 28q0 26 24 42q143 91 235 167l-45 32q-95 72 -185 127q-25 16 -25 43q0 14 7 27q15 25 44 25q32 0 219 -140q46 -34 96 -69q22 -15 22 -40q0 -22 -19 -41q-123 -110 -295 -216q-14 -8 -28 -8z" />
    <glyph glyph-name="question" unicode="?" horiz-adv-x="819" 
d="M276 500q-17 0 -29 10q-17 12 -21 33q-7 43 -7 84q0 53 11 103q25 112 70 192q197 382 232.5 577.5t35.5 294.5q0 106 -26 179q-48 138 -140 138q-84 0 -163 -115q-54 -80 -89 -218q-11 -39 -48 -39q-30 0 -43 22q-9 14 -9 27q0 7 2 14q42 163 112 261q107 150 240 150
q53 0 104 -29q85 -50 130 -179q30 -85 30 -207q0 -105 -22 -236q-48 -284 -257 -687q-38 -69 -59 -165q-9 -42 -9 -86q0 -31 5 -64v-9q0 -16 -8 -29q-16 -22 -42 -22zM296 244q-63 17 -63 78q0 25 16 48q20 29 58 29q11 0 24 -3q58 -18 58 -72q0 -25 -15 -47
q-23 -34 -68 -34z" />
    <glyph glyph-name="at" unicode="@" horiz-adv-x="1288" 
d="M609 555q-121 0 -244 47q-124 51 -196 137q-119 145 -119 347q0 142 53 275q63 158 175 257q134 112 246.5 138t183.5 26q188 0 313 -108q78 -66 106 -165q12 -41 12 -86q0 -164 -146 -345q-85 -112 -184 -112q-49 0 -84 22t-55 58l-3 6q-88 -124 -169 -124q-9 0 -19 2
q-43 10 -70 43q-40 53 -43 110l-1 26q0 123 82 203q41 42 92 64q58 27 118 27q68 0 110 -40q12 -12 12 -21v-9q0 -15 -11.5 -26.5t-27.5 -11.5t-29 11q-18 16 -55 16h-13q-42 -12 -71 -66.5t-29 -124.5q0 -72 21 -72q8 0 21 17q37 47 83 137q18 45 102 45q67 -2 67 -46
q0 -8 -3 -17q-10 -24 -10 -45q0 -65 17.5 -69t20.5 -4q29 0 67 48l2 3q86 106 107 177.5t21 117.5q0 113 -90 190q-103 89 -262 89q-204 0 -377 -145q-97 -86 -152 -225q-48 -120 -48 -246q0 -174 99 -295q61 -72 166 -114q116 -43 217 -43q51 0 97 11q169 35 300 155
q12 10 27 10q17 0 28.5 -12.5t11.5 -26.5q0 -18 -14 -31q-148 -133 -337 -174q-55 -11 -116 -11z" />
    <glyph glyph-name="A" unicode="A" horiz-adv-x="1608" 
d="M286 -59q-17 1 -28 12.5t-11 28.5q13 419 84 848q-287 -45 -291 -45q-31 0 -40 33v6q0 13 8.5 25t25.5 15l312 50q114 620 357 943q134 177 325 244q11 3 36 3q174 0 240 -368q48 -286 52 -661l141 23h6q34 0 40 -34l1 -6q0 -13 -8 -23q-10 -13 -26 -17l-153 -24
q-1 -413 -14 -733q-6 -165 -7 -261q0 -16 -9 -28t-25 -15q-6 0 -7.5 -0.5t-47.5 -9.5q-27 -4 -48 -4q-51 0 -53 47q2 88 7 213v6q14 331 14 755l-753 -120q-71 -426 -87 -865q-1 -17 -12.5 -27.5t-28.5 -10.5zM1165 1045q-5 479 -81 758q-23 85 -56 125t-63 40
q-27 0 -60 -22q-209 -160 -347 -539q-80 -228 -128 -479z" />
    <glyph glyph-name="B" unicode="B" horiz-adv-x="1677" 
d="M520 -70q-48 0 -93 9q-4 2 -21 4q-111 26 -195.5 92t-137.5 160q-73 132 -73 279q0 283 240 483q53 777 103 1057q4 31 35 35l65 4l39 1q56 0 56 -40l-1 -8q-12 -66 -23 -158q98 157 210 223q37 28 101 46q50 13 94 13q92 0 156 -57q68 -61 68 -160q0 -131 -125 -280
q-86 -104 -248 -214q75 10 143 10q126 0 229 -35q164 -56 255 -179q95 -129 95 -302q0 -292 -266 -589q-226 -245 -402.5 -319.5t-303.5 -74.5zM465 1337q99 49 179 97l2 1q139 92 213 186q103 128 103 239q0 83 -57 122q-41 27 -82 27q-57 0 -110 -44q-142 -118 -227 -377
q-11 -121 -21 -251zM480 20q49 0 97 14q199 57 402 262l21 21q127 125 199 257q101 181 101 350q0 96 -35 176q-51 117 -172 180q-101 53 -249 53q-80 0 -173 -15q-102 -26 -214 -73l-12 -169q90 38 201 63l8 1q12 0 22 -7q19 -11 19 -33q0 -12 -7 -22q-8 -14 -25 -18
q-127 -28 -225 -75q-22 -327 -35 -542q0 -38 -30 -46q-21 -5 -84 -7h-32q-51 1 -51 46l26 406q-152 -160 -152 -367q0 -128 63 -240q71 -126 203 -188q67 -27 134 -27z" />
    <glyph glyph-name="C" unicode="C" horiz-adv-x="1466" 
d="M388 60q-181 0 -275 124q-113 148 -113 412q0 267 100 579q113 353 317 634q150 203 313 296q69 38 135 38q116 0 188 -122q75 -126 87 -437q0 -17 -11 -29t-28 -13q-17 0 -28.5 11t-12.5 28q-11 291 -77 401q-33 58 -51.5 59.5t-20.5 1.5q-54 0 -144 -81
q-91 -89 -165 -195q-138 -186 -233.5 -412.5t-138.5 -450.5q-28 -147 -28 -273q0 -345 185 -439q54 -24 110 -24q25 0 51 5q82 16 159.5 58.5t144.5 87.5q6 3 11 7q251 160 598 493q13 11 29 11t27.5 -12.5t11.5 -28.5t-12 -28q-711 -681 -1098 -700z" />
    <glyph glyph-name="D" unicode="D" horiz-adv-x="1561" 
d="M475 36q-34 0 -94 10q-85 14 -156 50q-115 58 -176 159q-49 80 -49 177q0 167 157 336q10 216 18 445q14 421 36 757q2 26 27 37q41 14 103 14l24 -1q17 -1 28 -12.5t11 -28.5l-1 -5q-5 -39 -9 -82q231 198 443 198q67 0 129 -21q173 -60 282 -240q107 -174 140 -413
q12 -92 12 -187q0 -386 -186 -706q-122 -210 -336 -357q-199 -130 -403 -130zM450 121q127 0 269 100q203 140 319 342q174 304 174 668q0 147 -32 284q-57 242 -199 375q-75 70 -135.5 84t-91.5 14q-155 0 -370 -215q-20 -316 -27 -678q-2 -86 -5 -170q89 58 204 112
q9 4 18 4q24 0 35 -23q4 -9 4 -18q0 -24 -23 -35q-142 -68 -241 -138q-11 -387 -30 -406q-10 -11 -25 -12q-33 -3 -67 -3l-49 -1q-19 0 -29.5 12.5t-10.5 27.5v3q7 88 12 186q-70 -103 -70 -201q0 -75 38 -137q81 -134 268 -170q32 -5 64 -5z" />
    <glyph glyph-name="E" unicode="E" horiz-adv-x="1356" 
d="M372 127q-203 0 -301 137q-71 101 -71 246q0 213 148 456q127 208 373 401q14 13 29 25q-85 -8 -155 -8q-127 0 -200 26q-125 46 -125 143q0 92 89 202q99 122 253 230q128 90 258.5 144.5t228.5 54.5q36 0 70 -12q75 -26 88 -79.5t13 -81.5q0 -76 -42 -191
q-9 -26 -38 -26q-26 0 -35 20q-5 12 -5 21q0 6 2 13q37 101 37 159q0 74 -48 90q-14 5 -29 7q-130 -10 -288 -109t-262 -228q-75 -96 -75 -164q0 -76 114 -106q69 -18 180 -18q28 0 132 16l8 1q12 0 22 -8q18 -12 18 -30q0 -24 -21 -37q-90 -55 -166 -114
q-190 -170 -288 -345q-110 -198 -110 -371q0 -95 35 -167q41 -86 130 -125q59 -25 136 -25q48 0 102 9q96 17 167 49.5t147 85.5q208 142 461 400q12 12 28 12t28.5 -11.5t12.5 -27.5t-12 -29q-252 -260 -465 -405q-86 -59 -177 -108q-232 -122 -397 -122z" />
    <glyph glyph-name="F" unicode="F" horiz-adv-x="1414" 
d="M321 -9q-30 0 -39 30q-20 95 -20 309q0 273 25 667q-46 -7 -50 -7q-33 0 -41 33v6q0 13 8.5 25t24.5 15l64 11q38 521 91 857q-218 -83 -314 -189q-12 -14 -30 -14q-14 0 -26.5 10.5t-13 19.5t-0.5 12q0 13 9 24q109 120 353 211q108 42 221 72q363 97 692 100
q379 0 441 -153q10 -23 10 -49q0 -75 -79 -174q-11 -13 -20 -13.5t-12 -0.5q-13 0 -25.5 10t-13 19t-0.5 12q0 13 9 25q61 74 61 120q0 63 -114 95q-103 29 -257 29q-340 -4 -707 -105q-56 -330 -97 -888l742 124q12 0 22 -8q17 -12 17 -34q0 -12 -7 -22q-10 -13 -27 -16
l-753 -127q-26 -426 -26 -562v-124q0 -203 21 -280q3 -8 3 -15q0 -31 -44 -44q-38 -12 -74 -12z" />
    <glyph glyph-name="G" unicode="G" horiz-adv-x="1431" 
d="M999 -41q-17 0 -28 11.5t-11 29.5l19 679q-49 -110 -112 -218q-151 -255 -286 -359q-96 -72 -213 -101q-32 -7 -62 -7h-13q-140 11 -210 146q-83 157 -83 445q0 220 45 463q60 316 167 540q82 163 196.5 290t238.5 196q115 65 218 65q115 0 195 -88q88 -95 107 -317v-3
q0 -15 -9 -26q-13 -14 -31 -14q-15 0 -26.5 10t-13.5 27q-24 282 -170 323q-19 5 -39 5q-37 0 -76 -17q-108 -48 -194 -155q-91 -111 -206 -333q-86 -169 -139 -415q-59 -277 -59 -535q0 -189 39.5 -327t124.5 -166q16 -4 31 -4q52 0 126 56q127 94 273 341q127 216 172 397
q-315 -52 -319 -52q-13 0 -24 7q-16 12 -16 34q0 12 8 23.5t25 14.5l491 81q26 0 38 -24q4 -8 4 -17q0 -5 -2 -11l-28 -965q-9 -33 -41 -33z" />
    <glyph glyph-name="H" unicode="H" horiz-adv-x="1827" 
d="M1368 -13q-17 0 -28.5 11t-12.5 29q5 471 55 1059q-440 -67 -705 -199q-93 -430 -194 -605q-109 -171 -260 -171q-34 0 -66 12q-80 23 -93 139l-1 23q0 126 91 274q110 174 330 313l13 59q86 412 112 870q2 18 2 36q0 63 -20 106q-13 28 -33 28q-19 0 -72 -34
q-146 -106 -411 -571q-12 -20 -34 -20q-11 0 -21 5q-20 13 -20 35q0 10 5 20q288 501 447 605q66 44 135 57q25 5 46 5q52 0 85 -27q83 -65 83 -219l-1 -18q-25 -430 -103 -825q269 122 692 184q15 184 30 351q37 415 45 603q1 16 12.5 27.5t28.5 11.5q36 3 71 3t48 -3
q25 -6 30 -31q1 -4 1 -9q0 -90 -46 -597v-10q-14 -155 -28 -324q68 6 140 10q17 0 29.5 -11t12.5 -30q0 -15 -10.5 -26.5t-27.5 -12.5q-78 -5 -151 -11q-56 -704 -56 -1075q0 -15 -8.5 -26.5t-22.5 -14.5t-40 -4t-52 -1q-14 0 -27 -1zM189 200q46 4 115 112q77 131 154 446
q-162 -121 -236 -242q-78 -132 -78 -223l1 -24q7 -69 43 -69h1z" />
    <glyph glyph-name="I" unicode="I" horiz-adv-x="783" 
d="M358 90q-49 0 -60 36q-2 5 -2 13q1 28 5 56l149 1589q4 52 4 93q0 116 -33 150q-11 12 -26 12q-17 0 -42 -16q-50 -42 -98 -103q-68 -99 -117.5 -252.5t-57.5 -346.5q-1 -17 -12.5 -28t-28.5 -11q-17 1 -28 12.5t-11 28.5q8 205 61.5 369.5t126.5 271.5q33 49 95 106
q55 51 108 75.5t93 24.5q22 0 43 -6h2q116 -34 116 -250q0 -42 -4 -90l-75 -788q-77 -842 -77 -861l1 -32q0 -53 -132 -53z" />
    <glyph glyph-name="J" unicode="J" horiz-adv-x="1457" 
d="M200 -9q-3 0 -5 1q-85 3 -132 41q-63 55 -63 150q0 40 11 87q33 142 147 319q152 235 396 454t525 331q-13 262 -89 441q-83 190 -190 190q-146 0 -313 -361q-11 -24 -36 -24q-8 0 -17 4q-23 11 -23 36q0 8 3 17q54 128 137 244t215 172q55 20 105 20q86 0 157 -60
q82 -68 135.5 -197.5t74.5 -298.5q9 -65 11 -134q75 15 149 16q17 -1 28 -12t12 -28q0 -17 -11.5 -28.5t-28.5 -12.5q-73 0 -147 -16q0 -249 -70 -504q-63 -227 -189 -417.5t-322.5 -307.5t-469.5 -122zM212 72q68 2 149 27q251 80 406.5 258.5t230 408.5t81.5 465l2 59
q-260 -111 -486.5 -317.5t-368.5 -427.5q-107 -165 -137 -293q-9 -38 -9 -69q0 -111 118 -111h14z" />
    <glyph glyph-name="K" unicode="K" horiz-adv-x="1684" 
d="M2440 -239q-134 0 -269 55q-195 79 -391.5 228.5t-396.5 325.5q-179 156 -360 297.5t-363 234.5t-365 103q-23 -427 -99 -941q-3 -16 -14.5 -25t-26.5 -9l-44 1q-36 0 -72 3q-19 0 -29 13.5t-10 26.5v6q113 761 113 1359q0 389 -46 593l-1 10q0 20 12.5 30t26.5 10l59 -2
q31 0 55 -2q14 -1 24.5 -10t12.5 -23q51 -215 51 -635q0 -137 -7 -295q589 326 745 888q9 30 37 30q26 0 36 -18q6 -11 6 -22l-2 -11q-158 -568 -729 -906q180 -32 355 -129.5t346.5 -233t340.5 -282.5q193 -169 381 -313.5t344 -210.5t282 -66q52 0 103 9l9 1q12 0 21 -7
q18 -12 18 -33q0 -12 -7 -22q-18 -28 -146 -28z" />
    <glyph glyph-name="L" unicode="L" horiz-adv-x="1061" 
d="M73 -49q-14 0 -25.5 8.5t-14.5 23.5q-26 134 -29.5 337.5t-3.5 341.5q0 376 18 979q9 336 10 501v3q0 14 9.5 25.5t25.5 13.5q44 6 135 6q17 0 28.5 -11.5t12.5 -28.5q-1 -168 -10 -499q-18 -625 -18 -1031q0 -373 25 -573q634 58 1082 158l10 1q11 0 20 -6
q19 -11 19 -34q0 -29 -31 -39q-464 -105 -1122 -162q-3 -2 -19 -2z" />
    <glyph glyph-name="M" unicode="M" horiz-adv-x="2206" 
d="M39 137q-17 0 -28 11.5t-11 29.5l29 1481q2 17 13.5 26.5t25.5 9.5l41 -1h40q22 0 43 -1q17 -2 26.5 -13.5t9.5 -25.5l-19 -876q162 789 388 999l4 3q72 65 143 65q103 0 177 -127q99 -166 130 -555q136 690 337 945q63 79 115 105q45 27 95 27q63 0 115 -49
q100 -96 123 -348q7 -106 7 -221q0 -248 -34 -655q-24 -313 -24 -379q0 -128 51 -128q79 0 257 193q64 69 113 156q13 21 35 21q10 0 20 -5q20 -12 20 -35q0 -32 -95 -150t-224 -221q-62 -48 -126 -68q-39 -13 -74 -13q-95 0 -144 86q-31 59 -31 147q8 166 23 355
q34 448 34 687q0 118 -7 224q-10 136 -48 221q-27 63 -57 63q-33 0 -81 -63q-112 -139 -218.5 -482.5t-178.5 -923.5l-1 -2q-21 -108 -96 -108q-30 0 -52 19q-41 32 -41 105q6 127 6 240q0 333 -53 540q-9 40 -40 116.5t-63 107t-52 30.5q-27 0 -56 -34q-117 -150 -225 -516
t-185 -963v-2q0 -11 -12 -23l-2 -1q0 -1 -1 -1q-2 -2 -4.5 -3t-3.5 -2q-6 -3 -68 -10.5t-66 -7.5z" />
    <glyph glyph-name="N" unicode="N" horiz-adv-x="1718" 
d="M94 211q-38 0 -67 24q-27 19 -27 44l35 1493q3 45 32 67.5t65 22.5q63 0 88 -55q3 -7 3 -19l-17 -732q74 313 182.5 541t230.5 360q160 173 313 173q220 0 319 -335q54 -183 59 -475q0 -76 -2.5 -175.5t-2.5 -272.5q2 -330 77 -387q11 -5 23 -5q16 0 35 10q32 17 51 35
q81 71 222 287q13 18 35 18q11 0 21 -6q18 -13 18 -33q0 -12 -7 -23q-114 -175 -201 -261q-61 -63 -138 -110q-72 -41 -127 -41q-203 0 -203 486q0 149 5 277q5 116 5 200q-6 345 -94 529q-76 162 -179 162q-32 0 -63 -14q-179 -118 -334 -454q-107 -230 -177.5 -549
t-85.5 -715q0 -23 -27 -42l-2 -2q-30 -22 -65 -23z" />
    <glyph glyph-name="O" unicode="O" horiz-adv-x="1418" 
d="M564 183q30 0 65 10q165 50 283 210q134 182 202 438q67 250 67 503q0 250 -71 443q-69 184 -209 250q-54 23 -125 23q-135 0 -289 -96q-193 -124 -306 -380q-71 -160 -97 -381q-3 -42 -3 -76q0 -125 44 -227q10 118 33 233q42 215 120 387t183 253q5 5 11 8h1q15 6 36 6
q18 0 40 -5q43 -11 71 -36q20 -18 20 -37q0 -18 -14 -31q-89 -80 -158 -239.5t-107 -356.5q-37 -188 -37 -368v-50q108 -71 242 -86l11 -1q17 -2 27 -13.5t10 -25.5q0 -20 -13 -30.5t-28 -10.5l-15 1q-123 14 -228 69q20 -206 109 -317q44 -51 74.5 -59t50.5 -8zM528 99
q-52 0 -107 10q-112 23 -180 119q-104 150 -119 401q-4 59 -4 121q-118 162 -118 375q0 35 3 72l1 15q49 406 255 653q86 103 184 166q176 110 334 110q86 0 156 -31q164 -76 245 -280q83 -212 83 -492q0 -261 -69 -518q-73 -270 -216 -465q-189 -256 -448 -256z" />
    <glyph glyph-name="P" unicode="P" horiz-adv-x="1246" 
d="M287 94q-40 0 -69 15q-37 20 -37 51q20 355 39 632q-8 0 -15 1q-140 22 -187 96q-18 27 -18 57q0 65 75 109q55 33 167 46q52 662 117 1051q7 38 60 38h21q84 0 103 -36h1q5 -10 5 -20l-17 -118q92 52 216 93q118 34 224 34q144 0 251 -58q188 -105 188 -350
q0 -40 -5 -84q-28 -189 -140.5 -348.5t-278.5 -276.5q-148 -106 -316 -167q-3 -2 -7 -2q-127 -46 -252 -62q-20 -287 -40 -660q-2 -30 -34 -37q-29 -4 -51 -4zM236 1020q-81 -11 -122 -35q-34 -19 -34 -37q0 -7 6 -16q28 -44 129 -59l10 -1zM418 877q109 15 219 55
q228 109 388 307q150 186 183 407q5 41 5 77q0 155 -97 240q-91 78 -239 78q-53 0 -111 -11q-124 -37 -249 -116q-43 -326 -82 -809q117 -6 272 -32q34 -8 34 -39q0 -21 -16 -32q-11 -9 -23 -9l-8 1q-153 26 -265 31q-6 -71 -11 -148z" />
    <glyph glyph-name="Q" unicode="Q" horiz-adv-x="1399" 
d="M1375 79q-217 55 -490 173q-162 -153 -359 -153q-51 0 -106 10q-120 26 -189 133q-104 167 -104 463q0 43 2 87q-129 177 -129 361q0 29 3 59q49 406 255 653q86 103 184 166q175 110 334 110q85 0 157 -31q163 -76 244 -280q83 -212 83 -492q0 -261 -69 -518
q-73 -270 -216 -465q-15 -21 -32 -41q251 -107 452 -157q30 -8 30 -39q0 -22 -18 -33q-11 -7 -23 -7zM549 180q143 12 256 109q-253 118 -462 283l-7 6q2 -67 19 -161.5t61.5 -165.5t127.5 -71h5zM867 349q23 25 44 54q134 182 202 438q67 250 67 503q0 250 -71 443
q-69 184 -209 250q-54 23 -125 23q-136 0 -289 -96q-193 -124 -306 -380q-71 -160 -97 -381q-2 -24 -2 -48q0 -120 59 -229q39 315 148 551q79 173 182 246q12 9 25 9q6 0 11.5 -2t11 -3t62.5 -22q53 -20 63.5 -33t10.5 -27q0 -18 -14 -31q-34 -29 -65 -71
q-86 -119 -146 -302q-92 -276 -95 -555q29 -26 60 -51q213 -168 473 -286z" />
    <glyph glyph-name="R" unicode="R" horiz-adv-x="1516" 
d="M268 935q431 0 702 356q130 169 175 373q26 129 26 222q0 262 -206 262q-126 0 -262 -102q-119 -88 -224.5 -216.5t-176.5 -288.5q-18 -173 -35 -359l-22 -247h23zM1812 -70q-6 0 -12 2q-353 119 -968 500q-372 230 -596 388q-30 -398 -35 -636q0 -53 -109 -53
q-42 0 -63 6q-13 3 -21 14t-8 25q10 391 69 1023q57 626 111 928q1 5 4 10q18 31 70 34q19 2 39 2q24 0 50 -3q17 0 28 -15q8 -12 8 -24l-1 -8q-24 -132 -52 -368q184 277 423 417q2 2 5 3q171 99 313 99q150 0 234 -111q53 -71 61.5 -149t8.5 -117q0 -99 -26 -227
q-41 -185 -150 -334q-192 -262 -512 -394l-5 -2q-178 -73 -353 -84q211 -146 547 -354q610 -378 953 -494q27 -9 27 -38q0 -24 -19 -34q-11 -6 -21 -6z" />
    <glyph glyph-name="S" unicode="S" horiz-adv-x="1238" 
d="M687 3q-100 0 -170 63q-66 59 -66 161q0 175 216 374q-96 80 -219 168q-88 64 -184 138q-264 208 -264 461q0 52 12 104q61 254 332 484q104 88 214 157q71 48 142 84q193 95 341 95q52 0 96 -13q99 -29 125.5 -96.5t26.5 -122.5q0 -73 -29 -172q-10 -28 -38 -28
q-24 0 -34 18q-6 12 -6 22l1 12q25 83 25 142q0 33 -8 59q-21 70 -86 89q-36 9 -77 9q-120 0 -282 -77l-9 -6q-70 -35 -144 -81q-156 -104 -272 -250q-141 -180 -141 -358q0 -77 28 -156q48 -134 207 -260l149 -113q136 -99 243 -190q73 52 163 105q10 5 21 5q22 0 34 -20
q6 -10 6 -20q0 -23 -20 -35q-79 -46 -144 -91q98 -93 125.5 -165.5t27.5 -121.5q0 -60 -26 -125q-50 -119 -128 -179.5t-162 -68.5zM698 81q54 0 96 42q69 68 69 165q0 47 -20 93q-38 90 -117 166q-195 -176 -195 -318q0 -67 41 -105q48 -43 126 -43z" />
    <glyph glyph-name="T" unicode="T" horiz-adv-x="1583" 
d="M1015 -11q-15 0 -26 10q-14 13 -14 34l86 2009q-526 -38 -729 -66q-210 -30 -249 -91q-3 -5 -3 -10q0 -43 149 -120q21 -13 21 -36q0 -9 -4 -18q-13 -22 -36 -22q-9 0 -18 5q-132 69 -162 116.5t-30 77.5q0 23 12 44q34 55 123 86t175 44.5t111 15.5q481 46 960 78
q393 26 779 60h3q15 0 26 -9q14 -13 14 -31q0 -15 -9 -26q-19 -22 -928 -83l-86 -2022q-1 -16 -11.5 -26.5t-26.5 -11.5z" />
    <glyph glyph-name="U" unicode="U" horiz-adv-x="1507" 
d="M517 52q-136 0 -251 106t-173 290q-93 306 -93 1105q0 335 10 490q2 22 20 33q26 13 74 13q79 0 103 -32q6 -10 6 -24q-10 -161 -10 -487q0 -487 39 -815q23 -195 56 -276q51 -158 142 -244q59 -56 134 -56q29 0 62 9l28 16q103 65 191 234q93 180 146 574
q54 398 78 1039q0 24 22 37q40 20 85 20q25 0 47.5 -7t35.5 -20.5t13 -28.5q0 -855 -4 -1830v-5l-1 -2h1l-1 -4q-16 -44 -105 -44q-21 0 -45 2l-19 2q-15 3 -24.5 14.5t-9.5 24.5l3 768q-54 -389 -150 -576q-173 -326 -410 -326z" />
    <glyph glyph-name="V" unicode="V" horiz-adv-x="1431" 
d="M601 111q-225 0 -406 761q-101 425 -195 1151v5q0 41 95 70q58 18 78 18q31 0 39 -33v-3q134 -1015 273 -1436l2 -7q47 -152 104 -259t111 -107q31 0 62 40q109 154 225 429t235 593q90 238 180.5 462.5t182.5 403.5q11 21 37 21q8 0 17 -4q22 -13 22 -36q0 -9 -5 -19
q-90 -175 -179.5 -397.5t-179.5 -459.5q-119 -319 -238 -598q-254 -595 -460 -595z" />
    <glyph glyph-name="W" unicode="W" horiz-adv-x="2484" 
d="M304 78q-138 0 -212 247q-92 313 -92 949q0 376 32 863q3 27 28 35q44 16 81 16q40 0 71 -16q41 -23 41 -62v-5q-30 -464 -30 -828q0 -282 18 -504q0 -29 15 -169q12 -104 34 -208q38 -176 97 -176q25 0 56 34q261 299 641 1463q7 22 28.5 28.5t51.5 6.5q60 0 112 -22
q26 -11 26 -38l-1 -9q-31 -134 -31 -259q0 -164 46 -317q78 -250 233 -415q152 -162 320 -203q44 -12 80 -14q71 1 106.5 55t54.5 115q63 165 63 456q0 64 -3 134q-16 387 -163 990l-1 11q0 10 5 19q12 19 36 19q28 0 38 -30q114 -468 141 -732t27 -417q0 -127 -13 -230
q-29 -229 -104 -357q-117 -201 -314 -201l-31 1q-200 20 -388 209q-145 146 -243 364t-112 479q-314 -894 -544 -1159q-107 -123 -200 -123z" />
    <glyph glyph-name="X" unicode="X" horiz-adv-x="1356" 
d="M73 -7q-24 0 -34 18q-6 12 -6 21l2 12q162 528 412 970q-184 312 -299 577q-95 218 -146 417l-2 10q0 26 25 38q11 5 61 14q55 9 86 9q61 0 74 -27l2 -6q92 -353 338 -798l4 5q346 535 781 972q13 12 29 12t28 -12t12 -28t-11 -28q-430 -431 -772 -959l-26 -42
q277 -486 642 -957q10 -14 10 -27q0 -16 -17 -30q-14 -10 -105 -26q-44 -8 -68 -14l-11 -1q-18 0 -32 16q-277 353 -555 805q-232 -418 -383 -913q-9 -28 -39 -28z" />
    <glyph glyph-name="Y" unicode="Y" horiz-adv-x="1516" 
d="M636 -149q-34 0 -66 11q-55 23 -75 105q-7 31 -7 68q0 113 58 240q53 116 164 230.5t290 199.5q102 454 153 1067q-117 -299 -267 -530t-304 -357q-93 -76 -181 -103q-7 -4 -15 -4q-38 -10 -74 -10q-135 0 -220 152q-77 138 -84.5 313t-7.5 230q0 275 58 681q2 10 10 20
q4 6 24 17q29 15 71 15q30 0 72 -9q20 -6 28 -23q1 -1 1 -2t1 -3v-1q2 -5 2 -11l-1 -6q-60 -415 -60 -691q0 -129 13 -227q11 -116 40 -213.5t68.5 -115t57.5 -17.5q58 0 147 70q187 155 364.5 466t285.5 707q6 19 23 27q41 21 88 21q43 0 81 -28q14 -12 14 -29l-1 -4
q-9 -178 -53 -605q-37 -356 -108 -717q133 34 296 45h3q15 0 26.5 -10.5t13.5 -27.5q0 -17 -10.5 -29t-27.5 -13q-179 -12 -320 -54q-48 -211 -113 -376q-79 -195 -159 -297q-37 -48 -98.5 -93.5t-114.5 -62t-86 -16.5zM614 -58q54 0 140 129q64 96 139 279q45 113 81 253
q-254 -143 -356 -362q-51 -119 -51 -202q0 -28 6 -53q11 -44 41 -44z" />
    <glyph glyph-name="Z" unicode="Z" horiz-adv-x="1709" 
d="M543 108q-135 0 -269 9q-236 21 -269 134q-5 20 -5 41q0 109 160 289q266 303 542 583q387 396 551 603q35 46 35 90q0 24 -11 44q-30 55 -116 55q-12 0 -705 -59h-2q-17 0 -29.5 11t-12.5 29q0 15 10 27t27 14q890 74 904 74q56 0 94 -19q45 -21 68 -59q27 -43 27 -100
q0 -62 -30 -127q-86 -177 -253.5 -355.5t-370.5 -363.5q-310 -288 -476 -478q-134 -155 -134 -243q0 -51 55 -80q45 -24 136 -33l10 -1q47 -4 106 -4q302 3 791 55q202 21 398 37q17 0 29 -10t14 -27q0 -18 -10 -30t-27 -14q-202 -16 -397 -36q-325 -37 -653 -52
q-94 -4 -187 -4z" />
    <glyph glyph-name="bracketleft" unicode="[" horiz-adv-x="586" 
d="M102 557q-23 0 -37.5 15t-14.5 36l35 1343q0 20 12.5 34.5t32.5 17.5l248 25h6q18 0 32 -11q18 -15 18 -40q0 -17 -12 -32t-33 -17l-204 -22l-32 -1247h52q51 1 98.5 1.5t75.5 4.5h6q17 0 31 -10q20 -16 20 -42q0 -16 -11.5 -30.5t-32.5 -18.5q-48 -6 -187 -6
q-59 0 -103 -1z" />
    <glyph glyph-name="backslash" unicode="\" horiz-adv-x="667" 
d="M466 556q-13 0 -26 8q-31 22 -73 156.5t-91.5 334t-99.5 415.5q-69 301 -124 516q-2 7 -2 13q0 14 8 26q14 25 44 25q36 0 48 -38q58 -227 125 -519q74 -317 135.5 -567.5t81.5 -274.5q24 -16 24 -44q0 -13 -6 -26q-17 -25 -44 -25z" />
    <glyph glyph-name="bracketright" unicode="]" horiz-adv-x="579" 
d="M104 565q-22 2 -35 16.5t-13 34.5q0 22 16 36.5t37 14.5q24 -1 56 -1l161 2l-33 1230l-193 -12q-19 0 -34.5 13.5t-15.5 37.5q0 19 12.5 33.5t34.5 16.5l245 16q19 0 35 -14t16 -38l36 -1333q0 -22 -14.5 -37t-37.5 -15q-30 1 -65 1l-171 -2h-37z" />
    <glyph glyph-name="asciicircum" unicode="^" horiz-adv-x="573" 
d="M100 1600q-11 0 -23 5q-27 16 -27 45q0 12 5 24l137 270q15 28 46 28q11 0 23.5 -6.5t19.5 -18.5q22 -39 47 -94q51 -114 59 -120q36 -11 36 -48q0 -30 -23 -43q-14 -8 -26 -8q-43 0 -81 65q-30 49 -56 109l-91 -180q-16 -28 -46 -28z" />
    <glyph glyph-name="underscore" unicode="_" horiz-adv-x="807" 
d="M378 618q-52 0 -107 2q-65 1 -169 1q-22 0 -36.5 14t-15.5 35q0 22 13.5 36.5t35.5 15.5q30 1 63 1q116 0 242 -6q70 -3 124 -3q30 0 32 4q3 21 15 26t25 5q31 0 46 -19q11 -15 11 -39q-8 -38 -65.5 -54t-117.5 -17.5t-96 -1.5z" />
    <glyph glyph-name="grave" unicode="`" horiz-adv-x="408" 
d="M206 1641q-41 0 -79 81q-25 52 -47 109v1q-14 36 -26 64q-4 11 -4 21q0 32 30 46q11 4 21 4q32 0 45.5 -29.5t28.5 -69.5q49 -124 59 -133q24 -16 24 -42q0 -14 -8 -28q-15 -24 -44 -24z" />
    <glyph glyph-name="a" unicode="a" 
d="M227 594q26 0 59 19q175 95 431 424q-164 114 -289 123q-76 -2 -134 -61.5t-92 -146.5q-43 -109 -43 -212q0 -40 8 -73q15 -62 33.5 -67.5t26.5 -5.5zM155 499q-62 0 -104 32q-90 68 -90 221q0 172 114 328q66 87 150 125.5t167 38.5q39 0 80 -7q131 -21 293 -136l24 32
q17 23 70 23q83 0 98 -19q10 -12 10 -27q0 -5 -2 -11q-33 -130 -33 -233q0 -73 16 -130t39.5 -83.5t48.5 -26.5q19 0 42 11q96 47 225 177q13 11 29 12q16 0 28 -12t12 -28t-12 -29q-171 -170 -296 -214l-4 -1q-49 -18 -97 -18q-61 0 -107 32q-113 76 -113 292q0 48 6 101
q-175 -216 -310.5 -321.5t-197.5 -117t-86 -11.5z" />
    <glyph glyph-name="b" unicode="b" horiz-adv-x="1075" 
d="M180 1183q96 130 104 138q320 415 475 694q100 181 116.5 273t16.5 123q0 103 -69 168q-46 40 -98 40q-34 0 -69 -18q-71 -36 -132 -108q-211 -256 -288 -750q-47 -299 -56 -560zM399 285q-33 0 -61 15l-3 2q-42 24 -56 78l-1 6l-1 33q0 214 277 302q21 91 21 147
q0 95 -37 170q-32 59 -72 59q-62 0 -160 -139q-66 -93 -139 -256q-11 -22 -36.5 -23.5t-45.5 -1.5q-39 0 -75 8q-32 6 -32 42q2 35 2 111v24q0 955 226 1466q31 68 94 148t150 143q118 83 246 83q69 0 119 -22q31 -15 61 -41q94 -86 94 -219q0 -24 -3 -49
q-20 -165 -122.5 -360.5t-239 -388t-257.5 -349.5q-116 -151 -173 -237q-2 -78 -2 -141q112 197 212 258q7 7 35 20q48 22 91 22q31 0 59 -11q65 -24 110 -86q81 -114 81 -257q0 -28 -4 -55l-3 -16q85 16 166 28.5t148 25.5l8 1q12 0 22 -7q19 -12 19 -34q0 -31 -33 -39
q-68 -13 -152 -26q-97 -14 -198 -34q-64 -235 -189 -337q-76 -63 -146 -63zM369 406q15 0 43 20q65 54 114 197q-148 -63 -167 -177q-2 -11 -2 -19q0 -21 12 -21z" />
    <glyph glyph-name="c" unicode="c" horiz-adv-x="940" 
d="M290 512q-108 0 -175 40q-106 64 -127 184q-6 39 -6 78q0 103 43 207q60 144 162 217q57 39 114 39q82 0 149 -95q8 -11 8 -21q0 -22 -18 -35q-11 -7 -22 -7q-21 0 -34 18q-36 52 -67 52q-34 0 -68 -42q-63 -80 -81 -214q-4 -31 -4 -60q0 -94 45 -171q59 -89 191 -89
q44 0 98 11q207 52 430 195q11 7 22 7q21 0 33 -19q7 -10 7 -22q0 -20 -18 -33q-278 -178 -534 -225q-81 -15 -148 -15z" />
    <glyph glyph-name="d" unicode="d" horiz-adv-x="1273" 
d="M168 299q-44 0 -78 24q-121 84 -121 345q0 201 76 376q55 124 145 180q47 29 100 29q43 0 89 -18q105 -42 227 -212q0 57 27 335q25 264 83 525q55 250 127 416q134 295 317 361q51 19 99 19q28 0 68 -10l5 -2q67 -22 115 -80q80 -97 80 -256q0 -183 -110 -413
q-177 -371 -584 -849l-25 -29q-13 -212 -13 -319q0 -69 22 -159q25 -94 65 -94q25 0 58 25q139 83 339 318q11 13 20 13.5t12 0.5q13 0 26 -10.5t13 -28.5q0 -14 -9 -26q-239 -284 -402 -359q-72 -31 -126 -31q-36 0 -65 13q-73 32 -108 109t-42 165q-176 -247 -275 -302.5
t-155 -55.5zM243 403q18 0 44 21q118 81 309 374l3 87q-104 173 -188 237q-38 32 -61 32q-27 0 -67 -55q-88 -122 -115 -310q-10 -70 -10 -131q0 -105 29 -186q23 -55 36 -62t20 -7zM818 1176q166 195 345 457q237 356 279 616q5 42 5 80q0 134 -62 207q-30 36 -69 52
q-69 -21 -139 -97q-163 -174 -262 -625q-57 -257 -81 -516q-9 -86 -16 -174z" />
    <glyph glyph-name="e" unicode="e" horiz-adv-x="1005" 
d="M175 856q267 114 317 203q10 16 10 25q0 16 -38 16q-28 0 -74 -15q-123 -47 -203 -203zM188 400q-109 9 -163 72q-67 78 -67 197q0 36 6 72q10 62 32 105l1 3q41 99 165 204q77 65 204 109q50 18 97 18q56 0 90 -30q30 -26 30 -62q0 -31 -22 -70q-70 -124 -414 -259
q-5 -31 -5 -61q0 -81 43 -124q37 -36 127 -36q98 0 243 56q211 81 449 226q10 5 20 5q23 0 35 -19q6 -10 6 -20q0 -23 -20 -35q-173 -103 -309 -167q-121 -62 -271.5 -123t-268.5 -61h-8z" />
    <glyph glyph-name="f" unicode="f" horiz-adv-x="1111" 
d="M194 876q172 140 293 266q143 149 244 333q85 158 98.5 243.5t13.5 126.5q0 133 -71 186q-28 20 -64 20q-103 0 -219 -166q-95 -151 -171 -420.5t-124 -588.5zM237 -678q-40 0 -79 18q-121 55 -184 246q-53 174 -53 478q0 338 54 733q48 352 130.5 657t190.5 475
q89 127 213 175q92 35 166 35q83 0 145 -44q51 -38 79 -110q23 -59 23 -139q0 -187 -120 -409q-106 -193 -257 -350q-146 -153 -367 -328q-16 -120 -27 -237q18 -1 38 -1q152 0 391 71q180 52 328.5 115t204.5 109q11 9 24 9q20 0 31 -13t11 -27q0 -49 -232 -148
q-157 -67 -345 -122q-181 -54 -336 -70q79 -73 130 -200q68 -163 68 -405q0 -65 -5 -136q-21 -231 -78 -309q-33 -47 -90 -65q-27 -8 -54 -8zM292 -579q11 0 23 19q45 61 64 271q5 69 5 131q0 225 -62 373q-69 167 -179 218q-15 -190 -15 -356q0 -310 49 -466
q45 -137 94 -179q12 -11 21 -11z" />
    <glyph glyph-name="g" unicode="g" horiz-adv-x="1138" 
d="M275 536q20 0 45 16q154 96 355 462q-126 95 -224 127q-25 7 -48 7q-36 0 -68 -18q-51 -30 -87 -85q-73 -114 -73 -265q0 -79 23 -147q31 -97 77 -97zM7 -1295q-159 0 -247 123q-64 89 -66.5 167.5t-2.5 86.5q0 145 73 343l1 1q188 452 555 821q172 173 350 304l40 361
q-193 -328 -359 -429q-74 -48 -144 -48q-44 0 -80 19q-68 37 -105 119q-43 94 -43 214q0 83 23 167q27 98 86 172q95 118 241 118q53 0 114 -16q119 -31 271 -143q9 17 18.5 37t33.5 23q33 3 55 3l61 -3q24 0 35 -12.5t11 -30.5q-9 -104 -42 -408q134 80 254 129q8 3 15 3
q26 0 37 -25q3 -8 3 -16q0 -26 -25 -37q-139 -56 -296 -154q-107 -973 -140 -1142q-64 -333 -251 -524q-181 -183 -415 -216q-31 -6 -61 -7zM1 -1215q27 2 55 6q173 38 314 242q112 161 167 434q22 118 82 636q20 168 39 338q-338 -263 -584 -616q-139 -200 -235 -430
q-68 -181 -68 -310q0 -136 54 -211q65 -89 176 -89z" />
    <glyph glyph-name="h" unicode="h" horiz-adv-x="1302" 
d="M14 336q-54 0 -54 41q11 414 59 911q69 739 217 1189q79 216 238 357q177 157 349 157q73 0 129 -51q76 -66 97 -234q2 -18 2 -38q0 -198 -203 -551q-239 -413 -640 -892l-3 -3q-12 -137 -21 -263q137 229 233 328l4 3q26 29 49.5 48.5t60.5 35.5q29 12 53 12
q25 0 45 -12q65 -41 93.5 -156t44.5 -252q11 -88 24.5 -164.5t35.5 -121.5q32 -61 64 -74t56 -13q70 0 194 87q79 56 173 136q11 9 24 9q20 0 33 -14q9 -12 9 -26q0 -17 -14 -30q-115 -98 -212 -162q-105 -68 -228 -98q-42 -9 -79 -9q-198 0 -247 270q-25 137 -33 236
q-14 193 -45 229q-17 20 -29 20q-62 0 -321 -464q-14 -263 -17 -380v-4q0 -32 -35 -44q-43 -13 -106 -13zM219 1365q332 406 560 792q192 332 192 509q0 16 -2 31q-27 214 -149 214q-56 0 -124 -45q-79 -53 -150 -153q-152 -213 -246 -760q-51 -292 -81 -588z" />
    <glyph glyph-name="i" unicode="i" horiz-adv-x="663" 
d="M109 1287q-41 0 -85 17q-23 12 -23 37q0 8 3 17q12 23 37 23q8 0 16 -4q26 -10 52 -10q23 0 45 8q66 25 89 63q13 20 34 20q10 0 20 -5q21 -12 21 -35q0 -31 -58 -76q-35 -28 -81 -43q-34 -12 -70 -12zM197 518q-26 0 -49 4q-104 17 -149 132q-19 55 -19 134q0 32 3 68
q24 272 54 291q28 15 66 16q84 0 99 -17q10 -12 10 -25l-3 -23q-36 -213 -36 -302q0 -61 16 -99q31 -66 62 -70t41 -4q97 0 340 176q14 10 26.5 18.5t24.5 8.5q20 0 32 -18q8 -11 8 -23q0 -20 -18 -33l-52 -36q-174 -124 -286 -162q-94 -36 -170 -36z" />
    <glyph glyph-name="j" unicode="j" horiz-adv-x="492" 
d="M-467 -1177q-33 0 -64 12q-89 32 -144 139q-64 122 -64 321q0 209 94 460v2q195 444 595 756q52 487 62 610q2 15 12.5 25.5t26.5 11.5q21 5 48 5q78 0 93 -17q9 -12 9 -27l1 -3q-12 -126 -47 -464q165 100 333 169q7 3 15 3q26 0 38 -25q3 -7 3 -15q0 -26 -25 -38
q-191 -77 -375 -196q-80 -732 -115 -917q-73 -331 -169 -518q-152 -294 -327 -294zM-519 -1063q8 0 16 2q81 25 170 197q99 175 174 516q36 186 96 747q-41 -35 -82 -73q-265 -244 -426 -600q-86 -234 -87 -329.5t-1 -102.5q0 -177 55 -283q41 -74 85 -74zM98 1287
q-42 0 -86 18q-24 10 -24 36q0 8 4 17q11 23 36 23q8 0 17 -3q26 -11 52 -11q22 0 44 8q66 25 89 63q12 20 35 20q10 0 20 -5q20 -13 20 -35q0 -32 -57 -76q-36 -27 -82 -43q-33 -12 -68 -12z" />
    <glyph glyph-name="k" unicode="k" horiz-adv-x="1024" 
d="M41 255q-66 0 -81 20q-9 11 -9 27q3 42 5 87q10 219 35 510q59 700 268 1342q66 192 211 298q88 65 177.5 92t161.5 27h12q117 0 185 -90q39 -54 46 -108.5t7 -80.5q0 -69 -20.5 -156.5t-49.5 -148t-77 -139.5l-8 -15q-114 -197 -301 -462q-195 -276 -411 -486
q-8 -84 -14 -163q66 48 146 121q105 95 192 197q13 14 30 14q14 0 27.5 -11.5t13.5 -28.5q0 -14 -10 -26q-91 -106 -199 -204q-81 -74 -150 -125q31 -22 63 -47q58 -48 126.5 -87.5t115 -42.5t54.5 -3q188 0 435 248q13 11 29 12q16 0 28 -12t12 -28t-12 -29
q-161 -161 -280.5 -219.5t-211.5 -58.5q-104 0 -198 55q-80 46 -147 101q-37 30 -72 54q-12 -204 -21 -390q-1 -15 -11 -25q-17 -17 -86 -19h-11zM205 1098q174 185 333 407q316 451 390 629q19 47 35 117q15 75 15 132q0 90 -37 138q-42 57 -119 57q-117 0 -233 -116
q-164 -166 -298 -818q-59 -288 -86 -546z" />
    <glyph glyph-name="l" unicode="l" horiz-adv-x="833" 
d="M283 389q-91 0 -155 58q-58 51 -92 139q-61 165 -62 408q2 340 61 677t109 491q32 99 94.5 214.5t148.5 212.5q151 169 324 169q92 0 176 -92q92 -108 92 -275q0 -202 -104 -470q-97 -247 -234 -485.5t-263.5 -414.5t-189.5 -235q-2 -1 -3 -3q36 -287 180 -287
q29 0 61 11q147 44 408 335q13 13 31 13q14 0 26.5 -11t12.5 -29q0 -14 -10 -26q-222 -248 -373 -327q-35 -19 -79.5 -36.5t-84 -27t-74.5 -9.5zM176 889q118 135 305 432.5t319 628.5q82 211 91 311.5t9 124.5q0 140 -73 226q-60 65 -119 65q-35 0 -68 -22
q-122 -79 -231 -330q-43 -99 -69 -180q-34 -104 -76.5 -317t-66.5 -432.5t-24 -388.5q0 -60 3 -118z" />
    <glyph glyph-name="m" unicode="m" horiz-adv-x="2116" 
d="M1680 514q-80 0 -135 40q-79 57 -79 191l1 36q3 36 3 69q0 167 -49 254q-22 36 -55 36q-23 0 -51 -16q-116 -69 -285 -317q-73 -108 -99 -151q-9 -15 -29 -19q-36 -4 -58 -4t-49 4q-28 1 -36.5 14.5t-8.5 25.5v8q23 124 23 243q0 267 -86 369q-13 13 -30 13
q-29 0 -69 -36q-113 -99 -284 -387q-97 -165 -178 -318v-1q-5 -11 -18 -17q-3 -2 -4.5 -2t-3.5 -1l-4 -1q-25 -4 -50 -4q-31 0 -67 4h-1q-17 3 -26 14.5t-9 24.5q0 9 23 172l1 4q44 292 51 490v1q0 48 66 48h47q16 -1 34.5 -1t29.5 -11.5t11 -29.5q-5 -195 -45 -453
q257 457 437 568q24 15 47 25l3 1q42 17 80 17q33 0 63 -14q78 -37 118 -141q52 -140 52 -324q0 -49 -4 -100q218 300 361 373q68 36 124 36q25 0 48 -8q74 -25 114 -106q54 -114 54 -282q0 -36 -3 -75l-1 -37q0 -117 65 -131q12 -3 26 -3q32 0 73 15q136 50 295 195
q13 11 29 11q16 -1 27 -13t11 -27q0 -17 -13 -30q-170 -156 -323 -212q-84 -30 -164 -30z" />
    <glyph glyph-name="n" unicode="n" horiz-adv-x="1379" 
d="M54 563q-35 0 -71 6q-17 0 -27 17q-7 12 -7 23l1 9q7 28 21 145q37 297 37 416q0 35 -3 51l-1 10q1 17 12.5 28t28.5 12h58q36 0 63.5 -6.5t31.5 -33t4 -63.5q0 -122 -30 -371q136 218 244.5 323.5t166 120t84.5 14.5q50 0 90 -24q99 -58 164 -220q27 -66 43 -117
q7 -27 9 -28q42 -158 121 -196h2q25 -12 54 -12q33 0 70 16q79 34 161 129q12 13 32 13q13 0 25 -10.5t12.5 -19t0.5 -10.5q0 -14 -9 -26q-134 -153 -263 -171q-49 -9 -93 -9q-234 0 -305 274l-5 15q-15 55 -54 148q-33 77 -83 128q-20 16 -44 16q-36 0 -82 -38
q-128 -108 -293 -389q-60 -103 -78 -139l-2 -2q-13 -29 -86 -29z" />
    <glyph glyph-name="o" unicode="o" horiz-adv-x="1163" 
d="M393 386q-177 6 -275 86q-140 116 -140 305q0 54 13 107q15 59 44 109q-38 69 -38 144q0 88 43 159.5t123 109.5q56 27 127 27q65 0 142 -23l4 -1q119 -48 197.5 -153t112.5 -238q25 -95 25 -188q-1 -48 -7 -96h27q181 0 364 87q10 5 20 5q22 0 34 -23q5 -9 5 -17
q0 -25 -23 -37q-204 -96 -403 -96l-42 1q-23 -77 -69.5 -138.5t-115.5 -95.5t-158 -34h-10zM683 739q8 36 8 92q0 83 -23 167q-29 115 -95 205.5t-165 130.5q-64 19 -116 19q-54 0 -96 -21q-57 -26 -88 -77.5t-31 -114.5q0 -39 13 -76q54 49 74 63q14 9 26 9q11 0 21 -6
l24 -16q7 -5 15.5 -10t23 -13.5t17.5 -19t3 -15.5q0 -23 -19 -34q-45 -36 -72 -94q173 -137 424 -182zM440 473q33 0 66 11q112 44 157 176q-156 19 -289 77q-112 48 -197 110q-7 -32 -7 -73q0 -108 60 -189q47 -61 107 -86.5t103 -25.5z" />
    <glyph glyph-name="p" unicode="p" horiz-adv-x="982" 
d="M-46 -847q-17 0 -29.5 11t-12.5 32l88 2082q1 16 12 27q15 15 132 15q17 -1 28 -12.5t11 -28.5l-8 -196q106 138 264 165q30 5 59 5q150 0 217 -110l3 -5q38 -71 38 -153q0 -86 -37 -181q115 19 261 21q17 0 28.5 -11t11.5 -28t-11 -28.5t-28 -12.5q-175 -3 -302 -29
q-116 -205 -254 -291l-7 -4q-73 -37 -123 -37q-23 0 -42 8q-55 25 -55 84q0 60 61 128q69 80 246 147l6 12q46 87 54.5 143.5t8.5 78.5q0 61 -29 115q-18 30 -48 44q-35 17 -64 17q-37 0 -91 -34q-126 -73 -176 -241l-71 -1691q0 -16 -10.5 -27.5t-29 -13t-38.5 -1.5h-63z
M294 483q28 0 85 60q37 38 64 90q-37 -13 -71 -37q-74 -53 -90 -101q1 -12 12 -12z" />
    <glyph glyph-name="q" unicode="q" horiz-adv-x="1196" 
d="M252 606q22 0 46 11q45 21 75 48q103 84 250 342q-149 102 -249 102q-112 0 -169 -83q-65 -99 -65 -219q0 -75 22 -129q29 -72 90 -72zM662 -921q-69 0 -122 111q-29 70 -29 241q0 212 29 513q44 457 118 964q-112 -182 -205 -271q-73 -72 -166 -114q-65 -26 -118 -26
q-54 0 -94 27q-104 71 -104 235q0 81 30 166q38 104 120 179t208 85q18 2 37 2q130 0 296 -113l31 60q27 43 98 43q46 0 65 -14q20 -14 20 -34l-18 -128q-28 -190 -69 -503q220 118 404 311q12 12 28 13q16 0 28.5 -11.5t13.5 -27.5q0 -16 -11 -29q-186 -195 -412 -319
q95 -83 110 -325q3 -53 3 -107q0 -251 -58 -512q-45 -212 -119 -335q-30 -49 -73 -71q-21 -10 -41 -10zM727 -761q5 0 12 18q44 99 78 255q56 253 56 496q0 179 -33 283q-23 74 -65 95q-78 -610 -78 -911q0 -134 17 -206q8 -30 13 -30z" />
    <glyph glyph-name="r" unicode="r" horiz-adv-x="1014" 
d="M651 416q-98 0 -141 82q-21 39 -28 85v2q-36 204 -42 438q-1 36 -3 66l-27 7q-61 14 -138 37q-57 -181 -214 -374q-14 -14 -31 -14q-14 0 -27 11t-13 29q0 14 9 26q148 181 200 348l-41 15q-116 46 -116 129q0 37 25 68q40 49 108 49q29 0 52 -10q73 -33 73 -138
q0 -28 -6 -61q78 -23 138 -37l54 -13l5 -2q47 -12 107 -32q23 -9 27 -32q8 -56 13 -133q5 -132 41 -359q8 -35 18 -51t19 -20t16 -4h7q98 0 279 279q12 19 33 19q11 0 23.5 -8t15 -18t2.5 -14q0 -11 -6 -22q-84 -131 -152 -202q-41 -44 -103 -84t-108 -51t-69 -11zM214 1237
q3 19 3 34q0 53 -25 65q-8 4 -21 4q-29 0 -43 -18q-8 -9 -8 -20q0 -28 63 -53z" />
    <glyph glyph-name="s" unicode="s" horiz-adv-x="514" 
d="M-35 84q-88 0 -118 69q-25 55 -25 118q0 49 11 112q69 207 262 310q-47 61 -137 114l-3 2q-126 92 -144 196q-5 27 -5 53q0 89 59 174q95 128 221 159q34 10 68 10q77 0 136 -48q14 -12 14 -30q0 -14 -10.5 -26.5t-19.5 -13t-12 -0.5q-13 0 -24 9q-36 29 -81 29
q-45 -1 -86.5 -23.5t-69 -58t-34.5 -79.5q-2 -12 -2 -24q0 -108 140 -207q118 -74 173 -161q124 34 236 53l8 1q12 0 22 -7q17 -12 17 -34q0 -31 -33 -39q-101 -17 -212 -47q26 -70 26 -139q0 -34 -6 -67q-18 -102 -73 -189q-66 -103 -152 -162q-60 -42 -118 -52zM-45 165
q42 0 110 93q27 36 38 56q58 96 58 198q0 56 -24 112q-168 -89 -225 -259q-10 -57 -10 -98q0 -29 5 -49q13 -48 45 -53h3z" />
    <glyph glyph-name="t" unicode="t" horiz-adv-x="808" 
d="M338 366q-128 0 -223 84.5t-124 269.5q-21 151 -21 315q0 287 54 616q46 276 110 519l-73 34q-173 85 -333.5 140t-309.5 55q-36 0 -73 -3q-187 -15 -387 -157q-11 -8 -23 -8q-20 0 -33 17q-8 11 -8 22q0 21 17 34q218 156 340.5 167t165.5 11q156 0 305 -51
q189 -64 373 -154l60 -28q83 295 156 468q9 26 23 28t21 2q20 0 60 -13l56 -16q32 -11 32 -39q0 -7 -2 -14q-65 -187 -153 -499q150 -61 237.5 -69t111.5 -8q127 0 256 57q8 4 17 4q25 0 36 -24q3 -8 3 -16q0 -25 -23 -37q-146 -65 -287 -65q-24 0 -48 2q-163 13 -324 78
q-121 -466 -150 -784q-19 -203 -19 -319q0 -379 90 -482q47 -55 123 -55q61 2 130 40q159 87 304 318q13 19 35 19q11 0 21 -5q19 -13 19 -34q0 -11 -6 -22q-253 -398 -536 -398z" />
    <glyph glyph-name="u" unicode="u" 
d="M219 490q-104 0 -163 65q-76 82 -76 264q0 97 22 220v2q8 31 38 31q20 0 63 -15q25 -8 44 -16q25 -11 25 -38l-1 -7q-17 -97 -17 -172q0 -133 46 -197q35 -46 85 -46q110 0 230 171q78 110 141 292q5 19 23 27q57 22 113 22q17 0 28 -10t13 -24q71 -328 291 -328l19 1
q63 21 105.5 45.5t51.5 35.5q13 12 29 13q16 0 28 -12t13 -28q0 -16 -12 -29t-64.5 -44t-127.5 -57q-21 -9 -70 -18q-35 -7 -72 -7q-152 0 -242 103q-63 71 -95 167q-64 -147 -139 -239q-115 -141 -231 -159q-53 -13 -98 -13z" />
    <glyph glyph-name="v" unicode="v" horiz-adv-x="761" 
d="M210 488q-73 0 -136 82q-112 149 -186 667l-1 6v2q1 33 41 40q31 3 110 6h3q14 0 25.5 -9t13.5 -25q94 -656 197 -656q59 0 161 196q50 96 102 206q67 147 136 269q13 20 35 20q10 0 20 -6q19 -12 19 -34q0 -11 -5 -20q-66 -119 -133 -263q-87 -194 -176 -331
q-49 -74 -123 -118q-53 -32 -103 -32z" />
    <glyph glyph-name="w" unicode="w" horiz-adv-x="1308" 
d="M913 439q-39 0 -74 16q-78 34 -141 119q-87 120 -144 276q-115 -252 -250 -322q-67 -34 -120 -34q-222 0 -222 516q0 97 7 214l1 6q5 29 26.5 34.5t54.5 5.5h13l50 1q22 0 33 -12.5t11 -29.5q-9 -134 -9 -237q0 -256 54 -353q22 -41 48 -41q31 0 77 44q105 106 190 330
q41 123 54 175q5 22 28 30l11 1q29 0 38 -30q31 -114 97 -270.5t145 -265.5q55 -74 90 -74q22 0 47 45q79 144 90 664q1 17 12.5 28.5t28.5 11.5q17 -1 28 -12.5t11 -28.5q-13 -542 -99 -701q-38 -70 -87 -83q-52 -23 -99 -23z" />
    <glyph glyph-name="x" unicode="x" horiz-adv-x="1013" 
d="M157 271q-8 0 -16 4q-23 12 -23 36q0 9 4 18l142 302q-126 97 -196 271q-47 123 -61 192l-6 22h1q-2 2 -2 11q0 34 40 40q48 9 105 9q29 0 39 -27q4 -12 11 -39q40 -165 115 -282q14 -20 29 -38l205 435q10 23 36 23q8 0 17 -4q23 -12 23 -35q0 -9 -221 -479
q79 -67 208 -67q163 0 402 156q10 7 22 7q20 0 33 -18q7 -11 7 -22q0 -21 -18 -34q-160 -106 -286 -144q-139 -56 -194 -56h-58q-104 0 -182 38l-139 -296q-11 -23 -37 -23z" />
    <glyph glyph-name="y" unicode="y" horiz-adv-x="1084" 
d="M188 -975q-113 0 -173 104q-41 69 -41 188q0 151 81 367q1 1 1 3q206 491 488 773l48 429q-191 -333 -313 -398q-47 -27 -107 -27q-18 0 -34 3q-83 19 -121.5 96.5t-38.5 182.5q0 175 69 327q16 27 64 27q27 0 51 -2q38 -4 49 -9q21 -13 21 -35q0 -9 -4 -19
q-74 -141 -74 -322q0 -128 39 -159q5 -4 13 -4q62 0 185 170q93 128 224 381q10 21 34 24q28 3 55 3q26 0 46 -0.5t30.5 -13t10.5 -28.5q0 -25 -48 -455q166 119 347 192q7 3 14 3q27 0 39 -25q2 -7 2 -15q0 -27 -25 -38q-205 -82 -389 -227q-65 -561 -87 -732
q-21 -168 -32 -232q-39 -200 -123 -326t-181 -175q-63 -31 -120 -31zM145 -875q9 0 19 3q74 23 151 138q82 115 120 310q21 131 77 604q9 73 17 147q-223 -250 -399 -671q-68 -183 -72.5 -253t-4.5 -88q0 -94 32 -147q26 -43 60 -43z" />
    <glyph glyph-name="z" unicode="z" horiz-adv-x="865" 
d="M241 518q-175 0 -175 92q0 52 68 118q90 86 190 164l60 49q47 38 97 85q79 74 79 99q0 13 -24 13l-347 -24q-15 0 -26 9q-13 13 -13 31q0 15 10 26.5t27 13.5q442 31 485 31q91 0 91 -66q0 -30 -20 -62q-37 -65 -102.5 -128.5t-144.5 -129.5q-160 -134 -191 -178
q-15 -22 -15 -35q0 -18 28 -21q21 -2 40 -2q57 0 189 13h2q126 12 157 12q15 0 26.5 -10t13.5 -27q0 -17 -10.5 -29t-27.5 -14q-73 -5 -154 -12q-153 -16 -313 -18z" />
    <glyph glyph-name="braceleft" unicode="{" horiz-adv-x="622" 
d="M420 465q-66 2 -103 59t-57 148t-34 194q-15 108 -36 201q-6 24 -74 92q-64 62 -65 81l-1 12q0 25 62 89q82 87 87 112q10 68 10 74q13 106 34 215q47 249 159 249h5q22 -2 34.5 -16.5t12.5 -32.5q0 -25 -16.5 -38.5t-36.5 -13.5h-3q-43 0 -88 -376l-11 -75
q-7 -41 -41 -84.5t-71 -82.5l-20 -21q56 -56 84.5 -90.5t37.5 -70.5q22 -100 37 -209q18 -125 39.5 -217.5t56.5 -97.5q21 -1 35 -15.5t15 -36.5q-1 -21 -15.5 -35t-36.5 -14z" />
    <glyph glyph-name="bar" unicode="|" horiz-adv-x="352" 
d="M151 455q-67 0 -86 197q-15 143 -15 348q0 206 5 432q5 207 5 387q0 113 -2 215q0 21 14 36t35 16q22 0 36.5 -14t15.5 -36q2 -103 2 -217q0 -181 -5 -389q-5 -230 -5 -426l1 -161q2 -257 34 -301q16 -15 16 -26v-11q0 -19 -14.5 -34.5t-25.5 -15.5h-11z" />
    <glyph glyph-name="braceright" unicode="}" horiz-adv-x="557" 
d="M133 414q-37 0 -48 37q-2 7 -2 14q0 37 37 48q36 14 48.5 104.5t17.5 216.5q10 224 37 344q15 67 44 96q-37 29 -48 105q-18 133 -18 168q-20 242 -49 335q-19 58 -50 59q-21 0 -36 14t-16 36q0 21 14 36t36 16q77 -1 117 -73t57.5 -183.5t27.5 -229.5q15 -185 35 -204
q13 -12 41 -24q29 -16 29 -47q0 -26 -22 -42q-41 -30 -48.5 -40.5t-14.5 -44.5q-24 -108 -35 -326q-4 -156 -28.5 -270.5t-111.5 -142.5q-7 -2 -14 -2z" />
    <glyph glyph-name="asciitilde" unicode="~" horiz-adv-x="798" 
d="M485 1113q-10 0 -19 1q-78 10 -150 47q-64 33 -108 33q-37 0 -71 -34q-15 -15 -25.5 -15.5t-12.5 -0.5q-18 0 -33 14t-15.5 24.5t-0.5 12.5q0 19 13 34q70 72 137 72q68 0 158 -47q72 -37 121 -37q43 0 85 37q16 12 34 12q22 0 38 -16q12 -15 12 -32q0 -24 -16 -40
q-77 -65 -147 -65z" />
    <glyph glyph-name="exclamdown" unicode="&#xa1;" horiz-adv-x="534" 
d="M99 208q-22 0 -35.5 16t-13.5 35q0 41 60 580q115 1051 128 1363q1 21 16 35t36 14q22 -1 35.5 -16t13.5 -36q-14 -342 -129 -1371q-44 -398 -59 -574q-2 -21 -17 -33.5t-35 -12.5zM301 2362q-9 0 -10 1q-63 16 -63 76q0 28 16 49q20 29 57 29q12 0 25 -3q59 -17 59 -71
q0 -25 -16 -47q-23 -34 -68 -34z" />
    <glyph glyph-name="cent" unicode="&#xa2;" horiz-adv-x="1240" 
d="M286 435q-30 0 -43 24q-7 14 -7 27q0 8 67 226q-202 2 -243 135q-10 34 -10 71q0 52 19 111q34 102 106 206q148 208 344 318q24 13 49 22l115 377q12 35 47 35q8 0 16 -2q36 -12 36 -48q0 -8 -100 -335l16 1q111 0 177 -119q6 -12 6 -24q0 -29 -28 -45q-11 -5 -23 -5
q-29 0 -45 27q-36 61 -100 61q-17 0 -36 -4l-204 -666q74 16 171 47q92 30 209 115q99 72 173 168q16 21 41 21q16 0 30 -10q21 -16 21 -40q0 -16 -11 -31q-83 -109 -194 -190q-131 -94 -237 -129q-135 -44 -236 -59l-77 -249q-12 -36 -49 -36zM333 811l193 629
q-151 -99 -267 -263q-108 -156 -108 -257q0 -69 55 -94q38 -16 94 -16z" />
    <glyph glyph-name="sterling" unicode="&#xa3;" horiz-adv-x="916" 
d="M50 1240q0 21 15 36t36 15h134q-67 185 -67 293q0 59 19.5 114.5t55 99.5t86 70.5t112.5 26.5q53 0 94 -18.5t71 -51t48 -75.5t25 -91l1 -8q0 -20 -15 -34.5t-35 -14.5q-17 0 -32.5 11t-18.5 32q-24 149 -138 149q-49 0 -95 -35q-77 -59 -77 -179q0 -84 62 -256l12 -33
h170q21 0 36 -15t15 -36t-15 -36t-36 -15h-138q24 -75 24 -131q0 -89 -129 -299q26 4 52 6t51 2q71 0 177 -18q34 -7 64.5 -10t57.5 -3q10 0 19 0.5t17 1.5l8 1q20 0 35 -14.5t15 -35.5q0 -17 -11 -32.5t-32 -19.5q-13 -1 -25 -1.5t-25 -0.5q-62 0 -138 14q-45 8 -89.5 12
t-90.5 4q-84 0 -171 -41q-11 -7 -26 -7q-11 0 -25 6q-26 15 -26 45q0 12 6 24l47 80q55 90 88.5 157t47.5 112q1 5 1 18q0 46 -28 130h-168q-21 0 -36 15t-15 36z" />
    <glyph glyph-name="currency" unicode="&#xa4;" horiz-adv-x="936" 
d="M736 897q-18 0 -34 12l-9 8q-59 49 -92 85q-60 -30 -149 -30q-48 0 -55 3q-96 9 -161 55q-30 -29 -64 -56v-1l-37 -32q-15 -13 -33 -13q-23 0 -37.5 15.5t-14.5 34.5q0 22 17 38t40 35q52 43 70 61q-13 37 -13 89q0 96 41 151q-22 44 -41 94l-18 45q-5 11 -5 21
q0 32 31 46q11 5 21 5q31 0 45 -31q10 -21 21 -49q15 -41 28 -70q63 22 148 22q95 0 147 -17l30 76q11 29 20.5 49.5t23.5 25.5t23 5q10 0 21 -4q30 -14 30 -47q0 -10 -4 -20q-9 -19 -19 -45v-1q-19 -50 -41 -93l8 -11q35 -59 35 -129v-22q0 -82 -34 -134q7 -8 28 -25
l43 -38q39 -30 39.5 -43t0.5 -16q0 -17 -13.5 -32t-24 -16t-12.5 -1zM453 1073q76 0 115.5 27.5t39.5 105.5q0 59 -17 90q-22 38 -159 38q-67 0 -110 -16q-56 -21 -56 -118q0 -66 29 -88q39 -28 114 -37q23 -2 44 -2z" />
    <glyph glyph-name="yen" unicode="&#xa5;" horiz-adv-x="940" 
d="M378 650q-21 0 -35.5 14t-15.5 36q-2 66 -8 157.5t-9 188.5l-183 1q-21 1 -35.5 15.5t-14.5 35.5q1 22 15 36t36 15l182 -1q1 59 7 114l-174 1q-22 1 -36 15t-15 36q1 21 15.5 35.5t35.5 14.5l192 -1q4 17 10 33q-71 116 -120 200q-69 115 -101 164.5t-50 60.5t-21 23.5
t-3 18.5q0 14 8 27q16 24 43 24q41 0 98 -83q38 -56 113 -183l90 -150q175 279 301 405q15 15 35 15q21 0 36 -15t16 -35q0 -20 -15 -36q-67 -68 -139 -165.5t-189 -287.5l-6 -17l167 -1q21 0 35.5 -14.5t14.5 -35.5q0 -22 -14.5 -36t-36.5 -15l-188 1q-7 -54 -8 -114
l182 -1q21 -1 35.5 -15t14.5 -36q-1 -21 -15 -35.5t-36 -14.5l-180 1q3 -92 8 -179q1 -1 1 -3q6 -89 7 -163q0 -21 -14 -35.5t-36 -15.5z" />
    <glyph glyph-name="brokenbar" unicode="&#xa6;" horiz-adv-x="354" 
d="M100 1387q-22 1 -36 15.5t-14 35.5l3 250q0 118 -2 218q0 21 13.5 36t35.5 16q22 0 36.5 -14t15.5 -35q2 -76 2 -163q0 -99 -3 -309q-1 -22 -15.5 -36t-35.5 -14zM153 578q-7 0 -14 2q-66 23 -79 192q-10 127 -10 313v34q0 21 14.5 36t35.5 15t36 -15t15 -36v-34
q0 -183 10 -304q3 -45 3 -71v-12q0 -19 2 -20q20 -6 29 -21t9 -28q0 -29 -23 -42q-15 -9 -28 -9z" />
    <glyph glyph-name="section" unicode="&#xa7;" horiz-adv-x="1236" 
d="M270 635q-73 1 -120 49.5t-47 161.5q19 136 104 227q15 16 26 16.5t12 0.5q19 0 34.5 -14t16 -24.5t0.5 -12.5q0 -19 -14 -34q-63 -69 -78 -170q1 -51 20 -75t48 -24q47 0 100 34t85 92q22 40 23 89q-5 21 -5 45q-29 130 -235 240q-190 104 -190 256q0 86 57 170
q44 65 106 115q72 57 140 83t117 26q13 0 26 -2q64 58 144 99.5t142.5 54.5t101.5 13q34 0 64 -7q123 -30 123 -156q0 -39 -12 -87q-11 -39 -50 -39q-28 0 -41 23q-9 14 -9 27q0 7 2 14q7 30 7 52q0 57 -45 68q-20 4 -42 4q-85 0 -195 -57q-79 -41 -135 -97l-9 -10
q-55 -60 -55 -108q0 -86 152 -150q86 -35 145 -76q121 96 226 154q12 7 25 7q28 0 44 -26q6 -13 6 -26q0 -27 -25 -43q-92 -51 -197 -132q71 -77 77 -128t6 -72q0 -59 -22 -114q-45 -102 -130 -166q-89 -67 -176 -68q-30 1 -56 10q-43 -104 -136 -164q-77 -49 -156 -49z
M515 1145q60 117 189 238q-44 27 -103 51q-153 64 -185 128t-32 110q0 45 29 108q-63 -24 -136 -82q-125 -100 -125 -205q0 -93 136 -167q159 -87 227 -181zM620 940q51 0 112 46q65 49 97 124q14 34 14 70q0 74 -59 139q-36 -33 -69 -68q-113 -118 -138 -235q5 -25 6 -50
q12 -26 37 -26z" />
    <glyph glyph-name="dieresis" unicode="&#xa8;" horiz-adv-x="578" 
d="M113 1938q-63 17 -63 78q0 25 16 48q20 29 57 29q12 0 25 -3q58 -19 58 -72q0 -25 -15 -47q-23 -34 -68 -34zM335 1938q-63 17 -63 78q0 26 17 48q20 29 57 29q11 0 24 -3q58 -18 58 -74q0 -24 -15 -45q-23 -34 -68 -34z" />
    <glyph glyph-name="copyright" unicode="&#xa9;" horiz-adv-x="1444" 
d="M689 748q117 0 224 47q126 57 203 181t77 314v14q-9 204 -91 333.5t-207 187.5q-104 48 -218 48q-115 0 -220 -49q-128 -58 -212.5 -186t-93.5 -324v-13q0 -188 82 -313q85 -129 219 -189q112 -50 232 -51h5zM566 943q-81 0 -127 57q-57 71 -57 184q0 111 40 222
q46 130 117.5 195t141.5 65q30 0 62 -10q34 -14 34 -47q0 -9 -3 -18q-13 -34 -48 -34q-8 0 -17 3q-13 4 -26 4q-43 0 -82 -44q-51 -57 -84 -149.5t-33 -187.5q0 -77 32 -117q18 -24 54 -24q95 0 281 158q16 12 34 12q21 0 37 -18q12 -15 12 -32q0 -24 -17 -40
q-185 -156 -256.5 -167.5t-94.5 -11.5zM693 647q-150 0 -282 59q-161 72 -261 223.5t-100 374.5v13q10 228 111 378.5t253 220.5q126 58 268 58q133 0 256 -58q149 -69 247.5 -221t108.5 -388v-19q0 -222 -91 -366q-96 -151 -248 -219q-125 -56 -262 -56z" />
    <glyph glyph-name="ordfeminine" unicode="&#xaa;" horiz-adv-x="886" 
d="M194 1949q53 0 116 138q-27 21 -56 21q-27 0 -55 -17q-48 -35 -48 -84q0 -39 20 -53q9 -5 20 -5h3zM505 1843q-111 0 -165 93q-70 -88 -148 -88q-45 0 -77 22q-65 45 -65 139q0 49 25 93t68 73t95 34l19 1q54 0 106 -36q8 3 17 3q8 0 17 -3q34 -12 34 -47q0 -11 -17 -55
q-2 -13 -2 -25q0 -53 37 -85q21 -17 53 -17q59 0 149 79q16 14 37 14q20 -1 34 -16.5t14 -33.5q0 -22 -16 -38q-121 -107 -215 -107z" />
    <glyph glyph-name="guillemotleft" unicode="&#xab;" horiz-adv-x="826" 
d="M627 865q-23 0 -39 15l-269 279q-15 15 -15 38q0 18 13 33l255 277q15 16 26 17h12q19 0 34 -14.5t16 -25.5v-12q0 -18 -13 -33l-223 -242l237 -247q15 -16 15 -36q-1 -20 -16 -36q-15 -13 -33 -13zM373 865q-23 0 -39 15l-269 279q-15 15 -15 38q0 18 13 33l255 277
q15 16 26 17q30 0 45.5 -14.5t16.5 -25.5v-12q0 -18 -13 -33l-223 -242l237 -247q14 -15 14 -36q0 -20 -15 -36q-15 -13 -33 -13z" />
    <glyph glyph-name="logicalnot" unicode="&#xac;" horiz-adv-x="894" 
d="M694 1175q-21 0 -35.5 14.5t-15.5 35.5l-4 217l-537 -19q-21 0 -36 14t-16 35q0 22 14 36.5t35 16.5l588 20q22 0 37 -14t16 -37l4 -267q0 -22 -14 -36.5t-36 -15.5z" />
    <glyph glyph-name="registered" unicode="&#xae;" horiz-adv-x="1444" 
d="M933 851q-12 0 -24 6q-187 102 -419 288q-6 -118 -8 -199q0 -21 -14.5 -35.5t-36.5 -14.5q-21 1 -35.5 15.5t-14.5 35.5q3 153 18 365q22 280 45 305q130 141 263 141q102 0 145 -89q18 -37 18 -89q0 -48 -15 -109q-34 -116 -162 -204q-57 -37 -122 -57
q231 -179 386 -264q27 -16 27 -44q0 -12 -6 -25q-16 -26 -45 -26zM689 710q118 0 224 48q126 56 203 180.5t77 313.5v15q-9 203 -91 332.5t-207 187.5q-102 48 -213 48q-120 0 -225 -48q-127 -59 -212 -187t-94 -324v-9q0 -190 83.5 -318t218.5 -188q111 -49 231 -51h5z
M688 609q-142 0 -277 60q-161 71 -261 222.5t-100 374.5v13q11 229 111.5 379.5t252.5 219.5q126 58 263 59q136 0 261 -58q150 -69 248 -221t108 -388v-19q0 -222 -91 -367q-95 -150 -248 -218q-127 -57 -267 -57zM500 1298q73 11 137 54q96 66 120 144q12 48 12 82
q0 79 -62 79q-84 0 -179 -99q-15 -95 -27 -254z" />
    <glyph glyph-name="macron" unicode="&#xaf;" horiz-adv-x="808" 
d="M101 1873q-21 0 -35.5 14t-15.5 36q0 21 14.5 35.5t35.5 15.5l506 7q21 0 35.5 -14t15.5 -36q0 -21 -14 -35.5t-36 -15.5z" />
    <glyph glyph-name="degree" unicode="&#xb0;" horiz-adv-x="551" 
d="M230 1652q53 0 71 97q-7 70 -63 73q-19 0 -36 -7q-40 -16 -50 -64v-11q0 -48 38 -74q20 -13 40 -14zM233 1551q-52 0 -100 31q-43 30 -63 71.5t-20 82.5q0 70 41 120q58 67 147 67q44 0 82 -23q82 -51 82 -147q0 -22 -6 -45q-28 -118 -115 -149q-24 -8 -48 -8z" />
    <glyph glyph-name="plusminus" unicode="&#xb1;" horiz-adv-x="797" 
d="M352 1076q-20 0 -35 14.5t-15 35.5v218l-181 -9q-21 0 -36.5 14t-15.5 38q0 19 13.5 33.5t34.5 16.5l184 8v168q0 21 15 35.5t36 14.5t35.5 -14.5t14.5 -35.5l1 -163l192 8q21 0 36.5 -14t15.5 -37q0 -20 -13.5 -34.5t-34.5 -15.5l-196 -9v-222q0 -21 -15 -35.5
t-36 -14.5zM103 920q-22 0 -37.5 14t-15.5 37q0 20 13 34.5t35 15.5l486 25q20 0 35 -13.5t15 -37.5q0 -19 -13 -33.5t-35 -16.5z" />
    <glyph glyph-name="twosuperior" unicode="&#xb2;" horiz-adv-x="545" 
d="M100 1545q-18 0 -33.5 13t-16 24t-0.5 13q0 18 12 33q9 11 14 16.5t7.5 8.5t3.5 4t2 1q79 82 148 196q19 37 19 62q0 18 -8.5 29t-17.5 15t-17 4q-13 -2 -21 -24q-11 -37 -47 -37q-31 0 -44 23q-8 14 -8 26q0 8 2 15q34 98 121 98q71 0 114 -62q25 -36 26 -62.5t1 -29.5
q0 -91 -121 -238q72 15 109 17q21 0 35.5 -15t14.5 -36t-14.5 -35.5t-35.5 -14.5q-17 -1 -147 -27q-65 -14 -93 -17h-5z" />
    <glyph glyph-name="threesuperior" unicode="&#xb3;" horiz-adv-x="511" 
d="M138 1553q-20 0 -42.5 2.5t-34 17.5t-11.5 32q0 24 18 39q14 12 32 12h5q19 -2 35 -2q34 0 58 9q62 21 62 70q0 20 -13 34.5t-40 14.5q-17 0 -40 -6q-9 -3 -18 -3q-34 0 -47 32q-4 10 -4 20q0 32 32 46q78 36 78 87q0 5 -2 9v1q-2 1 -6 1q-15 0 -50 -25q-13 -10 -29 -10
q-25 0 -42 21q-9 14 -9 29q0 25 20 42q65 45 114 45q21 0 38 -8q40 -16 57 -56q10 -23 10 -50q0 -47 -28 -91q81 -44 81 -134q0 -48 -29.5 -92t-81 -65.5t-113.5 -21.5z" />
    <glyph glyph-name="acute" unicode="&#xb4;" horiz-adv-x="332" 
d="M102 1802q-28 0 -42 21q-10 15 -10 31q0 6 31 153q5 21 19.5 30.5t29.5 9.5q28 0 41 -21q10 -15 10 -31q0 -6 -30 -153q-5 -21 -20 -30.5t-29 -9.5z" />
    <glyph glyph-name="mu" unicode="&#xb5;" horiz-adv-x="752" 
d="M102 93q-24 0 -38 15.5t-14 36.5q6 141 6 543l-3 629q0 85 7 168v1q1 2 1 5q5 21 19.5 31t30.5 10q25 0 40 -19q10 -14 10 -30l-4 -67l-2 -148q14 -286 97 -406q34 -49 60 -49q20 0 46 30q51 59 90 217t53 429q1 21 15.5 34.5t34.5 13.5q23 0 37 -15.5t14 -37.5l-1 -742
q0 -21 -15 -35.5t-36 -14.5t-36 14.5t-15 35.5l1 148q-74 -179 -186 -179q-82 0 -146 94l-12 18l1 -219q0 -276 -6 -463q-1 -21 -15.5 -34.5t-33.5 -13.5z" />
    <glyph glyph-name="paragraph" unicode="&#xb6;" horiz-adv-x="1051" 
d="M816 255q-24 0 -44 36q-8 15 -9 47l-4 1344h-158v-1319q-2 -98 -61 -98q-60 0 -62 100l-5 778h-16q-95 0 -179 22q-125 33 -178 104q-48 70 -50 164v19q0 117 33 199q51 120 152 186.5t230 66.5q56 0 59 -1h302q63 0 71 -183q5 -129 5 -306q0 -313 -12 -781v-4
q-3 -155 -3 -205l1 -15q0 -62 -14 -102q-6 -18 -16 -28q-22 -24 -42 -24z" />
    <glyph glyph-name="periodcentered" unicode="&#xb7;" horiz-adv-x="424" 
d="M156 1042q-84 10 -102 92q-4 17 -4 34q0 36 13 66q15 36 42.5 56.5t62.5 20.5q5 0 20 -4q83 -33 86 -117q0 -94 -90 -142z" />
    <glyph glyph-name="periodcentered" unicode="&#x2219;" horiz-adv-x="424" 
d="M156 1042q-84 10 -102 92q-4 17 -4 34q0 36 13 66q15 36 42.5 56.5t62.5 20.5q5 0 20 -4q83 -33 86 -117q0 -94 -90 -142z" />
    <glyph glyph-name="cedilla" unicode="&#xb8;" horiz-adv-x="421" 
d="M101 512q-22 1 -36 15t-15 36q0 21 14.5 35.5t35.5 15.5q70 0 70 58q-1 29 -19 63q-6 12 -6 24q0 30 26 45q12 6 24 6q30 0 45 -26q30 -56 31 -112q0 -42 -19 -78.5t-57.5 -58.5t-93.5 -23z" />
    <glyph glyph-name="onesuperior" unicode="&#xb9;" horiz-adv-x="403" 
d="M146 1441q-23 0 -37 14.5t-14 34.5q0 94 38 366l6 49l-8 -6q-14 -10 -30 -10q-24 0 -41 20q-10 14 -10 30q0 25 20 41l32 26q69 63 100 63q28 0 45 -25q6 -12 6 -24v-6q-5 -58 -19 -167q-3 -5 -24 -190q-11 -96 -14 -168q-1 -21 -15.5 -34.5t-34.5 -13.5z" />
    <glyph glyph-name="ordmasculine" unicode="&#xba;" horiz-adv-x="576" 
d="M217 1563q51 0 87 111q21 69 21 139q0 53 -11 95q-16 62 -53 62q-48 0 -85 -123q-24 -77 -24 -148q0 -114 53 -134q6 -2 12 -2zM223 1461q-23 0 -48 7q-125 46 -125 230q0 85 29 179q59 196 191 196q44 0 75 -25q81 -66 81 -234q0 -85 -25 -170q-29 -94 -77.5 -138.5
t-100.5 -44.5z" />
    <glyph glyph-name="guillemotright" unicode="&#xbb;" horiz-adv-x="826" 
d="M50 905q0 29 14 45l237 247l-223 242q-13 14 -13 36q1 20 16.5 34.5t36.5 14.5q21 -2 35 -17l255 -277q14 -17 14 -36q-2 -21 -16 -35l-269 -279q-16 -15 -36 -15h-3q-19 0 -33 13q-15 17 -15 27zM318 950l238 247l-223 242q-14 16 -14 36q1 20 16.5 34.5t36.5 14.5
q21 -2 35 -17l256 -277q13 -14 13 -36q-2 -21 -16 -35l-269 -279q-15 -15 -35 -15h-3q-20 0 -34 13q-15 17 -15 27q0 29 14 45z" />
    <glyph glyph-name="onequarter" unicode="&#xbc;" horiz-adv-x="900" 
d="M130 538q-11 0 -22 5q-28 15 -28 46q0 11 5 22q30 71 225 854q68 274 124 492q11 39 49 39q29 0 42 -23q8 -14 8 -27q0 -7 -1 -14q-53 -207 -124 -491q-194 -786 -232 -874q-16 -29 -46 -29zM636 575q-23 0 -37 15.5t-14 36.5l10 203h-61q-55 0 -100 -5l-9 -1
q-16 0 -29 10q-21 14 -21 41q0 17 10 30q16 28 69 192l1 1l16 52q13 34 48 34q8 0 16 -2q35 -13 35 -47q0 -12 -16 -58l-49 -146h94l12 241q1 21 16 34.5t36 13.5q22 -2 35.5 -16.5t13.5 -36.5l-11 -229q39 -2 48 -41l1 -11q0 -43 -54 -51l-9 -212q-2 -21 -16.5 -34.5
t-34.5 -13.5zM143 1356q-21 1 -34.5 15.5t-13.5 34.5q0 51 14 176q11 97 24 189l6 50l-8 -6q-15 -10 -32 -10q-23 0 -39 20q-10 14 -10 30q0 25 20 41l31 25q1 0 1 1q71 63 101 63q27 0 44 -26q6 -11 6 -24v-6q-5 -59 -20 -170q-33 -247 -37 -354q-1 -22 -16 -35.5
t-37 -13.5z" />
    <glyph glyph-name="onehalf" unicode="&#xbd;" horiz-adv-x="903" 
d="M127 548q-11 0 -22 5q-30 14 -30 46q0 10 5 21q38 92 230 869q66 267 121 481q11 39 49 39q29 0 42 -23q9 -15 9 -29l-1 -12q-107 -408 -121 -480q-193 -781 -237 -887q-14 -30 -45 -30zM427 633q-16 1 -29 12q-16 15 -17 25.5t-1 12.5q0 18 14 33q117 132 185 252
q20 42 20 70q0 38 -31 54q-10 4 -18 4q-20 0 -30 -30q-11 -37 -48 -37q-31 0 -44 23q-8 14 -8 27q0 7 3 15q27 91 110 102l18 1q75 0 121 -66q27 -38 28 -66.5t1 -31.5q0 -105 -167 -309l173 -16q22 -3 34 -17.5t12 -31.5q0 -25 -18 -40q-15 -12 -34 -12zM144 1356
q-22 1 -35.5 16t-13.5 37q3 96 44 412l-7 -6q-16 -10 -33 -10q-23 0 -38 20q-11 15 -11 31q0 24 21 40l32 26q71 63 101 63q28 0 43 -26q7 -12 7 -26t-20 -171v-3q-31 -214 -38 -354q-1 -22 -16 -35.5t-36 -13.5z" />
    <glyph glyph-name="threequarters" unicode="&#xbe;" horiz-adv-x="1032" 
d="M276 583q-10 0 -20 4q-31 14 -31 47q0 10 4 20q51 129 276 1012q15 58 32 125.5t43 165.5q5 21 19.5 30t28.5 9q29 0 42 -23q9 -15 9 -28q0 -6 -1 -13q-15 -53 -75 -291q-226 -890 -281 -1028q-15 -30 -46 -30zM768 575q-23 0 -37 15.5t-14 36.5l9 203h-61q-54 0 -99 -5
l-9 -1q-17 0 -29 10q-22 14 -22 40q0 18 11 31q14 26 69 191l17 54q12 34 48 34q8 0 16 -2q34 -14 34 -48q0 -9 -19 -69q-21 -67 -45 -134l29 1q31 -1 65 -1l11 241q2 21 16.5 34.5t36.5 13.5q21 -2 34.5 -16t13.5 -34l-10 -232q39 -2 48 -41l1 -10q0 -15 -9 -28
q-13 -19 -45 -24l-10 -212q-1 -21 -15.5 -34.5t-34.5 -13.5zM200 1361q-139 0 -139 63q0 31 22 43q15 9 28 9q7 0 14 -2q42 -11 73 -11q54 0 79 28q19 22 19 50q0 34 -19.5 57.5t-55.5 23.5q-17 0 -38 -5q-10 -3 -19 -3q-33 0 -46 32q-4 9 -4 18q0 33 33 48q75 35 75 92
q0 12 -4.5 22t-12 13.5t-14.5 3.5q-22 0 -60 -27q-15 -10 -30 -10q-26 0 -41 21q-10 14 -10 29q0 25 21 42q51 37 80 41.5t41 4.5q30 0 55 -12q42 -20 62 -62q14 -31 14 -68q0 -48 -26 -94q32 -16 55 -42q45 -54 45 -126q0 -66 -46 -118q-54 -61 -151 -61z" />
    <glyph glyph-name="questiondown" unicode="&#xbf;" horiz-adv-x="819" 
d="M316 248q-54 0 -105 30q-85 49 -130 179q-31 86 -31 209q0 104 22 234q49 284 257 686q39 70 60 166q8 41 8 82q0 34 -5 68l-1 8q0 16 10 30q16 22 41 22q16 0 30 -10q27 -20 27 -117q0 -53 -11 -103q-24 -112 -69 -193q-197 -381 -232.5 -577t-35.5 -295q0 -105 26 -178
q48 -139 139 -139q86 0 163 116q54 80 90 218q5 21 20 30t28 9q30 0 43 -22q9 -15 9 -28q0 -6 -2 -13q-42 -164 -112 -261q-108 -151 -239 -151zM412 2063q-11 0 -24 3q-59 18 -59 74q0 24 16 45q22 33 67 33h11q62 -18 62 -79q0 -26 -16 -47q-20 -29 -57 -29z" />
    <glyph glyph-name="Agrave" unicode="&#xc0;" horiz-adv-x="1607" 
d="M1055 2335q-57 0 -162 164q-125 199 -201 368q-3 8 -3 16q0 26 24 37q8 3 17 3q25 0 36 -24q77 -172 195 -357q82 -126 89 -127h3q15 0 26 -9q15 -13 15 -31q0 -15 -10 -26.5t-27 -13.5h-2zM286 -54q-17 1 -28 12.5t-11 28.5q15 438 84 848q-288 -45 -291 -45
q-13 0 -23 7q-17 13 -17 34q0 12 8.5 23.5t25.5 14.5l312 50q113 618 357 943q134 177 325 244q10 3 35 3q174 0 241 -368q49 -286 52 -661l141 23h6q34 0 40 -34v-6q0 -13 -7 -23q-10 -13 -26 -17l-153 -24q-1 -413 -14 -733q-6 -165 -7 -261q0 -36 -42 -44l-48 -9
q-27 -4 -47 -4q-51 0 -53 47q2 89 7 216v3q14 331 14 755l-753 -120q-72 -426 -87 -865q-1 -17 -12.5 -27.5t-28.5 -10.5zM1165 1050q-6 479 -81 758q-23 85 -56.5 125t-63.5 40q-27 0 -59 -22q-210 -160 -347 -539q-80 -228 -128 -479z" />
    <glyph glyph-name="Aacute" unicode="&#xc1;" horiz-adv-x="1607" 
d="M948 2373q-17 0 -27.5 13t-10.5 28q0 18 12.5 28.5t27.5 10.5h3q10 2 89 128q59 93 113.5 194t81.5 163q12 24 37 24q8 0 16 -4q24 -11 24 -36q0 -21 -87 -184q-197 -365 -279 -365zM286 -54q-17 1 -28 12.5t-11 28.5q15 438 84 848q-287 -45 -290 -45q-14 0 -24 7
q-17 13 -17 34q0 12 8.5 23.5t25.5 14.5l312 50q113 618 357 943q134 177 325 244q10 3 36 3q283 0 292 -1029l141 23h6q34 0 40 -34v-6q0 -13 -8 -24.5t-25 -15.5l-153 -24q-1 -413 -14 -733q-6 -165 -7 -261v-3q0 -14 -9 -25.5t-24 -14.5l-12 -2q-54 -12 -92 -12
q-51 0 -53 47q2 89 7 216v3q14 331 14 755l-752 -120q-73 -421 -88 -865q-1 -17 -12.5 -27.5t-28.5 -10.5zM1166 1050q-7 480 -82 758q-23 85 -56.5 125t-63.5 40q-27 0 -59 -22q-212 -161 -346 -539q-81 -228 -129 -479z" />
    <glyph glyph-name="Acircumflex" unicode="&#xc2;" horiz-adv-x="1607" 
d="M285 -54q-17 1 -28 12.5t-11 28.5q16 438 84 848q-286 -45 -290 -45q-13 0 -24 7q-16 13 -16 32q0 13 8.5 25t24.5 15l312 50q114 618 358 943q134 177 325 244q7 3 36 3q283 0 291 -1029l141 23h6q34 0 40 -34l1 -8q0 -12 -8.5 -23t-25.5 -15l-153 -24q0 -413 -14 -733
q-6 -165 -7 -261v-3q0 -33 -40 -41l-48 -9q-27 -4 -49 -4q-51 0 -52 47l6 219q14 331 14 755l-752 -120q-74 -432 -87 -865q-1 -17 -13 -27.5t-29 -10.5zM1165 1050q-5 483 -81 758q-24 85 -56.5 125t-63.5 40q-26 0 -59 -22q-212 -162 -347 -539q-81 -228 -129 -479z
M684 2189q-14 0 -26.5 10.5t-13.5 19t-1 10.5q0 14 10 26l359 426q11 13 20 13.5t11 0.5q21 0 34 -19q50 -81 156 -199q100 -111 168 -161l4 -2l5 -6h2q19 0 33 -16q7 -11 7 -24q0 -19 -15.5 -30.5t-29.5 -11.5q-21 0 -49 22q-68 46 -185 176q-79 88 -135 165l-324 -385
q-13 -15 -30 -15z" />
    <glyph glyph-name="Atilde" unicode="&#xc3;" horiz-adv-x="1607" 
d="M1180 2323q-78 0 -199 52q-79 35 -122 39t-50 4q-75 0 -154 -72q-12 -11 -26 -11q-19 0 -30.5 12t-11.5 27q0 18 12 30q77 71 129.5 84t87.5 13q76 0 194 -52q78 -35 122 -39.5t52 -4.5q73 0 151 67q12 10 27 10q17 0 28.5 -13t11.5 -27q0 -18 -13 -30
q-77 -67 -127.5 -78t-81.5 -11zM285 -54q-17 1 -27.5 12.5t-10.5 28.5q13 419 84 848q-287 -45 -291 -45q-13 0 -24 7q-16 13 -16 32q0 34 34 40l312 50q111 616 357 943q134 177 325 244q11 3 36 3q281 0 292 -1029l141 23h6q34 0 40 -34l1 -6q0 -32 -35 -40l-152 -24
q-1 -413 -14 -733q0 -3 -1 -5q-5 -162 -7 -256v-3q0 -33 -40 -41l-48 -9q-27 -4 -48 -4q-51 0 -53 47q2 88 7 213v6q13 309 13 699v56l-752 -120q-71 -426 -87 -865q-1 -17 -13 -27.5t-29 -10.5zM1165 1050q-5 479 -81 758q-23 85 -56 125t-64 40q-26 0 -59 -22
q-209 -160 -347 -539q-80 -228 -128 -479z" />
    <glyph glyph-name="Adieresis" unicode="&#xc4;" horiz-adv-x="1607" 
d="M871 2297q-19 0 -30 12.5t-11 29.5l6 112q2 17 13 27.5t27 10.5q19 0 30 -12.5t11 -29.5l-6 -112q-2 -17 -13 -27.5t-27 -10.5zM286 -54q-17 1 -28 12.5t-11 28.5q13 419 84 848q-287 -45 -291 -45q-31 0 -40 33v6q0 13 8.5 25t25.5 15l312 50q114 620 357 943
q134 177 325 244q11 3 36 3q174 0 240 -368q48 -286 52 -661l141 23h6q34 0 40 -34l1 -6q0 -13 -8 -23q-10 -13 -26 -17l-153 -24q-1 -413 -14 -733q-6 -165 -7 -261q0 -36 -41 -44l-48 -9q-27 -4 -48 -4q-51 0 -53 47q2 88 7 212v7q13 309 13 699v56l-752 -120
q-71 -426 -87 -865q-1 -17 -12.5 -27.5t-28.5 -10.5zM1165 1050q-5 479 -81 758q-23 85 -56 125t-63 40q-27 0 -60 -22q-209 -160 -347 -539q-80 -228 -128 -479zM1136 2296q-18 0 -29.5 12.5t-11.5 29.5l6 113q1 17 13 27.5t29 10.5q17 -2 27.5 -13t10.5 -26l-6 -116
q-1 -17 -12.5 -27.5t-26.5 -10.5z" />
    <glyph glyph-name="Aring" unicode="&#xc5;" horiz-adv-x="1607" 
d="M1037 2391q75 0 99 128q-9 103 -95 103q-22 0 -44 -9q-54 -22 -68 -87l-1 -14q0 -67 53 -103q28 -18 56 -18zM286 -54q-17 1 -28 12.5t-11 28.5q15 438 84 848q-287 -45 -290 -45q-14 0 -24 7q-17 13 -17 34q0 12 8.5 23.5t25.5 14.5l312 50q113 618 357 943
q134 177 325 244q10 3 36 3q283 0 292 -1029l141 23h6q34 0 40 -34v-6q0 -13 -8 -24.5t-25 -15.5l-153 -24q0 -413 -14 -733q-6 -165 -7 -261v-3q0 -33 -33 -40l-12 -2q-54 -12 -92 -12q-51 0 -52 47l6 219q14 331 14 755l-752 -120q-73 -421 -88 -865q-1 -17 -12.5 -27.5
t-28.5 -10.5zM1166 1050q-7 480 -82 758q-23 85 -56.5 125t-63.5 40q-27 0 -59 -22q-212 -161 -346 -539q-81 -228 -129 -479zM1038 2310q-55 0 -101.5 32t-68 76.5t-21.5 87.5q0 75 43 125q61 71 154 71q46 0 88 -24q75 -41 85 -157v-10q-25 -158 -128 -192q-26 -9 -51 -9z
" />
    <glyph glyph-name="AE" unicode="&#xc6;" horiz-adv-x="2320" 
d="M286 -54q-17 1 -28 12.5t-11 28.5q15 439 84 851q-286 -48 -290 -48q-14 0 -24 7q-17 12 -17 34q0 12 8.5 23.5t25.5 14.5l312 53q50 271 136.5 515.5t218.5 420.5t320 245q170 61 432 94q316 40 594 41q17 0 28 -11.5t12 -28.5q0 -17 -11.5 -28t-28.5 -12
q-273 -2 -584 -40q-161 -21 -292 -53q176 -180 185 -975q645 108 649 108q13 0 24 -7q16 -11 16 -32q0 -13 -8 -25t-25 -15l-655 -110q0 -418 -14 -743l-2 -60q84 17 177 30q341 43 621 43q73 0 142 -3q17 -1 28 -13t11 -29q-1 -17 -12.5 -27.5t-27.5 -10.5h-2q-69 3 -141 3
q-274 0 -608 -42q-101 -14 -191 -33q-2 -70 -2 -119v-3q0 -33 -42 -41l-48 -9q-27 -4 -47 -4q-51 0 -53 47l2 76q-50 -19 -84 -41q-11 -6 -22 -6q-21 0 -34 18q-7 10 -7 21q0 46 150 94q16 456 16 820l-752 -125q-73 -423 -88 -868q-1 -17 -12.5 -27.5t-28.5 -10.5z
M1165 1059q-4 349 -50 614q0 26 -34 146q-23 84 -56.5 117.5t-60.5 33.5q-32 0 -73 -30q-203 -163 -332 -528q-81 -226 -128 -476z" />
    <glyph glyph-name="Ccedilla" unicode="&#xc7;" horiz-adv-x="1466" 
d="M300 68q-118 24 -187 116q-113 148 -113 412q0 267 100 579q113 353 317 634q150 203 313 296q70 38 135 38q116 0 188 -122q75 -126 87 -437q0 -17 -11 -29t-28 -13q-17 0 -28.5 11t-12.5 28q-11 291 -77 401q-33 58 -51.5 59.5t-20.5 1.5q-54 0 -144 -81
q-91 -89 -165 -195q-138 -186 -233.5 -412.5t-138.5 -450.5q-28 -147 -28 -273q0 -345 185 -439q54 -24 110 -24q25 0 51 5q82 16 159.5 58.5t144.5 87.5q6 3 11 7q251 160 598 493q13 11 29 11t27.5 -12.5t11.5 -28.5t-12 -28q-711 -681 -1098 -700l-24 -1q25 -51 26 -102
q0 -42 -19 -78.5t-57.5 -58.5t-93.5 -23q-22 1 -36 15t-15 36q0 21 14.5 35.5t35.5 15.5q70 0 70 58q-1 29 -19 63q-6 12 -6 24q0 13 5 23z" />
    <glyph glyph-name="Egrave" unicode="&#xc8;" horiz-adv-x="1356" 
d="M372 127q-203 0 -301 137q-71 101 -71 246q0 213 148 456q127 208 373 401q14 13 29 25q-85 -8 -155 -8q-127 0 -200 26q-125 46 -125 143q0 92 89 202q99 122 253 230q128 90 258.5 144.5t228.5 54.5q36 0 70 -12q75 -26 88 -79.5t13 -81.5q0 -76 -42 -191
q-9 -26 -38 -26q-26 0 -35 20q-5 12 -5 21q0 6 2 13q37 101 37 159q0 74 -48 90q-14 5 -29 7q-130 -10 -288 -109t-262 -228q-75 -96 -75 -164q0 -76 114 -106q69 -18 180 -18q28 0 132 16l8 1q12 0 22 -8q18 -12 18 -30q0 -24 -21 -37q-90 -55 -166 -114
q-190 -170 -288 -345q-110 -198 -110 -371q0 -95 35 -167q41 -86 130 -125q59 -25 136 -25q48 0 102 9q96 17 167 49.5t147 85.5q208 142 461 400q12 12 28 12t28.5 -11.5t12.5 -27.5t-12 -29q-252 -260 -465 -405q-86 -59 -177 -108q-232 -122 -397 -122zM790 2405
q-57 0 -162 164q-125 199 -201 368q-3 8 -3 16q0 26 24 37q8 3 17 3q25 0 36 -24q77 -172 195 -357q82 -126 89 -127h3q15 0 26 -9q15 -13 15 -31q0 -15 -10 -26.5t-27 -13.5h-2z" />
    <glyph glyph-name="Eacute" unicode="&#xc9;" horiz-adv-x="1356" 
d="M372 127q-203 0 -301 137q-71 101 -71 246q0 213 148 456q127 208 373 401q14 13 29 25q-85 -8 -155 -8q-127 0 -200 26q-125 46 -125 143q0 92 89 202q99 122 253 230q128 90 258.5 144.5t228.5 54.5q36 0 70 -12q75 -26 88 -79.5t13 -81.5q0 -76 -42 -191
q-9 -26 -38 -26q-26 0 -35 20q-5 12 -5 21q0 6 2 13q37 101 37 159q0 74 -48 90q-14 5 -29 7q-130 -10 -288 -109t-262 -228q-75 -96 -75 -164q0 -76 114 -106q69 -18 180 -18q28 0 132 16l8 1q12 0 22 -8q18 -12 18 -30q0 -24 -21 -37q-90 -55 -166 -114
q-190 -170 -288 -345q-110 -198 -110 -371q0 -95 35 -167q41 -86 130 -125q59 -25 136 -25q48 0 102 9q96 17 167 49.5t147 85.5q208 142 461 400q12 12 28 12t28.5 -11.5t12.5 -27.5t-12 -29q-252 -260 -465 -405q-86 -59 -177 -108q-232 -122 -397 -122zM684 2374
q-17 0 -27.5 13t-10.5 28q0 18 12.5 28.5t27.5 10.5h3q10 2 89 128q59 93 113.5 194t81.5 163q12 24 37 24q8 0 16 -4q24 -11 24 -36q0 -21 -87 -184q-197 -365 -279 -365z" />
    <glyph glyph-name="Ecircumflex" unicode="&#xca;" horiz-adv-x="1356" 
d="M372 127q-203 0 -301 137q-71 101 -71 246q0 213 148 456q127 208 373 401q14 13 29 25q-85 -8 -155 -8q-127 0 -200 26q-125 46 -125 143q0 92 89 202q99 122 253 230q128 90 258.5 144.5t228.5 54.5q36 0 70 -12q75 -26 88 -79.5t13 -81.5q0 -76 -42 -191
q-9 -26 -38 -26q-26 0 -35 20q-5 12 -5 21q0 6 2 13q37 101 37 159q0 74 -48 90q-14 5 -29 7q-130 -10 -288 -109t-262 -228q-75 -96 -75 -164q0 -76 114 -106q69 -18 180 -18q28 0 132 16l8 1q12 0 22 -8q18 -12 18 -30q0 -24 -21 -37q-90 -55 -166 -114
q-190 -170 -288 -345q-110 -198 -110 -371q0 -95 35 -167q41 -86 130 -125q59 -25 136 -25q48 0 102 9q96 17 167 49.5t147 85.5q208 142 461 400q12 12 28 12t28.5 -11.5t12.5 -27.5t-12 -29q-252 -260 -465 -405q-86 -59 -177 -108q-232 -122 -397 -122zM369 2222
q-14 0 -26.5 10.5t-13.5 19t-1 10.5q0 14 10 26l359 426q11 13 20 13.5t11 0.5q21 0 34 -19q50 -81 156 -199q100 -111 168 -161l4 -2l5 -6h2q19 0 33 -16q7 -11 7 -24q0 -19 -15.5 -30.5t-29.5 -11.5q-21 0 -49 22q-68 46 -185 176q-79 88 -135 165l-324 -385
q-13 -15 -30 -15z" />
    <glyph glyph-name="Edieresis" unicode="&#xcb;" horiz-adv-x="1356" 
d="M372 127q-203 0 -301 137q-71 101 -71 246q0 213 148 456q127 208 373 401q14 13 29 25q-85 -8 -155 -8q-127 0 -200 26q-125 46 -125 143q0 92 89 202q99 122 253 230q128 90 258.5 144.5t228.5 54.5q36 0 70 -12q75 -26 88 -79.5t13 -81.5q0 -76 -42 -191
q-9 -26 -38 -26q-26 0 -35 20q-5 12 -5 21q0 6 2 13q37 101 37 159q0 74 -48 90q-14 5 -29 7q-130 -10 -288 -109t-262 -228q-75 -96 -75 -164q0 -76 114 -106q69 -18 180 -18q28 0 132 16l8 1q12 0 22 -8q18 -12 18 -30q0 -24 -21 -37q-90 -55 -166 -114
q-190 -170 -288 -345q-110 -198 -110 -371q0 -95 35 -167q41 -86 130 -125q59 -25 136 -25q48 0 102 9q96 17 167 49.5t147 85.5q208 142 461 400q12 12 28 12t28.5 -11.5t12.5 -27.5t-12 -29q-252 -260 -465 -405q-86 -59 -177 -108q-232 -122 -397 -122zM548 2343
q-19 0 -30 12.5t-11 29.5l6 112q2 17 13 27.5t27 10.5q19 0 30 -12.5t11 -29.5l-6 -112q-2 -17 -13 -27.5t-27 -10.5zM813 2342q-19 0 -30 12.5t-11 29.5l6 113q1 17 13 27.5t29 10.5q17 -2 27.5 -13t10.5 -26l-6 -116q-1 -17 -12.5 -27.5t-26.5 -10.5z" />
    <glyph glyph-name="Igrave" unicode="&#xcc;" horiz-adv-x="783" 
d="M358 90q-49 0 -60 36q-2 5 -2 13q1 28 5 56l149 1589q4 52 4 93q0 116 -33 150q-11 12 -26 12q-17 0 -42 -16q-50 -42 -98 -103q-68 -99 -117.5 -252.5t-57.5 -346.5q-1 -17 -12.5 -28t-28.5 -11q-17 1 -28 12.5t-11 28.5q8 205 61.5 369.5t126.5 271.5q33 49 95 106
q55 51 108 75.5t93 24.5q22 0 43 -6h2q116 -34 116 -250q0 -42 -4 -90l-75 -788q-77 -842 -77 -861l1 -32q0 -53 -132 -53zM628 2379q-57 0 -163 164q-124 199 -201 368q-3 8 -3 16q0 26 24 37q9 3 17 3q26 0 36 -24q78 -172 195 -357q83 -126 89 -127h3q15 0 26 -9
q15 -13 15 -31q0 -15 -10 -26.5t-27 -13.5h-1z" />
    <glyph glyph-name="Iacute" unicode="&#xcd;" horiz-adv-x="783" 
d="M358 90q-49 0 -60 36q-2 5 -2 13q1 28 5 56l149 1589q4 52 4 93q0 116 -33 150q-11 12 -26 12q-17 0 -42 -16q-50 -42 -98 -103q-68 -99 -117.5 -252.5t-57.5 -346.5q-1 -17 -12.5 -28t-28.5 -11q-17 1 -28 12.5t-11 28.5q8 205 61.5 369.5t126.5 271.5q33 49 95 106
q55 51 108 75.5t93 24.5q22 0 43 -6h2q116 -34 116 -250q0 -42 -4 -90l-75 -788q-77 -842 -77 -861l1 -32q0 -53 -132 -53zM384 2354q-17 0 -28 13t-11 28q0 18 12.5 28.5t27.5 10.5h3q11 2 89 128q59 93 113.5 194t81.5 163q13 24 37 24q8 0 16 -4q25 -11 25 -36
q0 -21 -88 -184q-196 -365 -278 -365z" />
    <glyph glyph-name="Icircumflex" unicode="&#xce;" horiz-adv-x="783" 
d="M358 90q-49 0 -60 36q-2 5 -2 13q1 28 5 56l149 1589q4 52 4 93q0 116 -33 150q-11 12 -26 12q-17 0 -42 -16q-50 -42 -98 -103q-68 -99 -117.5 -252.5t-57.5 -346.5q-1 -17 -12.5 -28t-28.5 -11q-17 1 -28 12.5t-11 28.5q8 205 61.5 369.5t126.5 271.5q33 49 95 106
q55 51 108 75.5t93 24.5q22 0 43 -6h2q116 -34 116 -250q0 -42 -4 -90l-75 -788q-77 -842 -77 -861l1 -32q0 -53 -132 -53zM121 2351q-14 0 -26.5 10.5t-13.5 19t-1 10.5q0 14 10 26l359 426q11 13 20 13.5t11 0.5q21 0 34 -19q50 -81 156 -199q100 -111 168 -161l4 -2l5 -6
h2q19 0 33 -16q7 -11 7 -24q0 -19 -15.5 -30.5t-29.5 -11.5q-21 0 -49 22q-68 46 -185 176q-79 88 -135 165l-324 -385q-13 -15 -30 -15z" />
    <glyph glyph-name="Idieresis" unicode="&#xcf;" horiz-adv-x="783" 
d="M358 90q-49 0 -60 36q-2 5 -2 13q1 28 5 56l149 1589q4 52 4 93q0 116 -33 150q-11 12 -26 12q-17 0 -42 -16q-50 -42 -98 -103q-68 -99 -117.5 -252.5t-57.5 -346.5q-1 -17 -12.5 -28t-28.5 -11q-17 1 -28 12.5t-11 28.5q8 205 61.5 369.5t126.5 271.5q33 49 95 106
q55 51 108 75.5t93 24.5q22 0 43 -6h2q116 -34 116 -250q0 -42 -4 -90l-75 -788q-77 -842 -77 -861l1 -32q0 -53 -132 -53zM357 2335q-19 0 -30 12.5t-11 29.5l6 112q2 17 13 27.5t27 10.5q19 0 30 -12.5t11 -29.5l-6 -112q-2 -17 -13 -27.5t-27 -10.5zM621 2334
q-18 0 -29 12.5t-11 29.5l6 113q1 17 13 27.5t29 10.5q17 -2 27.5 -13t10.5 -26l-6 -116q-1 -17 -12.5 -27.5t-27.5 -10.5z" />
    <glyph glyph-name="Eth" unicode="&#xd0;" horiz-adv-x="1561" 
d="M-248 1242q0 30 27 43t102 14q38 1 67 1h49l180 -1q13 368 33 671q2 27 27 37q42 14 103 14l24 -1q17 -1 28 -12.5t11 -28.5l-1 -5q-2 -20 -4.5 -40t-4.5 -42q233 198 443 198q66 0 126 -20t112 -55.5t95.5 -83t77.5 -102.5q41 -66 69.5 -139t47.5 -149.5t27.5 -155.5
t8.5 -156q0 -158 -32 -310t-97.5 -289t-163.5 -255.5t-230 -208.5q-197 -130 -402 -130q-57 0 -114.5 12t-110 35.5t-98.5 57.5t-79.5 78t-53 97.5t-19.5 115.5q0 167 156 336q5 105 9.5 212t8.5 218l-236 2q-102 0 -112 -3q-12 -6 -23 -6q-22 0 -36.5 15t-14.5 36z
M358 1197q0 -26 -0.5 -51t-1.5 -51q-1 -43 -2 -85.5t-3 -84.5q9 6 26.5 16.5t39.5 23.5t46 26.5t46 24.5t39.5 18t25.5 7q17 0 27.5 -12.5t10.5 -28.5q0 -24 -23 -35q-141 -67 -241 -138q-10 -386 -30 -406q-11 -11 -25 -12q-33 -3 -67 -3l-48 -1q-19 0 -30 12.5t-11 27.5v3
q8 89 12 186q-70 -103 -70 -201q0 -64 26 -116t68.5 -90.5t98 -64t113.5 -36.5q17 -2 32.5 -3.5t31.5 -1.5q57 0 115.5 20t115.5 54t110 78.5t99 93.5t84 99.5t64 96.5q175 304 175 668q0 85 -12 176t-39.5 178.5t-72 166t-108.5 138.5q-75 71 -135 84q-62 14 -91 14
q-154 0 -371 -215q-7 -114 -12.5 -232t-9.5 -243h21q229 0 257 9q9 4 20 4q21 0 35.5 -15.5t14.5 -35.5q0 -34 -31 -47q-42 -13 -138 -15q-48 -1 -84.5 -1h-62.5h-35z" />
    <glyph glyph-name="Ntilde" unicode="&#xd1;" horiz-adv-x="1718" 
d="M94 211q-38 0 -67 24q-27 19 -27 44l35 1493q3 45 32 67.5t65 22.5q63 0 88 -55q3 -7 3 -19l-17 -732q74 313 182.5 541t230.5 360q160 173 313 173q220 0 319 -335q54 -183 59 -475q0 -76 -2.5 -175.5t-2.5 -272.5q2 -330 77 -387q11 -5 23 -5q16 0 35 10q32 17 51 35
q81 71 222 287q13 18 35 18q11 0 21 -6q18 -13 18 -33q0 -12 -7 -23q-114 -175 -201 -261q-61 -63 -138 -110q-72 -41 -127 -41q-203 0 -203 486q0 149 5 277q5 116 5 200q-6 345 -94 529q-76 162 -179 162q-32 0 -63 -14q-179 -118 -334 -454q-107 -230 -177.5 -549
t-85.5 -715q0 -23 -27 -42l-2 -2q-30 -22 -65 -23zM617 2180q-78 0 -198 52q-79 35 -122.5 39t-50.5 4q-74 0 -153 -72q-12 -11 -27 -11q-18 0 -29.5 12t-11.5 27q0 18 12 30q77 71 129.5 84t86.5 13q76 0 195 -52q78 -35 121.5 -39.5t51.5 -4.5q73 0 152 67q12 10 26 10
q17 0 29 -13t12 -27q0 -18 -13 -30q-77 -67 -128 -78t-82 -11z" />
    <glyph glyph-name="Ograve" unicode="&#xd2;" horiz-adv-x="1418" 
d="M564 183q30 0 65 10q165 50 283 210q134 182 202 438q67 250 67 503q0 250 -71 443q-69 184 -209 250q-54 23 -125 23q-135 0 -289 -96q-193 -124 -306 -380q-71 -160 -97 -381q-3 -42 -3 -76q0 -125 44 -227q10 118 33 233q42 215 120 387t183 253q5 5 11 8h1q15 6 36 6
q18 0 40 -5q43 -11 71 -36q20 -18 20 -37q0 -18 -14 -31q-89 -80 -158 -239.5t-107 -356.5q-37 -188 -37 -368v-50q108 -71 242 -86l11 -1q17 -2 27 -13.5t10 -25.5q0 -20 -13 -30.5t-28 -10.5l-15 1q-123 14 -228 69q20 -206 109 -317q44 -51 74.5 -59t50.5 -8zM528 99
q-52 0 -107 10q-112 23 -180 119q-104 150 -119 401q-4 59 -4 121q-118 162 -118 375q0 35 3 72l1 15q49 406 255 653q86 103 184 166q176 110 334 110q86 0 156 -31q164 -76 245 -280q83 -212 83 -492q0 -261 -69 -518q-73 -270 -216 -465q-189 -256 -448 -256zM790 2345
q-57 0 -162 164q-125 199 -201 368q-3 8 -3 16q0 26 24 37q8 3 17 3q25 0 36 -24q77 -172 195 -357q82 -126 89 -127h3q15 0 26 -9q15 -13 15 -31q0 -15 -10 -26.5t-27 -13.5h-2z" />
    <glyph glyph-name="Oacute" unicode="&#xd3;" horiz-adv-x="1418" 
d="M564 183q30 0 65 10q165 50 283 210q134 182 202 438q67 250 67 503q0 250 -71 443q-69 184 -209 250q-54 23 -125 23q-135 0 -289 -96q-193 -124 -306 -380q-71 -160 -97 -381q-3 -42 -3 -76q0 -125 44 -227q10 118 33 233q42 215 120 387t183 253q5 5 11 8h1q15 6 36 6
q18 0 40 -5q43 -11 71 -36q20 -18 20 -37q0 -18 -14 -31q-89 -80 -158 -239.5t-107 -356.5q-37 -188 -37 -368v-50q108 -71 242 -86l11 -1q17 -2 27 -13.5t10 -25.5q0 -20 -13 -30.5t-28 -10.5l-15 1q-123 14 -228 69q20 -206 109 -317q44 -51 74.5 -59t50.5 -8zM528 99
q-52 0 -107 10q-112 23 -180 119q-104 150 -119 401q-4 59 -4 121q-118 162 -118 375q0 35 3 72l1 15q49 406 255 653q86 103 184 166q176 110 334 110q86 0 156 -31q164 -76 245 -280q83 -212 83 -492q0 -261 -69 -518q-73 -270 -216 -465q-189 -256 -448 -256zM622 2383
q-17 0 -27.5 13t-10.5 28q0 18 12.5 28.5t27.5 10.5h3q10 2 89 128q59 93 113.5 194t81.5 163q12 24 37 24q8 0 16 -4q24 -11 24 -36q0 -21 -87 -184q-197 -365 -279 -365z" />
    <glyph glyph-name="Ocircumflex" unicode="&#xd4;" horiz-adv-x="1418" 
d="M564 183q30 0 65 10q165 50 283 210q134 182 202 438q67 250 67 503q0 250 -71 443q-69 184 -209 250q-54 23 -125 23q-135 0 -289 -96q-193 -124 -306 -380q-71 -160 -97 -381q-3 -42 -3 -76q0 -125 44 -227q10 118 33 233q42 215 120 387t183 253q5 5 11 8h1q15 6 36 6
q18 0 40 -5q43 -11 71 -36q20 -18 20 -37q0 -18 -14 -31q-89 -80 -158 -239.5t-107 -356.5q-37 -188 -37 -368v-50q108 -71 242 -86l11 -1q17 -2 27 -13.5t10 -25.5q0 -20 -13 -30.5t-28 -10.5l-15 1q-123 14 -228 69q20 -206 109 -317q44 -51 74.5 -59t50.5 -8zM528 99
q-52 0 -107 10q-112 23 -180 119q-104 150 -119 401q-4 59 -4 121q-118 162 -118 375q0 35 3 72l1 15q49 406 255 653q86 103 184 166q176 110 334 110q86 0 156 -31q164 -76 245 -280q83 -212 83 -492q0 -261 -69 -518q-73 -270 -216 -465q-189 -256 -448 -256zM407 2256
q-14 0 -26.5 10.5t-13.5 19t-1 10.5q0 14 10 26l359 426q11 13 20 13.5t11 0.5q21 0 34 -19q50 -81 156 -199q100 -111 168 -161l4 -2l5 -6h2q19 0 33 -16q7 -11 7 -24q0 -19 -15.5 -30.5t-29.5 -11.5q-21 0 -49 22q-68 46 -185 176q-79 88 -135 165l-324 -385
q-13 -15 -30 -15z" />
    <glyph glyph-name="Otilde" unicode="&#xd5;" horiz-adv-x="1418" 
d="M564 183q30 0 65 10q165 50 283 210q134 182 202 438q67 250 67 503q0 250 -71 443q-69 184 -209 250q-54 23 -125 23q-135 0 -289 -96q-193 -124 -306 -380q-71 -160 -97 -381q-3 -42 -3 -76q0 -125 44 -227q10 118 33 233q42 215 120 387t183 253q5 5 11 8h1q15 6 36 6
q18 0 40 -5q43 -11 71 -36q20 -18 20 -37q0 -18 -14 -31q-89 -80 -158 -239.5t-107 -356.5q-37 -188 -37 -368v-50q108 -71 242 -86l11 -1q17 -2 27 -13.5t10 -25.5q0 -20 -13 -30.5t-28 -10.5l-15 1q-123 14 -228 69q20 -206 109 -317q44 -51 74.5 -59t50.5 -8zM528 99
q-52 0 -107 10q-112 23 -180 119q-104 150 -119 401q-4 59 -4 121q-118 162 -118 375q0 35 3 72l1 15q49 406 255 653q86 103 184 166q176 110 334 110q86 0 156 -31q164 -76 245 -280q83 -212 83 -492q0 -261 -69 -518q-73 -270 -216 -465q-189 -256 -448 -256zM950 2313
q-78 0 -198 52q-79 35 -122.5 39t-49.5 4q-75 0 -154 -72q-12 -11 -27 -11q-18 0 -29.5 12t-11.5 27q0 18 12 30q77 71 129.5 84t87.5 13q76 0 194 -52q78 -35 122 -39.5t52 -4.5q72 0 151 67q12 10 26 10q18 0 29.5 -13t11.5 -27q0 -18 -13 -30q-77 -67 -127.5 -78
t-82.5 -11z" />
    <glyph glyph-name="Odieresis" unicode="&#xd6;" horiz-adv-x="1418" 
d="M564 183q30 0 65 10q165 50 283 210q134 182 202 438q67 250 67 503q0 250 -71 443q-69 184 -209 250q-54 23 -125 23q-135 0 -289 -96q-193 -124 -306 -380q-71 -160 -97 -381q-3 -42 -3 -76q0 -125 44 -227q10 118 33 233q42 215 120 387t183 253q5 5 11 8h1q15 6 36 6
q18 0 40 -5q43 -11 71 -36q20 -18 20 -37q0 -18 -14 -31q-89 -80 -158 -239.5t-107 -356.5q-37 -188 -37 -368v-50q108 -71 242 -86l11 -1q17 -2 27 -13.5t10 -25.5q0 -20 -13 -30.5t-28 -10.5l-15 1q-123 14 -228 69q20 -206 109 -317q44 -51 74.5 -59t50.5 -8zM528 99
q-52 0 -107 10q-112 23 -180 119q-104 150 -119 401q-4 59 -4 121q-118 162 -118 375q0 35 3 72l1 15q49 406 255 653q86 103 184 166q176 110 334 110q86 0 156 -31q164 -76 245 -280q83 -212 83 -492q0 -261 -69 -518q-73 -270 -216 -465q-189 -256 -448 -256zM653 2324
q-19 0 -30 12.5t-11 29.5l6 112q2 17 13 27.5t27 10.5q19 0 30 -12.5t11 -29.5l-6 -112q-2 -17 -13 -27.5t-27 -10.5zM918 2323q-19 0 -30 12.5t-11 29.5l6 113q1 17 13 27.5t29 10.5q17 -2 27.5 -13t10.5 -26l-6 -116q-1 -17 -12.5 -27.5t-26.5 -10.5z" />
    <glyph glyph-name="multiply" unicode="&#xd7;" horiz-adv-x="713" 
d="M499 744q-25 0 -42 23q-20 28 -156 131q-141 -101 -155 -127.5t-45 -26.5q-11 0 -23 6q-28 15 -28 44q0 49 166 167l-146 107q-17 14 -18 26t-1 16q0 15 9 29q16 21 41 21q16 0 30 -11l172 -126q122 84 178 126q15 11 31 11q25 0 40 -21q11 -14 11 -30q0 -24 -21 -41
q-83 -62 -154 -109q162 -121 162 -164q0 -26 -22 -42q-14 -9 -29 -9z" />
    <glyph glyph-name="Oslash" unicode="&#xd8;" horiz-adv-x="1450" 
d="M42 6q-18 0 -30 12t-12 28t12 29q80 79 190 243q-52 159 -52 382q-118 161 -118 379q0 33 3 68l1 14q49 408 255 653q86 103 184 167q175 109 333 109q191 0 310 -150l100 186q12 20 35 20q9 0 19 -4q21 -13 21 -36q0 -10 -5 -19l-119 -223q124 -231 124 -576
q0 -261 -69 -519q-73 -270 -215 -465q-190 -256 -452 -256q-149 0 -230 72q-53 46 -87 111q-98 -141 -172 -214q-11 -11 -26 -11zM380 599q266 444 687 1244l10 19q-86 127 -226 146q-20 2 -41 2q-137 0 -291 -96q-192 -125 -305 -380q-72 -161 -98 -382q-3 -35 -3 -74
q0 -125 44 -228q30 347 153 620q78 172 183 253q5 5 12 8q15 6 34 6t42 -6q63 -15 86 -53q5 -9 5 -19q0 -19 -14 -32q-89 -79 -158 -239t-107 -357q-38 -191 -38 -374l1 -43zM588 130q204 19 356 222q134 183 202 439q67 246 67 497q0 288 -89 491q-407 -774 -672 -1215
q70 -28 147 -37q47 -5 47 -41q0 -18 -13 -29t-28 -11q-11 0 -15 2q-95 10 -180 46q-18 -30 -36 -58q27 -150 97 -236q47 -55 117 -70z" />
    <glyph glyph-name="Ugrave" unicode="&#xd9;" horiz-adv-x="1507" 
d="M517 52q-136 0 -251 106t-173 290q-93 306 -93 1105q0 335 10 490q2 22 20 33q26 13 74 13q79 0 103 -32q6 -10 6 -24q-10 -161 -10 -487q0 -487 39 -815q23 -195 56 -276q51 -158 142 -244q59 -56 134 -56q29 0 62 9l28 16q103 65 191 234q93 180 146 574
q54 398 78 1039q0 24 22 37q40 20 85 20q25 0 47.5 -7t35.5 -20.5t13 -28.5q0 -855 -4 -1830v-5l-1 -2h1l-1 -4q-16 -44 -105 -44q-21 0 -45 2l-19 2q-15 3 -24.5 14.5t-9.5 24.5l3 768q-54 -389 -150 -576q-173 -326 -410 -326zM761 2337q-58 0 -163 164q-125 199 -201 368
q-3 8 -3 16q0 26 24 37q9 3 17 3q25 0 36 -24q78 -172 195 -357q82 -126 89 -127h3q15 0 26 -9q15 -13 15 -31q0 -15 -10 -26.5t-27 -13.5h-1z" />
    <glyph glyph-name="Uacute" unicode="&#xda;" horiz-adv-x="1507" 
d="M517 52q-136 0 -251 106t-173 290q-93 306 -93 1105q0 335 10 490q2 22 20 33q26 13 74 13q79 0 103 -32q6 -10 6 -24q-10 -161 -10 -487q0 -487 39 -815q23 -195 56 -276q51 -158 142 -244q59 -56 134 -56q29 0 62 9l28 16q103 65 191 234q93 180 146 574
q54 398 78 1039q0 24 22 37q40 20 85 20q25 0 47.5 -7t35.5 -20.5t13 -28.5q0 -855 -4 -1830v-5l-1 -2h1l-1 -4q-16 -44 -105 -44q-21 0 -45 2l-19 2q-15 3 -24.5 14.5t-9.5 24.5l3 768q-54 -389 -150 -576q-173 -326 -410 -326zM592 2316q-16 0 -27 13t-11 28
q0 18 12.5 28.5t27.5 10.5h3q10 2 89 128q59 93 113.5 194t81.5 163q13 24 37 24q8 0 16 -4q25 -11 25 -36q0 -21 -88 -184q-197 -365 -279 -365z" />
    <glyph glyph-name="Ucircumflex" unicode="&#xdb;" horiz-adv-x="1507" 
d="M517 52q-136 0 -251 106t-173 290q-93 306 -93 1105q0 335 10 490q2 22 20 33q26 13 74 13q79 0 103 -32q6 -10 6 -24q-10 -161 -10 -487q0 -487 39 -815q23 -195 56 -276q51 -158 142 -244q59 -56 134 -56q29 0 62 9l28 16q103 65 191 234q93 180 146 574
q54 398 78 1039q0 24 22 37q40 20 85 20q25 0 47.5 -7t35.5 -20.5t13 -28.5q0 -855 -4 -1830v-5l-1 -2h1l-1 -4q-16 -44 -105 -44q-21 0 -45 2l-19 2q-15 3 -24.5 14.5t-9.5 24.5l3 768q-54 -389 -150 -576q-173 -326 -410 -326zM311 2294q-14 0 -26.5 10.5t-13.5 19
t-1 10.5q0 14 10 26l359 426q11 13 20 13.5t11 0.5q21 0 34 -19q50 -81 156 -199q100 -111 168 -161l4 -2l5 -6h2q19 0 33 -16q7 -11 7 -24q0 -19 -15.5 -30.5t-29.5 -11.5q-21 0 -49 22q-68 46 -185 176q-79 88 -135 165l-324 -385q-13 -15 -30 -15z" />
    <glyph glyph-name="Udieresis" unicode="&#xdc;" horiz-adv-x="1507" 
d="M517 52q-136 0 -251 106t-173 290q-93 306 -93 1105q0 335 10 490q2 22 20 33q26 13 74 13q79 0 103 -32q6 -10 6 -24q-10 -161 -10 -487q0 -487 39 -815q23 -195 56 -276q51 -158 142 -244q59 -56 134 -56q29 0 62 9l28 16q103 65 191 234q93 180 146 574
q54 398 78 1039q0 24 22 37q40 20 85 20q25 0 47.5 -7t35.5 -20.5t13 -28.5q0 -855 -4 -1830v-5l-1 -2h1l-1 -4q-16 -44 -105 -44q-21 0 -45 2l-19 2q-15 3 -24.5 14.5t-9.5 24.5l3 768q-54 -389 -150 -576q-173 -326 -410 -326zM556 2259q-19 0 -30 12.5t-11 29.5l6 112
q2 17 13 27.5t27 10.5q19 0 30 -12.5t11 -29.5l-6 -112q-2 -17 -13 -27.5t-27 -10.5zM821 2258q-18 0 -29.5 12.5t-11.5 29.5l6 113q1 17 13 27.5t29 10.5q17 -2 27.5 -13t10.5 -26l-6 -116q-1 -17 -12.5 -27.5t-26.5 -10.5z" />
    <glyph glyph-name="Yacute" unicode="&#xdd;" horiz-adv-x="1516" 
d="M636 -149q-34 0 -66 11q-55 23 -75 105q-7 31 -7 68q0 113 58 240q53 116 164 230.5t290 199.5q102 454 153 1067q-117 -299 -267 -530t-304 -357q-93 -76 -181 -103q-7 -4 -15 -4q-38 -10 -74 -10q-135 0 -220 152q-77 138 -84.5 313t-7.5 230q0 275 58 681q2 10 10 20
q4 6 24 17q29 15 71 15q30 0 72 -9q20 -6 28 -23q1 -1 1 -2t1 -3v-1q2 -5 2 -11l-1 -6q-60 -415 -60 -691q0 -129 13 -227q11 -116 40 -213.5t68.5 -115t57.5 -17.5q58 0 147 70q187 155 364.5 466t285.5 707q6 19 23 27q41 21 88 21q43 0 81 -28q14 -12 14 -29l-1 -4
q-9 -178 -53 -605q-37 -356 -108 -717q133 34 296 45h3q15 0 26.5 -10.5t13.5 -27.5q0 -17 -10.5 -29t-27.5 -13q-179 -12 -320 -54q-48 -211 -113 -376q-79 -195 -159 -297q-37 -48 -98.5 -93.5t-114.5 -62t-86 -16.5zM614 -58q54 0 140 129q64 96 139 279q45 113 81 253
q-254 -143 -356 -362q-51 -119 -51 -202q0 -28 6 -53q11 -44 41 -44zM679 2335q-17 0 -27.5 13t-10.5 28q0 18 12.5 28.5t27.5 10.5h3q10 2 89 128q59 93 113.5 194t81.5 163q12 24 36 24q9 0 17 -4q24 -11 24 -36q0 -21 -87 -184q-197 -365 -279 -365z" />
    <glyph glyph-name="Thorn" unicode="&#xde;" horiz-adv-x="1089" 
d="M101 203q-22 0 -36.5 16t-14.5 37l82 1426q1 21 15.5 34t34.5 13q23 0 37 -15.5t14 -37.5l-16 -272q90 17 176 18q199 0 341 -79q149 -82 193 -231q12 -42 12 -89q0 -184 -57.5 -287t-152.5 -147.5t-196 -53t-189 -8.5h-69q-58 0 -108 -3l-15 -273q-2 -22 -16.5 -35
t-34.5 -13zM173 626q46 2 97 2l79 -1q99 0 200 15q122 18 204.5 102t84.5 278q-5 151 -153 233q-119 66 -291 66q-88 -1 -183 -23z" />
    <glyph glyph-name="germandbls" unicode="&#xdf;" horiz-adv-x="1150" 
d="M668 161q-41 0 -81 17q-79 33 -138 107q-93 120 -116 252v6q0 44 42 52l9 1q16 0 29 -10q17 -11 21 -33q18 -106 94 -204q43 -54 96 -77q21 -9 44 -9q84 0 168 118q63 93 63 188q0 70 -34 136q-46 93 -150 166q-121 85 -307 120q-18 4 -29.5 19t-11.5 32q0 23 19 39
q92 75 145 178q60 115 60 222q0 112 -80 144q-24 10 -56 10q-85 0 -228 -68l-76 -1307q-1 -21 -16.5 -34.5t-36.5 -13.5q-22 2 -35 16.5t-13 34.5l78 1337q0 5 1 9q0 2 4 12l2 4q7 11 19 18h1q131 69 199 80.5t103 11.5q50 0 89 -15q83 -32 118 -108q29 -61 29 -137l-1 -23
q-15 -200 -171 -383q146 -41 252 -115q125 -88 183 -204q44 -88 44 -181q0 -127 -81 -245q-115 -163 -251 -163z" />
    <glyph glyph-name="agrave" unicode="&#xe0;" 
d="M227 594q26 0 59 19q175 95 431 424q-164 114 -289 123q-76 -2 -134 -61.5t-92 -146.5q-43 -109 -43 -212q0 -40 8 -73q15 -62 33.5 -67.5t26.5 -5.5zM155 499q-62 0 -104 32q-90 68 -90 221q0 172 114 328q66 87 150 125.5t167 38.5q39 0 80 -7q131 -21 293 -136l24 32
q17 23 70 23q83 0 98 -19q10 -12 10 -27q0 -5 -2 -11q-33 -130 -33 -233q0 -73 16 -130t39.5 -83.5t48.5 -26.5q19 0 42 11q96 47 225 177q13 11 29 12q16 0 28 -12t12 -28t-12 -29q-171 -170 -296 -214l-4 -1q-49 -18 -97 -18q-61 0 -107 32q-113 76 -113 292q0 48 6 101
q-175 -216 -310.5 -321.5t-197.5 -117t-86 -11.5zM555 1403q-41 0 -79 81q-25 52 -47 109v1q-14 36 -26 64q-4 11 -4 21q0 32 30 46q11 4 21 4q32 0 45.5 -29.5t28.5 -69.5q48 -124 59 -133q24 -16 24 -42q0 -14 -8 -28q-16 -24 -44 -24z" />
    <glyph glyph-name="aacute" unicode="&#xe1;" 
d="M227 594q26 0 59 19q175 95 431 424q-164 114 -289 123q-76 -2 -134 -61.5t-92 -146.5q-43 -109 -43 -212q0 -40 8 -73q15 -62 33.5 -67.5t26.5 -5.5zM155 499q-62 0 -104 32q-90 68 -90 221q0 172 114 328q66 87 150 125.5t167 38.5q39 0 80 -7q131 -21 293 -136l24 32
q17 23 70 23q83 0 98 -19q10 -12 10 -27q0 -5 -2 -11q-33 -130 -33 -233q0 -73 16 -130t39.5 -83.5t48.5 -26.5q19 0 42 11q96 47 225 177q13 11 29 12q16 0 28 -12t12 -28t-12 -29q-171 -170 -296 -214l-4 -1q-49 -18 -97 -18q-61 0 -107 32q-113 76 -113 292q0 48 6 101
q-175 -216 -310.5 -321.5t-197.5 -117t-86 -11.5zM451 1403q-29 0 -44 24q-8 14 -8 28q0 26 24 42q10 9 59 133q15 40 28.5 69.5t45.5 29.5q10 0 21 -4q30 -14 30 -46q0 -10 -4 -21q-12 -28 -26 -64v-1q-22 -57 -47 -109q-38 -81 -79 -81z" />
    <glyph glyph-name="acircumflex" unicode="&#xe2;" 
d="M227 594q26 0 59 19q175 95 431 424q-164 114 -289 123q-76 -2 -134 -61.5t-92 -146.5q-43 -109 -43 -212q0 -40 8 -73q15 -62 33.5 -67.5t26.5 -5.5zM155 499q-62 0 -104 32q-90 68 -90 221q0 172 114 328q66 87 150 125.5t167 38.5q39 0 80 -7q131 -21 293 -136l24 32
q17 23 70 23q83 0 98 -19q10 -12 10 -27q0 -5 -2 -11q-33 -130 -33 -233q0 -73 16 -130t39.5 -83.5t48.5 -26.5q19 0 42 11q96 47 225 177q13 11 29 12q16 0 28 -12t12 -28t-12 -29q-171 -170 -296 -214l-4 -1q-49 -18 -97 -18q-61 0 -107 32q-113 76 -113 292q0 48 6 101
q-175 -216 -310.5 -321.5t-197.5 -117t-86 -11.5zM353 1341q-17 0 -32 11q-16 15 -17 26.5t-1 13.5q0 17 12 32l211 251q15 16 26 17t14 1q17 0 32 -12q7 -5 11 -13q34 -55 108 -133q65 -69 79 -73q36 -13 36 -48q0 -7 -2 -15q-12 -37 -49 -37q-25 0 -69 37q-74 62 -150 161
l-170 -202q-14 -16 -25 -17h-14z" />
    <glyph glyph-name="atilde" unicode="&#xe3;" 
d="M227 594q26 0 59 19q175 95 431 424q-164 114 -289 123q-76 -2 -134 -61.5t-92 -146.5q-43 -109 -43 -212q0 -40 8 -73q15 -62 33.5 -67.5t26.5 -5.5zM155 499q-62 0 -104 32q-90 68 -90 221q0 172 114 328q66 87 150 125.5t167 38.5q39 0 80 -7q131 -21 293 -136l24 32
q17 23 70 23q83 0 98 -19q10 -12 10 -27q0 -5 -2 -11q-33 -130 -33 -233q0 -73 16 -130t39.5 -83.5t48.5 -26.5q19 0 42 11q96 47 225 177q13 11 29 12q16 0 28 -12t12 -28t-12 -29q-171 -170 -296 -214l-4 -1q-49 -18 -97 -18q-61 0 -107 32q-113 76 -113 292q0 48 6 101
q-175 -216 -310.5 -321.5t-197.5 -117t-86 -11.5zM577 1418q-71 8 -132 36q-53 22 -86 22t-66 -28q-15 -14 -34 -14q-22 0 -36.5 15.5t-14.5 34.5q0 22 16 37q67 60 126 60q57 0 131 -33q63 -27 110 -27q42 0 90 30q13 8 27 8q28 0 43 -23q9 -13 9 -28q0 -26 -23 -42
q-79 -49 -142 -49z" />
    <glyph glyph-name="adieresis" unicode="&#xe4;" 
d="M227 594q26 0 59 19q175 95 431 424q-164 114 -289 123q-76 -2 -134 -61.5t-92 -146.5q-43 -109 -43 -212q0 -40 8 -73q15 -62 33.5 -67.5t26.5 -5.5zM155 499q-62 0 -104 32q-90 68 -90 221q0 172 114 328q66 87 150 125.5t167 38.5q39 0 80 -7q131 -21 293 -136l24 32
q17 23 70 23q83 0 98 -19q10 -12 10 -27q0 -5 -2 -11q-33 -130 -33 -233q0 -73 16 -130t39.5 -83.5t48.5 -26.5q19 0 42 11q96 47 225 177q13 11 29 12q16 0 28 -12t12 -28t-12 -29q-171 -170 -296 -214l-4 -1q-49 -18 -97 -18q-61 0 -107 32q-113 76 -113 292q0 48 6 101
q-175 -216 -310.5 -321.5t-197.5 -117t-86 -11.5zM663 1419q-24 0 -37.5 15t-13.5 35l6 116q1 21 16 34.5t37 13.5q21 -2 34.5 -16.5t13.5 -34.5q0 -130 -23 -150q-14 -13 -33 -13zM431 1405q-22 2 -35.5 17t-13.5 37l6 112q2 22 16.5 35t34.5 13q22 0 36.5 -15.5
t14.5 -37.5l-6 -113q-2 -21 -17 -34.5t-36 -13.5z" />
    <glyph glyph-name="aring" unicode="&#xe5;" 
d="M227 594q26 0 59 19q175 95 431 424q-164 114 -289 123q-76 -2 -134 -61.5t-92 -146.5q-43 -109 -43 -212q0 -40 8 -73q15 -62 33.5 -67.5t26.5 -5.5zM155 499q-62 0 -104 32q-90 68 -90 221q0 172 114 328q66 87 150 125.5t167 38.5q39 0 80 -7q131 -21 293 -136l24 32
q17 23 70 23q83 0 98 -19q10 -12 10 -27q0 -5 -2 -11q-33 -130 -33 -233q0 -73 16 -130t39.5 -83.5t48.5 -26.5q19 0 42 11q96 47 225 177q13 11 29 12q16 0 28 -12t12 -28t-12 -29q-171 -170 -296 -214l-4 -1q-49 -18 -97 -18q-61 0 -107 32q-113 76 -113 292q0 48 6 101
q-175 -216 -310.5 -321.5t-197.5 -117t-86 -11.5zM523 1539q51 0 70 97q-8 72 -67 72q-17 0 -32 -7q-39 -15 -50 -63v-9q0 -49 39 -76q20 -14 40 -14zM522 1438q-51 0 -97 31q-42 29 -62.5 71t-20.5 84q0 69 41 118q56 67 142 67q49 0 88 -23q71 -39 81 -148v-12
q-23 -149 -121 -180q-25 -8 -51 -8z" />
    <glyph glyph-name="ae" unicode="&#xe6;" horiz-adv-x="1641" 
d="M242 611q15 0 34 7q77 29 171 120.5t170 184t101 124.5q2 4 4 6q-163 114 -289 122q-76 -2 -134 -61t-92 -146q-43 -109 -43 -213q0 -40 8 -73q20 -71 70 -71zM850 409q-125 0 -187 73q-53 61 -63 142q-3 29 -3 57q0 64 17 122q-204 -214 -305.5 -251t-152.5 -37
q-60 0 -100 32q-90 68 -90 221q0 172 114 328q66 86 149.5 124.5t165.5 38.5q39 0 82 -7q132 -21 293 -135q12 15 24.5 31.5t31.5 16.5q12 0 24.5 -8.5t14.5 -18t2 -13.5q0 -10 -6 -20q61 39 144 66q52 19 94 19q58 0 93 -31q29 -25 29 -62q0 -158 -435 -329q-5 -29 -5 -58
q0 -83 43 -126q36 -36 122 -36q93 0 244 54q3 2 7 3q174 64 446 224q10 6 21 6q22 0 34 -19q5 -10 5 -20q0 -23 -19 -35q-213 -127 -369 -194l-90 -41q-242 -117 -375 -117zM814 866q265 111 317 203q9 17 9 25q0 4 -2 6q-11 10 -35 10q-22 0 -74 -15q-123 -47 -203 -204
q-6 -11 -12 -25z" />
    <glyph glyph-name="ccedilla" unicode="&#xe7;" horiz-adv-x="940" 
d="M261 513q-89 4 -146 39q-106 64 -127 184q-6 39 -6 78q0 103 43 207q60 144 162 217q56 39 113 39q83 0 150 -95q7 -11 7 -21q0 -22 -17 -35q-11 -7 -22 -7q-21 0 -34 18q-36 52 -68 52q-33 0 -67 -42q-63 -80 -81 -214q-4 -31 -4 -60q0 -94 45 -171q58 -89 191 -89
q44 0 98 11q206 52 430 195q11 7 22 7q21 0 33 -19q7 -10 7 -22q0 -20 -18 -33q-278 -178 -534 -225q-44 -8 -84 -12q29 -54 30 -109q0 -42 -19 -78.5t-57.5 -58.5t-93.5 -23q-22 1 -36 15t-15 36q0 21 14.5 35.5t35.5 15.5q70 0 70 58q-1 29 -19 63q-6 12 -6 24q0 11 3 20z
" />
    <glyph glyph-name="egrave" unicode="&#xe8;" horiz-adv-x="1005" 
d="M175 856q267 114 317 203q10 16 10 25q0 16 -38 16q-28 0 -74 -15q-123 -47 -203 -203zM188 400q-109 9 -163 72q-67 78 -67 197q0 36 6 72q10 62 32 105l1 3q41 99 165 204q77 65 204 109q50 18 97 18q56 0 90 -30q30 -26 30 -62q0 -31 -22 -70q-70 -124 -414 -259
q-5 -31 -5 -61q0 -81 43 -124q37 -36 127 -36q98 0 243 56q211 81 449 226q10 5 20 5q23 0 35 -19q6 -10 6 -20q0 -23 -20 -35q-173 -103 -309 -167q-121 -62 -271.5 -123t-268.5 -61h-8zM266 1336q-41 0 -79 81q-25 52 -47 109v1q-14 36 -26 64q-4 11 -4 21q0 32 30 46
q11 4 21 4q32 0 45.5 -29.5t28.5 -69.5q49 -124 59 -133q24 -16 24 -42q0 -14 -8 -28q-15 -24 -44 -24z" />
    <glyph glyph-name="eacute" unicode="&#xe9;" horiz-adv-x="1005" 
d="M175 856q267 114 317 203q10 16 10 25q0 16 -38 16q-28 0 -74 -15q-123 -47 -203 -203zM188 400q-109 9 -163 72q-67 78 -67 197q0 36 6 72q10 62 32 105l1 3q41 99 165 204q77 65 204 109q50 18 97 18q56 0 90 -30q30 -26 30 -62q0 -31 -22 -70q-70 -124 -414 -259
q-5 -31 -5 -61q0 -81 43 -124q37 -36 127 -36q98 0 243 56q211 81 449 226q10 5 20 5q23 0 35 -19q6 -10 6 -20q0 -23 -20 -35q-173 -103 -309 -167q-121 -62 -271.5 -123t-268.5 -61h-8zM334 1365q-28 0 -44 24q-8 14 -8 28q0 26 24 42q11 9 59 133q15 40 29 69.5t45 29.5
q11 0 21 -4q30 -14 30 -46q0 -10 -4 -21q-12 -28 -26 -64v-1q-22 -57 -47 -109q-38 -81 -79 -81z" />
    <glyph glyph-name="ecircumflex" unicode="&#xea;" horiz-adv-x="1005" 
d="M175 856q267 114 317 203q10 16 10 25q0 16 -38 16q-28 0 -74 -15q-123 -47 -203 -203zM188 400q-109 9 -163 72q-67 78 -67 197q0 36 6 72q10 62 32 105l1 3q41 99 165 204q77 65 204 109q50 18 97 18q56 0 90 -30q30 -26 30 -62q0 -31 -22 -70q-70 -124 -414 -259
q-5 -31 -5 -61q0 -81 43 -124q37 -36 127 -36q98 0 243 56q211 81 449 226q10 5 20 5q23 0 35 -19q6 -10 6 -20q0 -23 -20 -35q-173 -103 -309 -167q-121 -62 -271.5 -123t-268.5 -61h-8zM179 1284q-17 0 -32 11q-16 15 -17 26.5t-1 13.5q0 17 12 32l211 251q15 16 26.5 17
t13.5 1q17 0 32 -12q7 -5 11 -13q35 -55 108 -133q65 -69 79 -73q37 -13 37 -48q0 -7 -3 -15q-12 -37 -49 -37q-24 0 -68 37q-74 62 -151 161l-170 -202q-14 -16 -25 -17h-14z" />
    <glyph glyph-name="edieresis" unicode="&#xeb;" horiz-adv-x="1005" 
d="M175 856q267 114 317 203q10 16 10 25q0 16 -38 16q-28 0 -74 -15q-123 -47 -203 -203zM188 400q-109 9 -163 72q-67 78 -67 197q0 36 6 72q10 62 32 105l1 3q41 99 165 204q77 65 204 109q50 18 97 18q56 0 90 -30q30 -26 30 -62q0 -31 -22 -70q-70 -124 -414 -259
q-5 -31 -5 -61q0 -81 43 -124q37 -36 127 -36q98 0 243 56q211 81 449 226q10 5 20 5q23 0 35 -19q6 -10 6 -20q0 -23 -20 -35q-173 -103 -309 -167q-121 -62 -271.5 -123t-268.5 -61h-8zM468 1362q-25 0 -39 15t-14 35l7 116q1 21 16.5 34.5t38.5 13.5q21 -2 35 -16.5
t14 -34.5q0 -130 -23 -150q-15 -13 -35 -13zM228 1348q-23 2 -37 17t-14 37l7 112q2 22 17 35t35 13q24 0 38.5 -15.5t14.5 -37.5l-6 -113q-2 -21 -17.5 -34.5t-37.5 -13.5z" />
    <glyph glyph-name="igrave" unicode="&#xec;" horiz-adv-x="663" 
d="M110 1287q-42 0 -86 17q-23 12 -23 37q0 8 3 17q12 23 37 23q8 0 16 -4q26 -10 52 -10q23 0 45 8q66 25 89 63q13 20 34 20q10 0 20 -5q21 -12 21 -35q0 -31 -58 -76q-35 -28 -81 -43q-34 -12 -69 -12zM197 518q-25 0 -49 4q-104 17 -149 132q-19 55 -19 134q0 32 3 68
q24 272 54 291q28 15 66 16q84 0 99 -17q10 -12 10 -25l-3 -23q-36 -213 -36 -302q0 -61 16 -99q31 -66 62 -70t41 -4q97 0 340 176q14 10 26.5 18.5t24.5 8.5q20 0 32 -18q8 -11 8 -23q0 -20 -18 -33l-52 -36q-174 -124 -286 -162q-94 -36 -170 -36zM107 1574q-41 0 -79 81
q-25 52 -47 109v1q-14 36 -26 64q-4 11 -4 21q0 32 30 46q11 4 21 4q32 0 45.5 -29.5t28.5 -69.5q49 -124 59 -133q24 -16 24 -42q0 -14 -8 -28q-15 -24 -44 -24z" />
    <glyph glyph-name="iacute" unicode="&#xed;" horiz-adv-x="663" 
d="M109 1287q-41 0 -85 17q-23 12 -23 37q0 8 3 17q12 23 37 23q8 0 16 -4q26 -10 52 -10q23 0 45 8q66 25 89 63q13 20 34 20q10 0 20 -5q21 -12 21 -35q0 -31 -58 -76q-35 -28 -81 -43q-34 -12 -70 -12zM197 518q-26 0 -49 4q-104 17 -149 132q-19 55 -19 134q0 32 3 68
q24 272 54 291q28 15 66 16q84 0 99 -17q10 -12 10 -25l-3 -23q-36 -213 -36 -302q0 -61 16 -99q31 -66 62 -70t41 -4q97 0 340 176q14 10 26.5 18.5t24.5 8.5q20 0 32 -18q8 -11 8 -23q0 -20 -18 -33l-52 -36q-174 -124 -286 -162q-94 -36 -170 -36zM118 1565q-28 0 -44 24
q-8 14 -8 28q0 26 24 42q11 9 59 133q15 40 28.5 69.5t45.5 29.5q10 0 21 -4q30 -14 30 -46q0 -10 -4 -21q-12 -28 -26 -64v-1q-22 -57 -47 -109q-38 -81 -79 -81z" />
    <glyph glyph-name="icircumflex" unicode="&#xee;" horiz-adv-x="663" 
d="M110 1287q-42 0 -86 17q-23 12 -23 37q0 8 3 17q12 23 37 23q8 0 16 -4q26 -10 52 -10q23 0 45 8q66 25 89 63q13 20 34 20q10 0 20 -5q21 -12 21 -35q0 -31 -58 -76q-35 -28 -81 -43q-34 -12 -69 -12zM197 518q-25 0 -49 4q-104 17 -149 132q-19 55 -19 134q0 32 3 68
q24 272 54 291q28 15 66 16q84 0 99 -17q10 -12 10 -25l-3 -23q-36 -213 -36 -302q0 -61 16 -99q31 -66 62 -70t41 -4q97 0 340 176q14 10 26.5 18.5t24.5 8.5q20 0 32 -18q8 -11 8 -23q0 -20 -18 -33l-52 -36q-174 -124 -286 -162q-94 -36 -170 -36zM-75 1503q-17 0 -32 11
q-16 15 -17 26.5t-1 13.5q0 17 12 32l211 251q15 16 26.5 17t13.5 1q17 0 32 -12q7 -5 11 -13q35 -55 108 -133q65 -69 79 -73q37 -13 37 -48q0 -7 -3 -15q-12 -37 -49 -37q-24 0 -68 37q-74 62 -151 161l-170 -202q-14 -16 -25 -17h-14z" />
    <glyph glyph-name="idieresis" unicode="&#xef;" horiz-adv-x="663" 
d="M109 1287q-42 0 -85 17q-23 12 -23 37q0 8 3 17q12 23 37 23q8 0 16 -4q26 -10 51 -10q23 0 46 8q66 25 89 63q13 20 34 20q10 0 20 -5q20 -12 20 -35q0 -31 -57 -76q-35 -28 -81 -43q-34 -12 -70 -12zM197 518q-26 0 -49 4q-104 17 -149 132q-19 55 -19 134q0 32 3 68
q23 272 54 291q28 15 66 16q84 0 99 -17q9 -12 9 -25l-2 -23q-36 -213 -36 -302q0 -61 16 -99q31 -66 61.5 -70t40.5 -4q98 0 341 176q14 10 26.5 18.5t24.5 8.5q19 0 32 -18q8 -11 8 -23q0 -20 -18 -33l-52 -36q-175 -124 -286 -162q-94 -36 -170 -36zM233 1562
q-25 0 -39 15t-14 35l6 116q1 21 17 34.5t38 13.5q22 -2 36 -16.5t14 -34.5q0 -130 -23 -150q-15 -13 -35 -13zM-7 1548q-23 2 -37 17t-14 37l6 112q2 22 17 35t36 13q23 0 38 -15.5t15 -37.5l-6 -113q-2 -21 -18 -34.5t-37 -13.5z" />
    <glyph glyph-name="eth" unicode="&#xf0;" horiz-adv-x="831" 
d="M366 313q-77 0 -144 45q-63 42 -105 109q-67 101 -67 216q0 90 50 173q65 97 123.5 125.5t105.5 28.5q101 0 207 -92q-64 213 -197 381l-118 -102q-15 -13 -33 -13q-22 0 -38 18q-12 14 -12 32q0 24 17 39l118 102q-51 53 -109 98q-21 16 -21 40q0 16 11 31
q14 17 26 18.5t15 1.5q16 0 30 -11q67 -51 124 -111l103 89q16 13 34 13q21 0 38 -18q12 -15 12 -34q0 -21 -18 -37l-102 -89q59 -75 105 -157q123 -222 154 -449q6 -43 6 -84q0 -115 -50 -207q-64 -117 -216 -152q-25 -4 -49 -4zM366 414q14 0 28 3q106 24 149 103
q37 68 37 157q0 25 -3 53q-30 36 -65 73q-95 99 -178 99l-20 -1q-65 -6 -130 -101q-33 -55 -33 -116q0 -82 51 -163q32 -49 75 -78t89 -29z" />
    <glyph glyph-name="ntilde" unicode="&#xf1;" horiz-adv-x="1379" 
d="M54 563q-35 0 -71 6q-17 0 -27 17q-7 12 -7 23l1 9q7 28 21 145q37 297 37 416q0 35 -3 51l-1 10q1 17 12.5 28t28.5 12h58q36 0 63.5 -6.5t31.5 -33t4 -63.5q0 -122 -30 -371q136 218 244.5 323.5t166 120t84.5 14.5q50 0 90 -24q99 -58 164 -220q27 -66 43 -117
q7 -27 9 -28q42 -158 121 -196h2q25 -12 54 -12q33 0 70 16q79 34 161 129q12 13 32 13q13 0 25 -10.5t12.5 -19t0.5 -10.5q0 -14 -9 -26q-134 -153 -263 -171q-49 -9 -93 -9q-234 0 -305 274l-5 15q-15 55 -54 148q-33 77 -83 128q-20 16 -44 16q-36 0 -82 -38
q-128 -108 -293 -389q-60 -103 -78 -139l-2 -2q-13 -29 -86 -29zM585 1388q-71 8 -132 36q-53 22 -86 22t-66 -28q-15 -14 -34 -14q-22 0 -36.5 15.5t-14.5 34.5q0 22 16 37q67 60 125 60t132 -33q63 -27 110 -27q42 0 90 30q13 8 27 8q27 0 43 -23q9 -13 9 -28
q0 -26 -23 -42q-79 -49 -142 -49z" />
    <glyph glyph-name="ograve" unicode="&#xf2;" horiz-adv-x="1163" 
d="M393 386q-177 6 -275 86q-140 116 -140 305q0 54 13 107q15 59 44 109q-38 69 -38 144q0 88 43 159.5t123 109.5q56 27 127 27q65 0 142 -23l4 -1q119 -48 197.5 -153t112.5 -238q25 -95 25 -188q-1 -48 -7 -96h27q181 0 364 87q10 5 20 5q22 0 34 -23q5 -9 5 -17
q0 -25 -23 -37q-204 -96 -403 -96l-42 1q-23 -77 -69.5 -138.5t-115.5 -95.5t-158 -34h-10zM683 739q8 36 8 92q0 83 -23 167q-29 115 -95 205.5t-165 130.5q-64 19 -116 19q-54 0 -96 -21q-57 -26 -88 -77.5t-31 -114.5q0 -39 13 -76q54 49 74 63q14 9 26 9q11 0 21 -6
l24 -16q7 -5 15.5 -10t23 -13.5t17.5 -19t3 -15.5q0 -23 -19 -34q-45 -36 -72 -94q173 -137 424 -182zM440 473q33 0 66 11q112 44 157 176q-156 19 -289 77q-112 48 -197 110q-7 -32 -7 -73q0 -108 60 -189q47 -61 107 -86.5t103 -25.5zM371 1603q-41 0 -79 81
q-25 52 -47 109v1q-14 36 -26 64q-4 11 -4 21q0 32 30 46q11 4 21 4q32 0 45.5 -29.5t28.5 -69.5q49 -124 59 -133q24 -16 24 -42q0 -14 -8 -28q-15 -24 -44 -24z" />
    <glyph glyph-name="oacute" unicode="&#xf3;" horiz-adv-x="1163" 
d="M393 386q-177 6 -275 86q-140 116 -140 305q0 54 13 107q15 59 44 109q-38 69 -38 144q0 88 43 159.5t123 109.5q56 27 127 27q65 0 142 -23l4 -1q119 -48 197.5 -153t112.5 -238q25 -95 25 -188q-1 -48 -7 -96h27q181 0 364 87q10 5 20 5q22 0 34 -23q5 -9 5 -17
q0 -25 -23 -37q-204 -96 -403 -96l-42 1q-23 -77 -69.5 -138.5t-115.5 -95.5t-158 -34h-10zM683 739q8 36 8 92q0 83 -23 167q-29 115 -95 205.5t-165 130.5q-64 19 -116 19q-54 0 -96 -21q-57 -26 -88 -77.5t-31 -114.5q0 -39 13 -76q54 49 74 63q14 9 26 9q11 0 21 -6
l24 -16q7 -5 15.5 -10t23 -13.5t17.5 -19t3 -15.5q0 -23 -19 -34q-45 -36 -72 -94q173 -137 424 -182zM440 473q33 0 66 11q112 44 157 176q-156 19 -289 77q-112 48 -197 110q-7 -32 -7 -73q0 -108 60 -189q47 -61 107 -86.5t103 -25.5zM287 1612q-28 0 -44 24q-8 14 -8 28
q0 26 24 42q11 9 59 133q15 40 28.5 69.5t45.5 29.5q10 0 21 -4q30 -14 30 -46q0 -10 -4 -21q-12 -28 -26 -64v-1q-22 -57 -47 -109q-38 -81 -79 -81z" />
    <glyph glyph-name="ocircumflex" unicode="&#xf4;" horiz-adv-x="1163" 
d="M393 386q-177 6 -275 86q-140 116 -140 305q0 54 13 107q15 59 44 109q-38 69 -38 144q0 88 43 159.5t123 109.5q56 27 127 27q65 0 142 -23l4 -1q119 -48 197.5 -153t112.5 -238q25 -95 25 -188q-1 -48 -7 -96h27q181 0 364 87q10 5 20 5q22 0 34 -23q5 -9 5 -17
q0 -25 -23 -37q-204 -96 -403 -96l-42 1q-23 -77 -69.5 -138.5t-115.5 -95.5t-158 -34h-10zM683 739q8 36 8 92q0 83 -23 167q-29 115 -95 205.5t-165 130.5q-64 19 -116 19q-54 0 -96 -21q-57 -26 -88 -77.5t-31 -114.5q0 -39 13 -76q54 49 74 63q14 9 26 9q11 0 21 -6
l24 -16q7 -5 15.5 -10t23 -13.5t17.5 -19t3 -15.5q0 -23 -19 -34q-45 -36 -72 -94q173 -137 424 -182zM440 473q33 0 66 11q112 44 157 176q-156 19 -289 77q-112 48 -197 110q-7 -32 -7 -73q0 -108 60 -189q47 -61 107 -86.5t103 -25.5zM75 1512q-17 0 -32 11
q-16 15 -17 26.5t-1 13.5q0 17 12 32l211 251q15 16 26.5 17t13.5 1q17 0 32 -12q7 -5 11 -13q35 -55 108 -133q65 -69 79 -73q37 -13 37 -48q0 -7 -3 -15q-12 -37 -49 -37q-24 0 -68 37q-74 62 -151 161l-170 -202q-14 -16 -25 -17h-14z" />
    <glyph glyph-name="otilde" unicode="&#xf5;" horiz-adv-x="1163" 
d="M393 386q-177 6 -275 86q-140 116 -140 305q0 54 13 107q15 59 44 109q-38 69 -38 144q0 88 43 159.5t123 109.5q56 27 127 27q65 0 142 -23l4 -1q119 -48 197.5 -153t112.5 -238q25 -95 25 -188q-1 -48 -7 -96h27q181 0 364 87q10 5 20 5q22 0 34 -23q5 -9 5 -17
q0 -25 -23 -37q-204 -96 -403 -96l-42 1q-23 -77 -69.5 -138.5t-115.5 -95.5t-158 -34h-10zM683 739q8 36 8 92q0 83 -23 167q-29 115 -95 205.5t-165 130.5q-64 19 -116 19q-54 0 -96 -21q-57 -26 -88 -77.5t-31 -114.5q0 -39 13 -76q54 49 74 63q14 9 26 9q11 0 21 -6
l24 -16q7 -5 15.5 -10t23 -13.5t17.5 -19t3 -15.5q0 -23 -19 -34q-45 -36 -72 -94q173 -137 424 -182zM440 473q33 0 66 11q112 44 157 176q-156 19 -289 77q-112 48 -197 110q-7 -32 -7 -73q0 -108 60 -189q47 -61 107 -86.5t103 -25.5zM424 1550q-71 8 -132 36
q-53 22 -86 22t-66 -28q-15 -14 -33 -14q-23 0 -37.5 15.5t-14.5 34.5q0 22 16 37q67 60 126 60q58 0 131 -33q63 -27 110 -27q43 0 90 30q13 8 28 8q27 0 42 -23q9 -13 9 -28q0 -26 -23 -42q-78 -49 -142 -49z" />
    <glyph glyph-name="odieresis" unicode="&#xf6;" horiz-adv-x="1163" 
d="M393 386q-177 6 -275 86q-140 116 -140 305q0 54 13 107q15 59 44 109q-38 69 -38 144q0 88 43 159.5t123 109.5q56 27 127 27q65 0 142 -23l4 -1q119 -48 197.5 -153t112.5 -238q25 -95 25 -188q-1 -48 -7 -96h27q181 0 364 87q10 5 20 5q22 0 34 -23q5 -9 5 -17
q0 -25 -23 -37q-204 -96 -403 -96l-42 1q-23 -77 -69.5 -138.5t-115.5 -95.5t-158 -34h-10zM683 739q8 36 8 92q0 83 -23 167q-29 115 -95 205.5t-165 130.5q-64 19 -116 19q-54 0 -96 -21q-57 -26 -88 -77.5t-31 -114.5q0 -39 13 -76q54 49 74 63q14 9 26 9q11 0 21 -6
l24 -16q7 -5 15.5 -10t23 -13.5t17.5 -19t3 -15.5q0 -23 -19 -34q-45 -36 -72 -94q173 -137 424 -182zM440 473q33 0 66 11q112 44 157 176q-156 19 -289 77q-112 48 -197 110q-7 -32 -7 -73q0 -108 60 -189q47 -61 107 -86.5t103 -25.5zM450 1552q-25 0 -39 15t-14 35
l7 116q1 21 16.5 34.5t38.5 13.5q21 -2 35 -16.5t14 -34.5q0 -130 -23 -150q-15 -13 -35 -13zM210 1538q-23 2 -37 17t-14 37l6 112q3 22 18 35t35 13q24 0 38.5 -15.5t14.5 -37.5l-6 -113q-2 -21 -17.5 -34.5t-37.5 -13.5z" />
    <glyph glyph-name="divide" unicode="&#xf7;" horiz-adv-x="985" 
d="M173 679q-56 0 -84 5q-20 6 -29.5 20.5t-9.5 27.5q0 30 21 43q15 9 29 9l12 -1q12 -3 41 -3q64 0 170 7q206 11 456 36h5q19 0 32 -11q19 -15 19 -37q0 -19 -12 -34.5t-34 -17.5q-186 -21 -461 -38q-94 -6 -155 -6zM464 905q-22 0 -36.5 15.5t-14.5 34.5l7 116
q2 21 17 34.5t36 13.5q22 -2 35 -16.5t13 -33.5q0 -130 -22 -151q-14 -13 -35 -13zM437 369q-22 0 -36 15.5t-14 37.5l6 113q2 21 17 34.5t36 13.5q22 -2 35 -16.5t13 -34.5q0 -131 -22 -150q-14 -13 -35 -13z" />
    <glyph glyph-name="oslash" unicode="&#xf8;" horiz-adv-x="1494" 
d="M92 333q-18 0 -30 12t-12 28t12 28q56 55 127 141q-80 102 -80 244q0 118 57 216q-39 71 -39 155q2 82 44.5 151.5t122.5 106.5q56 27 127 27q65 0 142 -22q1 -1 3 -1q92 -36 160 -108q57 93 97 167q11 20 35 20q9 0 19 -4q21 -13 21 -36q0 -20 -119 -214
q122 -178 122 -401q0 -44 -7 -100h23q183 0 369 88q9 4 18 4q24 0 36 -22q4 -9 4 -18q0 -24 -22 -36q-203 -96 -402 -96l-44 1q-49 -167 -185 -235q-70 -34 -168 -34q-177 7 -274 87l-3 2q-126 -151 -154 -151zM816 769q4 37 4 74q0 81 -21 164q-22 88 -67 162
q-104 -164 -224 -336q146 -68 306 -85zM435 869q134 191 247 371q-60 70 -144 103q-64 19 -116 19q-54 0 -95 -20q-57 -27 -88.5 -78.5t-31.5 -112.5q0 -39 14 -77q12 12 26 22q12 13 44 38q12 12 29 12q12 0 46 -22q21 -15 38 -24q20 -13 20 -35q0 -20 -18 -33
q-45 -36 -72 -94q45 -36 101 -69zM572 484q97 0 172 91q32 41 50 95q-179 22 -333 96q-58 -80 -113 -153l13 -18q77 -98 138.5 -104.5t72.5 -6.5zM311 698q39 52 78 106q-44 25 -81 53q-7 -35 -7 -69q0 -49 10 -90z" />
    <glyph glyph-name="ugrave" unicode="&#xf9;" 
d="M219 490q-104 0 -163 65q-76 82 -76 264q0 97 22 220v2q8 31 38 31q20 0 63 -15q25 -8 44 -16q25 -11 25 -38l-1 -7q-17 -97 -17 -172q0 -133 46 -197q35 -46 85 -46q110 0 230 171q78 110 141 292q5 19 23 27q57 22 113 22q17 0 28 -10t13 -24q71 -328 291 -328l19 1
q63 21 105.5 45.5t51.5 35.5q13 12 29 13q16 0 28 -12t13 -28q0 -16 -12 -29t-64.5 -44t-127.5 -57q-21 -9 -70 -18q-35 -7 -72 -7q-152 0 -242 103q-63 71 -95 167q-64 -147 -139 -239q-115 -141 -231 -159q-53 -13 -98 -13zM394 1269q-41 0 -80 81q-25 52 -47 109v1
q-14 36 -26 64q-4 11 -4 21q0 32 30 46q11 4 21 4q32 0 45.5 -29.5t28.5 -69.5q49 -124 59 -133q24 -16 24 -42q0 -14 -8 -28q-15 -24 -43 -24z" />
    <glyph glyph-name="uacute" unicode="&#xfa;" 
d="M219 490q-104 0 -163 65q-76 82 -76 264q0 97 22 220v2q8 31 38 31q20 0 63 -15q25 -8 44 -16q25 -11 25 -38l-1 -7q-17 -97 -17 -172q0 -133 46 -197q35 -46 85 -46q110 0 230 171q78 110 141 292q5 19 23 27q57 22 113 22q17 0 28 -10t13 -24q71 -328 291 -328l19 1
q63 21 105.5 45.5t51.5 35.5q13 12 29 13q16 0 28 -12t13 -28q0 -16 -12 -29t-64.5 -44t-127.5 -57q-21 -9 -70 -18q-35 -7 -72 -7q-152 0 -242 103q-63 71 -95 167q-64 -147 -139 -239q-115 -141 -231 -159q-53 -13 -98 -13zM356 1213q-28 0 -44 24q-8 14 -8 28q0 26 24 42
q11 9 59 133q15 40 29 69.5t45 29.5q11 0 21 -4q30 -14 30 -46q0 -10 -4 -21q-12 -28 -26 -64v-1q-22 -57 -47 -109q-38 -81 -79 -81z" />
    <glyph glyph-name="ucircumflex" unicode="&#xfb;" 
d="M219 490q-104 0 -163 65q-76 82 -76 264q0 97 22 220v2q8 31 38 31q20 0 63 -15q25 -8 44 -16q25 -11 25 -38l-1 -7q-17 -97 -17 -172q0 -133 46 -197q35 -46 85 -46q110 0 230 171q78 110 141 292q5 19 23 27q57 22 113 22q17 0 28 -10t13 -24q71 -328 291 -328l19 1
q63 21 105.5 45.5t51.5 35.5q13 12 29 13q16 0 28 -12t13 -28q0 -16 -12 -29t-64.5 -44t-127.5 -57q-21 -9 -70 -18q-35 -7 -72 -7q-152 0 -242 103q-63 71 -95 167q-64 -147 -139 -239q-115 -141 -231 -159q-53 -13 -98 -13zM182 1198q-17 0 -32 11q-16 15 -17 26.5
t-1 13.5q0 17 12 32l211 251q15 16 26.5 17t13.5 1q18 0 32 -12q7 -5 11 -13q35 -55 108 -133q65 -69 79 -73q37 -13 37 -48q0 -7 -3 -15q-12 -37 -49 -37q-24 0 -68 37q-74 62 -151 161l-170 -202q-14 -16 -25 -17h-14z" />
    <glyph glyph-name="udieresis" unicode="&#xfc;" 
d="M219 490q-104 0 -163 65q-76 82 -76 264q0 97 22 220v2q8 31 38 31q20 0 63 -15q25 -8 44 -16q25 -11 25 -38l-1 -7q-17 -97 -17 -172q0 -133 46 -197q35 -46 85 -46q110 0 230 171q78 110 141 292q5 19 23 27q57 22 113 22q17 0 28 -10t13 -24q71 -328 291 -328l19 1
q63 21 105.5 45.5t51.5 35.5q13 12 29 13q16 0 28 -12t13 -28q0 -16 -12 -29t-64.5 -44t-127.5 -57q-21 -9 -70 -18q-35 -7 -72 -7q-152 0 -242 103q-63 71 -95 167q-64 -147 -139 -239q-115 -141 -231 -159q-53 -13 -98 -13zM519 1219q-24 0 -38 15t-14 35l6 116
q1 21 16.5 34.5t38.5 13.5q21 -2 35 -16.5t14 -34.5q0 -130 -23 -150q-15 -13 -35 -13zM279 1205q-23 2 -37 17t-14 37l7 112q2 22 17 35t36 13q23 0 37.5 -15.5t14.5 -37.5l-6 -113q-2 -21 -17.5 -34.5t-37.5 -13.5z" />
    <glyph glyph-name="yacute" unicode="&#xfd;" horiz-adv-x="1084" 
d="M188 -975q-113 0 -173 104q-41 69 -41 188q0 151 81 367q1 1 1 3q206 491 488 773l48 429q-191 -333 -313 -398q-47 -27 -107 -27q-18 0 -34 3q-83 19 -121.5 96.5t-38.5 182.5q0 175 69 327q16 27 64 27q27 0 51 -2q38 -4 49 -9q21 -13 21 -35q0 -9 -4 -19
q-74 -141 -74 -322q0 -128 39 -159q5 -4 13 -4q62 0 185 170q93 128 224 381q10 21 34 24q28 3 55 3q26 0 46 -0.5t30.5 -13t10.5 -28.5q0 -25 -48 -455q166 119 347 192q7 3 14 3q27 0 39 -25q2 -7 2 -15q0 -27 -25 -38q-205 -82 -389 -227q-65 -561 -87 -732
q-21 -168 -32 -232q-39 -200 -123 -326t-181 -175q-63 -31 -120 -31zM145 -875q9 0 19 3q74 23 151 138q82 115 120 310q21 131 77 604q9 73 17 147q-223 -250 -399 -671q-68 -183 -72.5 -253t-4.5 -88q0 -94 32 -147q26 -43 60 -43zM420 1243q-28 0 -44 24q-8 14 -8 28
q0 26 24 42q11 9 59 133q15 40 29 69.5t45 29.5q11 0 21 -4q31 -14 31 -46q0 -10 -5 -21q-12 -28 -26 -64v-1q-22 -57 -47 -109q-38 -81 -79 -81z" />
    <glyph glyph-name="thorn" unicode="&#xfe;" horiz-adv-x="919" 
d="M101 196q-23 0 -37 15.5t-14 36.5l59 1286q1 21 15.5 34.5t33.5 13.5q24 0 38 -15.5t14 -36.5l-17 -363q113 93 244 93q156 0 252 -127q80 -106 80 -271q0 -45 -6 -96q-22 -152 -102 -228q-87 -84 -212 -84q-154 0 -283 118l-15 -328q-1 -22 -15.5 -35t-34.5 -13z
M449 556q84 0 141 54q77 72 77 251q0 139 -59 212q-66 85 -171 85q-27 0 -55 -6q-112 -25 -196 -145l-13 -282q62 -102 164 -146q56 -23 112 -23z" />
    <glyph glyph-name="ydieresis" unicode="&#xff;" horiz-adv-x="1084" 
d="M188 -975q-113 0 -173 104q-41 69 -41 188q0 151 81 367q1 1 1 3q206 491 488 773l48 429q-191 -333 -313 -398q-47 -27 -107 -27q-18 0 -34 3q-83 19 -121.5 96.5t-38.5 182.5q0 175 69 327q16 27 64 27q27 0 51 -2q38 -4 49 -9q21 -13 21 -35q0 -9 -4 -19
q-74 -141 -74 -322q0 -128 39 -159q5 -4 13 -4q62 0 185 170q93 128 224 381q10 21 34 24q28 3 55 3q26 0 46 -0.5t30.5 -13t10.5 -28.5q0 -25 -48 -455q166 119 347 192q7 3 14 3q27 0 39 -25q2 -7 2 -15q0 -27 -25 -38q-205 -82 -389 -227q-65 -561 -87 -732
q-21 -168 -32 -232q-39 -200 -123 -326t-181 -175q-63 -31 -120 -31zM145 -875q9 0 19 3q74 23 151 138q82 115 120 310q21 131 77 604q9 73 17 147q-223 -250 -399 -671q-68 -183 -72.5 -253t-4.5 -88q0 -94 32 -147q26 -43 60 -43zM513 1279q-24 0 -38 15t-14 35l6 116
q1 21 16.5 34.5t38.5 13.5q22 -2 36 -16.5t14 -34.5q0 -130 -24 -150q-15 -13 -35 -13zM273 1265q-23 2 -37 17t-14 37l7 112q2 22 17 35t36 13q23 0 37.5 -15.5t14.5 -37.5l-6 -113q-2 -21 -17.5 -34.5t-37.5 -13.5z" />
    <glyph glyph-name="dotlessi" unicode="&#x131;" horiz-adv-x="386" 
d="M147 405q-24 0 -40 18q-37 47 -47 123.5t-10 150.5l1 64q11 189 40.5 366.5t44.5 239.5q6 20 20.5 29.5t28.5 9.5q30 0 43 -22q9 -15 9 -29l-2 -12q-15 -59 -43.5 -231t-38.5 -355q-2 -40 -2 -75q0 -150 34 -194q12 -15 12 -32q0 -24 -19 -40q-14 -11 -31 -11z" />
    <glyph glyph-name="OE" unicode="&#x152;" horiz-adv-x="2187" 
d="M565 132q15 0 32 3q176 32 316 217q206 283 257 727l-152 -20q-13 0 -23 7q-16 13 -16 33q0 33 35 39l163 23q4 63 4 124q0 261 -71 452q-69 184 -208 249q-56 24 -124 24q-136 0 -291 -96q-193 -127 -305 -380q-71 -161 -97 -382q-5 -22 -5 -73q0 -126 46 -229
q30 347 153 620q78 172 182 253q5 5 12 8q15 6 34 6q67 0 114 -41q19 -19 19 -39q0 -18 -14 -30q-89 -79 -157.5 -239t-107.5 -357q-38 -191 -38 -374l1 -43q109 -71 243 -87l11 -1q16 -2 26 -13.5t10 -26.5q0 -18 -13 -29t-28 -11q-9 0 -15 2q-122 13 -227 69
q19 -206 109 -317q52 -68 125 -68zM525 48q-51 0 -104 10q-111 24 -180 120q-122 178 -122 497v25q-119 163 -119 379q0 67 5 82q47 408 254 653q87 103 184 167q174 109 333 109l32 -1q223 91 562 140q363 51 605 51q51 0 97 -2q17 -2 27 -13.5t10 -26.5q0 -19 -12.5 -30
t-29.5 -11q-45 2 -95 2q-236 0 -591 -50q-245 -36 -435 -94q157 -81 235 -282q80 -208 80 -491q0 -55 -3 -110q787 108 790 108q14 0 25 -8q15 -11 15 -32q0 -13 -9 -25t-25 -14l-803 -111q-16 -163 -59 -321q-82 -309 -246 -503q174 51 386 84q369 57 647 57q182 0 200 -29
q8 -11 8 -23q0 -21 -18 -32q-11 -8 -23 -8l-9 1q-55 12 -160 12q-269 0 -633 -57q-372 -57 -566 -157q-63 -33 -131 -50q-59 -16 -122 -16z" />
    <glyph glyph-name="oe" unicode="&#x153;" horiz-adv-x="1751" 
d="M381 378q-177 7 -274 87q-141 113 -141 304q0 54 14 108q14 58 43 108q-38 70 -38 147q0 86 43.5 157t122.5 109q56 27 127 27q65 0 142 -22l4 -2q119 -47 197 -152q120 -162 136 -378q52 105 174 198q73 55 183 92q51 19 95 19q58 0 93 -30q29 -26 29 -62
q0 -158 -435 -330q-6 -32 -6 -63q0 -78 43 -121q37 -36 126 -36q91 0 240 54q3 2 7 3q174 64 446 225q10 5 20 5q22 0 35 -19q6 -10 6 -21q0 -22 -20 -34q-202 -120 -353 -187l-74 -34q-103 -51 -212 -90.5t-204 -39.5h-14q-109 9 -163 72q-46 51 -59 119
q-56 -124 -165 -179q-70 -34 -163 -34h-5zM568 805q54 0 110 7v14q0 83 -21 164q-30 115 -96 205.5t-165 130.5q-65 19 -117 19q-54 0 -95 -20q-56 -27 -87.5 -78.5t-31.5 -113.5q0 -39 13 -76q13 12 27 22q10 13 43 38q22 11 30 11q15 0 45 -21q8 -5 16 -10.5t22 -13.5
q20 -12 20 -35q0 -21 -17 -33q-46 -36 -73 -95q92 -69 199 -95q86 -20 178 -20zM440 462q105 19 162 96q53 72 69 173q-53 -6 -103 -6q-236 0 -403 115q-7 -48 -7 -73q0 -108 60 -189q66 -92 222 -116zM924 856q263 111 317 203q9 16 9 24q0 5 -3 7q-11 10 -36 10
q-28 0 -73 -15q-124 -48 -203 -204q-6 -11 -11 -25z" />
    <glyph glyph-name="Ydieresis" unicode="&#x178;" horiz-adv-x="1516" 
d="M636 -149q-34 0 -66 11q-55 23 -75 105q-7 31 -7 68q0 113 58 240q53 116 164 230.5t290 199.5q102 454 153 1067q-117 -299 -267 -530t-304 -357q-93 -76 -181 -103q-7 -4 -15 -4q-38 -10 -74 -10q-135 0 -220 152q-77 138 -84.5 313t-7.5 230q0 275 58 681q2 10 10 20
q4 6 24 17q29 15 71 15q30 0 72 -9q20 -6 28 -23q1 -1 1 -2t1 -3v-1q2 -5 2 -11l-1 -6q-60 -415 -60 -691q0 -129 13 -227q11 -116 40 -213.5t68.5 -115t57.5 -17.5q58 0 147 70q187 155 364.5 466t285.5 707q6 19 23 27q41 21 88 21q43 0 81 -28q14 -12 14 -29l-1 -4
q-9 -178 -53 -605q-37 -356 -108 -717q133 34 296 45h3q15 0 26.5 -10.5t13.5 -27.5q0 -17 -10.5 -29t-27.5 -13q-179 -12 -320 -54q-48 -211 -113 -376q-79 -195 -159 -297q-37 -48 -98.5 -93.5t-114.5 -62t-86 -16.5zM614 -58q54 0 140 129q64 96 139 279q45 113 81 253
q-254 -143 -356 -362q-51 -119 -51 -202q0 -28 6 -53q11 -44 41 -44zM597 2299q-19 0 -30 12.5t-11 29.5l6 112q2 17 13 27.5t27 10.5q19 0 30 -12.5t11 -29.5l-6 -112q-2 -17 -13 -27.5t-27 -10.5zM862 2298q-19 0 -30 12.5t-11 29.5l6 113q1 17 13 27.5t29 10.5
q17 -2 27.5 -13t10.5 -26l-6 -116q-1 -17 -12.5 -27.5t-26.5 -10.5z" />
    <glyph glyph-name="circumflex" unicode="&#x2c6;" horiz-adv-x="729" 
d="M100 1906q-17 0 -32 11q-16 15 -17 26.5t-1 13.5q0 17 12 32l211 251q15 16 26.5 17t13.5 1q17 0 32 -12q7 -5 11 -13q35 -55 108 -133q65 -69 79 -73q37 -13 37 -48q0 -7 -3 -15q-12 -37 -49 -37q-24 0 -68 37q-74 62 -151 161l-170 -202q-14 -16 -25 -17h-14z" />
    <glyph glyph-name="caron" unicode="&#x2c7;" horiz-adv-x="729" 
d="M313 1915q-24 0 -39 17l-212 252q-12 16 -12 34q0 21 18 37q15 12 32 12q23 0 39 -18l170 -201q79 101 151 161q44 36 69 36q13 0 24 -6q26 -15 26 -45q0 -13 -6 -24q-9 -18 -30 -24q-17 -6 -79 -73q-76 -80 -108 -134q-14 -24 -43 -24z" />
    <glyph glyph-name="uni02C9" unicode="&#x2c9;" horiz-adv-x="751" 
d="M100 2104q-29 0 -45 27q-5 11 -5 23q0 30 26 46q35 15 182 15h112q130 0 161 10q11 4 21 4q33 0 45 -31q5 -11 5 -21q0 -31 -32 -45q-37 -14 -98.5 -16.5t-110.5 -2.5l-67 1q-159 0 -170 -4q-12 -6 -24 -6z" />
    <glyph glyph-name="breve" unicode="&#x2d8;" horiz-adv-x="601" 
d="M274 2042q-35 0 -69 12q-94 36 -147 124q-8 12 -8 26q0 26 26 43q12 7 25 7q28 0 44 -25q34 -56 94 -80q16 -6 32 -6q17 0 34 9q28 15 48 68q11 34 46 34q9 0 18 -3q34 -14 34 -47q0 -9 -3 -18q-53 -141 -168 -144h-6z" />
    <glyph glyph-name="dotaccent" unicode="&#x2d9;" horiz-adv-x="307" 
d="M98 2053q-22 2 -35 16.5t-13 34.5l6 115q1 22 15.5 35t34.5 13q23 0 37 -15t14 -35q0 -130 -23 -150q-15 -14 -36 -14z" />
    <glyph glyph-name="ring" unicode="&#x2da;" horiz-adv-x="552" 
d="M231 1977q52 0 70 97q-7 72 -67 72q-17 0 -32 -7q-39 -15 -50 -63v-9q0 -49 39 -76q20 -14 40 -14zM230 1876q-51 0 -97 31q-42 29 -62.5 71t-20.5 84q0 69 41 118q56 67 142 67q49 0 88 -23q71 -39 81 -148v-12q-23 -149 -121 -180q-25 -8 -51 -8z" />
    <glyph glyph-name="ogonek" unicode="&#x2db;" horiz-adv-x="427" 
d="M199 274q-77 0 -113 40.5t-36 102.5q0 26 8 53q24 83 82 129q0 49 -3 61q0 21 14 36.5t37 15.5q20 0 35.5 -14t15.5 -43q2 -22 2 -54t-7 -53q-10 -21 -30 -28q-30 -13 -48 -76q-5 -16 -5 -30q0 -18 8 -28.5t36 -10.5l30 2q19 0 33 -11q19 -16 19 -40q0 -17 -11.5 -32
t-33.5 -18q-17 -2 -33 -2z" />
    <glyph glyph-name="tilde" unicode="&#x2dc;" horiz-adv-x="752" 
d="M419 2075q-71 8 -132 36q-53 22 -86 22t-66 -28q-15 -14 -33 -14q-23 0 -37.5 15.5t-14.5 34.5q0 22 16 37q67 60 126 60q57 0 131 -33q63 -27 110 -27q42 0 90 30q13 8 28 8q27 0 42 -23q9 -13 9 -28q0 -26 -23 -42q-79 -49 -142 -49z" />
    <glyph glyph-name="hungarumlaut" unicode="&#x2dd;" horiz-adv-x="577" 
d="M371 2076q-24 0 -37.5 15t-13.5 35l6 116q1 21 16 34.5t37 13.5q21 -2 34.5 -16.5t13.5 -34.5q0 -130 -22 -150q-15 -13 -34 -13zM99 2062q-22 2 -35.5 17t-13.5 37l6 112q2 22 16.5 35t34.5 13q23 0 37 -15.5t14 -37.5l-6 -113q-2 -21 -17 -34.5t-36 -13.5z" />
    <glyph glyph-name="endash" unicode="&#x2013;" horiz-adv-x="879" 
d="M559 890q-99 0 -211 4q-139 5 -194 5q-25 0 -30 -2q-11 -6 -24 -6q-29 0 -45 27q-5 11 -5 23q0 30 26 45q26 12 72 12h62q64 0 141 -3q134 -5 212 -5q74 0 95 8q11 4 21 4q32 0 46 -32q4 -10 4 -19q0 -33 -31 -47q-40 -14 -139 -14z" />
    <glyph glyph-name="emdash" unicode="&#x2014;" horiz-adv-x="1157" 
d="M101 891q-30 0 -45 27q-6 12 -6 24q0 30 27 43t102 14t116 1l385 -2q228 0 257 9q10 4 20 4q32 0 46 -32q4 -10 4 -19q0 -33 -31 -47q-42 -14 -138 -15t-147 -1l-455 3q-101 0 -112 -3q-12 -6 -23 -6z" />
    <glyph glyph-name="quoteleft" unicode="&#x2018;" horiz-adv-x="370" 
d="M101 1978q-22 1 -36.5 15t-14.5 40q3 39 4 73q6 164 35 183q14 9 29 9q28 0 42 -21q10 -14 10 -31l-1 -9q-11 -61 -13 -136l-2 -20h15q21 0 35.5 -14t15.5 -36q0 -21 -14 -35.5t-35 -15.5z" />
    <glyph glyph-name="quoteright" unicode="&#x2019;" horiz-adv-x="370" 
d="M150 1978q-26 0 -40 21q-10 15 -10 31l1 9q11 61 13 136l2 21h-15q-21 0 -36 14t-15 35q0 22 14 36.5t35 15.5l70 1q21 0 36 -14t15 -41q-4 -49 -4 -73q-6 -163 -35 -182q-15 -10 -31 -10z" />
    <glyph glyph-name="quotesinglbase" unicode="&#x201a;" horiz-adv-x="370" 
d="M152 255q-28 0 -42 21q-10 15 -10 31l1 9q9 49 14 157l-14 -1q-22 1 -36.5 15t-14.5 35q0 22 14 36.5t35 15.5l70 1q21 0 36 -14.5t15 -40.5q-3 -39 -4 -73q-6 -163 -35 -182q-14 -10 -29 -10z" />
    <glyph glyph-name="quotedblleft" unicode="&#x201c;" horiz-adv-x="467" 
d="M255 1966q-23 0 -37 16t-14 37l12 214q1 21 16 34.5t37 13.5q21 -2 34.5 -16.5t13.5 -34.5l-12 -216q-1 -22 -15.5 -35t-34.5 -13zM102 1966q-24 0 -38 16t-14 37l12 214q2 21 17 34.5t36 13.5q22 -2 35 -16.5t13 -34.5l-11 -216q-2 -22 -16.5 -35t-33.5 -13z" />
    <glyph glyph-name="quotedblright" unicode="&#x201d;" horiz-adv-x="467" 
d="M255 1966q-23 0 -37 15.5t-14 34.5l12 217q1 21 16 34.5t37 13.5q21 -2 34.5 -17t13.5 -37l-12 -213q-1 -22 -15.5 -35t-34.5 -13zM101 1966q-23 0 -37 16t-14 37l12 214q2 21 17 34.5t36 13.5q22 -2 35 -16.5t13 -34.5l-11 -216q-2 -22 -16.5 -35t-34.5 -13z" />
    <glyph glyph-name="quotedblbase" unicode="&#x201e;" horiz-adv-x="577" 
d="M100 575l69 2q22 -1 37 -15t15 -38l-1 -2q-1 -25 -3 -48q0 -16 -1 -48t-5 -65t-11 -60t-19 -35q-13 -9 -29 -9q-22 0 -36.5 13.5t-14.5 35.5l1 11q5 28 8.5 67t5.5 90h-15q-21 0 -35.5 14t-15.5 36q0 21 14 35.5t36 15.5zM306 575l70 2q21 -1 36 -15.5t15 -39.5
q-2 -20 -2.5 -38t-2.5 -35q-5 -164 -34 -183q-13 -9 -29 -9q-22 0 -37 14t-15 36l1 10q5 24 8.5 63t5.5 94h-14q-22 0 -36.5 14t-15.5 36q1 21 15 35.5t35 15.5z" />
    <glyph glyph-name="dagger" unicode="&#x2020;" horiz-adv-x="880" 
d="M424 191q-23 0 -38 15q-57 67 -57 492q0 174 5 450l5 253l-173 4q-36 0 -41 -2q-12 -5 -24 -5q-29 0 -45 26q-6 12 -6 24q0 29 27 45q25 11 97 12q72 0 166 -3q0 173 -2 261q0 22 14.5 37t37.5 15q20 0 34 -13.5t15 -35.5q2 -90 2 -267q59 -2 140 -2q60 1 78 7q10 4 20 4
q33 0 47 -31q4 -10 4 -20q0 -33 -32 -47q-38 -14 -159 -14q-46 0 -99 2q-10 -620 -10 -827q1 -252 29 -295q14 -15 14 -36q0 -20 -15.5 -34.5t-33.5 -14.5z" />
    <glyph glyph-name="daggerdbl" unicode="&#x2021;" horiz-adv-x="879" 
d="M420 193q-24 0 -40 19q-42 65 -48 307q-109 4 -175 4q-28 0 -33 -1q-12 -6 -24 -6q-30 0 -44 26q-6 13 -6 25q0 28 27 44q24 11 65 12q115 0 187 -3q0 306 5 528q3 129 4 253l-172 4q-36 0 -42 -2q-11 -5 -23 -5q-31 0 -45 26q-6 12 -6 24q0 29 27 45q24 11 97 12
q72 0 165 -3l1 111q0 80 -2 150q0 22 14 37t38 15q19 0 33.5 -13.5t15.5 -35.5q2 -90 2 -267q59 -2 139 -2q61 1 79 7q10 4 20 4q32 0 46 -31q4 -10 4 -20q0 -33 -31 -47q-38 -14 -159 -14q-47 0 -99 2l-4 -240l-1 -11q-6 -291 -6 -530l102 -1q108 0 128 6q10 4 20 4
q32 0 46 -31q4 -10 4 -20q0 -34 -31 -46q-39 -15 -165 -15q-48 0 -102 2q4 -201 29 -241q11 -16 11 -38q-3 -20 -19 -34q-15 -10 -32 -10z" />
    <glyph glyph-name="bullet" unicode="&#x2022;" horiz-adv-x="577" 
d="M219 752q-32 0 -61 13q-66 29 -95 96q-13 32 -13 68q0 16 2 32q12 64 48 109q68 87 170 87q45 0 81 -21q76 -47 76 -141q0 -66 -39 -132q-45 -74 -115 -102q-26 -9 -54 -9z" />
    <glyph glyph-name="ellipsis" unicode="&#x2026;" horiz-adv-x="1068" 
d="M164 267q-47 0 -77 30q-37 37 -37 96q0 35 13 65q15 36 42 56.5t60 20.5l17 -1q92 -28 92 -134q0 -38 -19 -73q-28 -54 -91 -60zM810 267q-52 0 -80 24q-41 35 -41 100q0 30 13.5 65.5t40.5 57t62 21.5h9q64 -6 89 -58q15 -31 15 -69q0 -26 -9 -51q-22 -70 -99 -90z
M495 267q-74 0 -97 62q-11 27 -11 57q0 39 15 75t41 55.5t57 19.5l18 -2q52 -13 75 -56q17 -30 17 -66q0 -41 -16 -74q-25 -52 -84 -70z" />
    </font>
</defs>
</svg>
